<svg id="text" xmlns="http://www.w3.org/2000/svg" viewBox="0 0 483.21 494.45">
  <g>
    <path d="M19.64,379.06c0-80.25,47.07-129,110.05-129,30.14,0,53.84,14.9,68.07,30.81l-16.93,20.32c-12.87-13.88-29.46-23.7-50.8-23.7-47.07,0-78.22,38.6-78.22,100.57C51.81,440.69,81.61,480,129,480c23.7,0,41.65-10.49,57.56-27.76l17.27,19.64c-19.64,22.68-44,35.55-76.19,35.55C66,507.4,19.64,459.66,19.64,379.06Z" transform="translate(-19.64 -12.95)"/>
    <path d="M223.49,254.45h32.17L281.73,389.9c4.74,26.75,9.82,53.5,14.56,80.25h1.36c5.76-26.75,11.85-53.5,18-80.25l34.2-135.45h28.78L413.12,389.9c6.09,26.41,11.85,53.16,17.61,80.25h1.69q7.11-40.63,14.22-80.25l26.08-135.45h30.14L451.38,503H413.8L376.21,353.33c-4.4-19.64-8.13-37.59-12.19-56.55h-1.35c-4.07,19-8.47,36.91-12.53,56.55L313.23,503H276Z" transform="translate(-19.64 -12.95)"/>
  </g>
  <g>
    <path d="M225.53,134.55V246.68H205.05V234.9H50.94v12.29H31.23V134.55ZM50.94,151.45V176H205.05V151.45Zm154.11,66.81V192.15H50.94v26.11Zm0-103.42H51.2V22.42H205.05ZM184.83,38.3H70.66V60.82H184.83Zm0,37.63H70.66V99H184.83Z" transform="translate(-19.64 -12.95)"/>
    <path d="M294.14,179.09c-2.56,21.76-7.16,45.57-12.8,61.44-3.07-1.79-10.49-4.35-14.33-5.37,5.89-15.62,9.73-38.15,12.28-58.63Zm50.95-70.91c7.68,16.13,15.36,37.38,18.17,50.43l-14.59,5.89c-.77-3.58-1.54-7.93-2.82-12.8-58.62,9.22-66.56,11.27-71.16,13.83-1-3.84-3.59-12.29-5.63-16.64,5.11-1,11-7.68,18.43-17.16,4.09-4.86,12.29-15.87,21.76-29.95-27.14,3.07-32.77,4.35-36.35,6.15a135.92,135.92,0,0,0-5.38-16.39c4.35-1,8.45-6.4,13.82-14.08s23-37.12,33.28-64.51L331,19.86C320.25,43.93,306.17,69,291.84,88.47l27.39-2.56c6.66-11,13.57-23.29,19.46-35.33l14.84,8.71c-16.12,30.46-36.35,60.92-57.08,85.24l45.31-6.14c-3.07-8.7-6.66-17.66-10-25.34Zm-24.84,67.33c3.33,16.9,6.4,38.91,7.17,53.76l-14.59,3.58c-.51-15.1-3.33-37.37-6.4-54.52Zm27.4-6.66C353.53,184.73,360.19,205,363,218l-13.83,4.6c-2.56-13.56-9-33.79-14.59-49.4Zm151.55,59.4H396.54v18.68H378.88V100c-5.12,7.43-10,14.59-15.62,21a185,185,0,0,0-9.21-16.89c19.45-23.55,36.6-60.93,45.31-89.86l17.92,5.12c-4.1,12.8-9.73,26.11-15.62,39.43h93.95v17.4h-44v32.26h39.17v17.41H451.58v32.76h39.68v17.16H451.58v34.81H499.2Zm-65-152.07H396.54v32.26h37.63Zm0,49.67H396.54v32.76h37.63Zm-37.63,84.73h37.63V175.77H396.54ZM442.37,57c-3.33-9.72-11-25.08-17.16-36.35l16.13-6.4c6.4,11.27,14.08,25.6,17.41,35.07Z" transform="translate(-19.64 -12.95)"/>
  </g>
</svg>
