<?xml version="1.0" encoding="UTF-8"?>
<!-- Created with Inkscape (http://www.inkscape.org/) -->
<svg width="1499.7" height="469.97" version="1.1" viewBox="0 0 1499.7 469.97" xmlns="http://www.w3.org/2000/svg">
 <g transform="translate(0 -2.8917)">
  <path d="m2.0833 212.19h1063.3" fill="none" stroke="#000" stroke-miterlimit="3.864" stroke-width="11.693"/>
  <path d="m190.05 332.92c5.6771 19.167 24.323 29.792 53.958 29.792 32.708 0 52.604-14.688 52.604-34.219 0-8.021-3.2292-14.896-9.5312-20.104-7.7084-6.302-16.875-7.604-28.021-9.479-19.271-3.125-28.906-2.396-28.854-8.334 0.052-3.229 3.8542-6.666 11.615-6.666 9.5312 0 15.625 3.125 19.271 9.062l31.25-5c-6.875-16.562-23.75-25.677-48.49-25.677-30.885 0-48.75 14.115-48.75 33.125 0 8.125 4.2708 15.937 11.562 21.146 9.1667 6.51 19.323 8.021 30.885 9.896 14.375 2.395 22.083 1.718 22.708 7.031 0.4688 3.698-5.0521 6.51-14.583 6.51-13.438 0-20.938-3.698-22.76-10.781l-32.865 3.698"/>
  <path d="m393.12 264.12h-38.021v59.271c0 9.01-4.2708 13.698-10.937 13.698-6.5104 0-9.6354-4.48-9.6354-13.49v-59.479h-37.969v63.385c0 24.323 9.0104 35.573 32.604 35.573 13.385 0 23.229-5.625 28.698-16.302v13.698h35.26v-96.354"/>
  <path d="m503.65 360.68h42.5v-130.21h-42.5z"/>
  <path d="m463.75 360.52h38.385c-2.1875-4.167-3.1771-9.948-3.1771-17.656v-44.011c0-26.614-13.385-37.291-48.594-37.291-30.885 0-49.01 9.739-54.531 30.156l36.25 3.385c0.5729-6.718 6.6667-11.406 15.729-11.406 8.6458 0 12.969 3.177 12.969 10.469v3.021c-44.844 1.302-67.5 13.854-67.5 36.875 0 17.812 13.385 29.271 36.198 29.271 15 0 25.99-5.834 32.292-16.511 0.4167 5.261 0.9896 9.74 1.9792 13.698zm-2.9688-46.094v10.677c0 9.74-5.8854 15.157-15.365 15.157-7.6563 0-11.406-3.021-11.406-9.375 0-8.438 9.2708-14.584 26.771-16.459" fill-rule="evenodd"/>
  <path d="m150.26 257.4h40.677l-0.1563-25.989h-40.417l-0.104 25.989"/>
  <path d="m150.26 360.47h40.677v-96.354h-40.677z"/>
  <path d="m66.771 360.31h41.667l43.594-128.96h-34.948l-25.573 86.615-24.167-86.615h-43.594l43.021 128.96"/>
  <path d="m755.62 360.57h38.385c-2.1875-4.114-3.177-9.948-3.177-17.656v-44.01c0-26.615-13.386-37.292-48.594-37.292-30.885 0-48.958 9.739-54.479 30.156l36.198 3.386c0.573-6.719 6.6667-11.407 15.729-11.407 8.6459 0 12.969 3.177 12.969 10.469v3.021c-44.844 1.303-67.5 13.854-67.5 36.875 0 17.812 13.385 29.271 36.25 29.271 14.948 0 25.938-5.834 32.24-16.511 0.417 5.261 0.99 9.74 1.9792 13.698zm-2.9687-46.093v10.677c0 9.739-5.8855 15.156-15.312 15.156-7.7084 0-11.458-2.969-11.458-9.375 0-8.438 9.2709-14.584 26.771-16.458" fill-rule="evenodd"/>
  <path d="m789.69 332.92c5.7292 19.167 24.375 29.792 54.01 29.792 32.708 0 52.604-14.688 52.604-34.219 0-8.021-3.2812-14.896-9.5312-20.104-7.7604-6.302-16.875-7.604-28.021-9.479-19.271-3.125-28.906-2.396-28.854-8.334 0.05-3.229 3.8542-6.666 11.562-6.666 9.5833 0 15.677 3.125 19.323 9.062l31.25-5c-6.927-16.562-23.75-25.677-48.542-25.677-30.833 0-48.698 14.115-48.698 33.125 0 8.125 4.2708 15.937 11.562 21.146 9.1666 6.51 19.271 8.021 30.885 9.896 14.375 2.395 22.083 1.718 22.708 7.031 0.469 3.698-5.052 6.51-14.635 6.51-13.386 0-20.886-3.698-22.708-10.781l-32.917 3.698"/>
  <path d="m896.41 257.4h40.729v-26.094h-40.729z"/>
  <path d="m896.41 360.47h40.729v-96.354h-40.729z"/>
  <path d="m1009.2 321.56c-0.937 7.291-4.4792 14.583-13.698 14.583-13.906 0-18.49-15.208-18.49-24.427 0-8.646 4.3228-24.375 17.865-24.375 9.427 0 12.083 7.136 13.177 14.271l37.188-1.771c-3.2291-24.583-24.635-38.802-51.667-38.802-33.646 0-56.406 21.719-56.406 51.302 0 14.01 5.1562 27.24 16.302 37.24 11.614 10.156 24.479 13.437 40.312 13.437 27.865 0 48.021-13.437 51.875-38.802l-36.458-2.656"/>
  <path d="m610.57 280.26v-21.719h19.896c8.2291 0 13.177 3.906 13.177 10.885 0 6.927-4.948 10.834-13.177 10.834zm0 51.562v-23.802h20.469c9.2708 0 14.74 4.479 14.74 11.979s-5.4688 11.823-14.74 11.823zm-38.75 28.646h66.51c31.458 0 47.812-12.552 47.812-36.146 0-16.875-9.0624-27.552-26.562-31.093 15.156-3.75 23.229-14.063 23.229-29.063 0-10.469-4.375-19.687-11.823-25.469-9.4271-7.5-19.688-8.281-32.865-8.281h-66.302v130.05" fill-rule="evenodd"/>
  <path d="m98.177 184.95v-101.77h-18.646l-30.052 81.355-30.521-81.355h-18.958v101.77h10.833v-88.802l33.281 88.802h8.6979l32.969-88.802v88.802h12.396"/>
  <path d="m118.18 184.95h11.771v-75.208h-11.771zm-0.4688-88.802h12.656v-12.969h-12.656z" fill-rule="evenodd"/>
  <path d="m192.55 158.54c-2.3958 12.396-8.8021 18.802-18.281 18.802-12.552 0-19.844-11.302-19.844-30.208 0-18.334 7.6042-29.792 20-29.792 10.052 0 16.146 6.094 18.125 18.646l10.573-2.031c-3.0729-17.084-13.125-26.198-28.542-26.198-19.583 0-32.396 15.833-32.396 39.635 0 23.958 12.552 39.531 31.771 39.531 8.3854 0 14.948-2.552 20.312-8.073 4.8438-4.895 6.9792-9.322 8.8542-18.437l-10.573-1.875"/>
  <path d="m226.25 184.95v-39.844c0.3125-15.989 11.146-27.291 25.312-26.093v-11.146c-1.6667-0.11-3.3333-0.26-4.4271-0.26-5.625 0-11.302 2.552-14.635 6.511-2.7604 3.385-4.1146 5.677-7.8125 13.177v-17.605h-10.208v75.261h11.771"/>
  <path d="m285.62 107.76c-10.99 0-19.531 3.958-26.406 12.5-5.4688 6.719-8.2292 15.729-8.2292 26.875 0 10.521 2.4479 19.375 7.4479 26.666 6.1458 8.855 14.375 13.125 25.365 13.125 20.469 0 34.792-16.145 34.792-39.218 0-23.802-13.438-39.948-32.969-39.948zm-1.1979 9.583c6.25 0 12.188 3.073 15.99 8.073 3.6979 5.208 5.3646 12.083 5.3646 21.823 0 18.958-7.8125 30.104-21.094 30.104-13.281 0-20.885-10.99-20.885-30.417 0-9.114 1.8229-16.458 5.2083-21.354 3.3333-4.843 9.5833-8.229 15.417-8.229" fill-rule="evenodd"/>
  <path d="m321.15 165.42c1.8229 6.563 3.8021 9.792 7.7604 13.125 6.4062 5.677 15 8.385 25.677 8.385 18.646 0 30.99-9.27 30.99-23.02 0-12.24-7.5-19.532-22.917-22.292l-14.792-2.604c-8.125-1.511-11.771-4.896-11.771-10.677 0-6.563 6.5625-10.99 16.198-10.99 9.5833 0 15.729 3.646 19.219 11.771l10.677-2.292c-3.6458-12.5-13.854-19.062-29.583-19.062-17.083 0-28.385 8.802-28.385 22.083 0 10.729 7.4479 18.333 20.26 20.781l15.885 2.917c8.5417 1.667 12.969 5.469 12.969 11.562 0 7.344-7.1354 12.24-17.552 12.24-7.2917 0-14.167-2.135-18.594-5.677-2.4479-1.979-3.6979-4.271-4.8958-8.542l-11.146 2.292"/>
  <path d="m426.09 107.76c-10.99 0-19.531 3.958-26.406 12.5-5.5208 6.719-8.2292 15.729-8.2292 26.875 0 10.521 2.4479 19.375 7.4479 26.666 6.1458 8.855 14.375 13.125 25.365 13.125 20.469 0 34.792-16.145 34.792-39.218 0-23.802-13.438-39.948-32.969-39.948zm-1.1979 9.583c6.25 0 12.188 3.073 15.99 8.073 3.6979 5.208 5.3646 12.083 5.3646 21.823 0 18.958-7.8125 30.104-21.094 30.104-13.281 0-20.885-10.99-20.885-30.417 0-9.114 1.8229-16.458 5.2083-21.354 3.3333-4.843 9.5833-8.229 15.417-8.229" fill-rule="evenodd"/>
  <path d="m502.97 109.69h-18.333c0-8.229 0-8.646 1.4062-12.031 1.6667-4.74 6.7188-7.188 14.167-7.188 2.4479 0 4.0104 0.16 7.1875 1.093v-9.479c-5.3125-0.78-7.9167-1.041-11.302-1.041-9.5833 0-17.24 4.583-19.844 11.875-1.6667 4.427-2.1354 7.5-2.4479 16.771h-13.281v9.166h13.281v66.094h10.833v-66.094h18.333v-9.166"/>
  <path d="m550.99 176.88c-4.1667 0.78-6.3021 0.94-9.0625 0.94-8.0729 0-12.188-4.011-12.188-11.771v-47.188h16.927v-9.166h-16.927v-19.792l-10.99 0.89-0.469 18.907h-13.281v9.166h13.281v45.365c0 15.104 7.3438 22.864 21.51 22.864 3.5417 0 5.9896-0.16 11.198-0.88v-9.323"/>
  <path d="m1353.5 130.36-99.635 51.302-99.688-51.302v-67.135l99.688-51.303 99.635 51.303z" fill="#3d87cf" stroke="#000" stroke-miterlimit="3.864" stroke-width="16.067"/>
  <path d="m1355.2 61.511-101.46 50.937-100.21-50.521" fill="none" stroke="#000" stroke-miterlimit="3.864" stroke-width="16.067"/>
  <path d="m1213 212.45-99.687 51.302-99.688-51.302v-67.083l99.688-51.354 99.687 51.302z" fill="#f3632e" stroke="#000" stroke-miterlimit="3.864" stroke-width="16.067"/>
  <path d="m1113 186.2v80.834m101.72-123.44-101.51 50.99-100.21-50.573" fill="none" stroke="#000" stroke-miterlimit="3.864" stroke-width="16.067"/>
  <path d="m1491.6 212.86-99.74 51.25-99.635-51.25v-67.188l99.635-51.25 99.687 51.25z" fill="#912697" stroke="#000" stroke-miterlimit="3.864" stroke-width="16.067"/>
  <path d="m1391.6 186.56v76.146m101.67-118.75-101.51 50.989-100.16-50.573" fill="none" stroke="#000" stroke-miterlimit="3.864" stroke-width="16.067"/>
  <path d="m1353.5 214.38-99.635 51.302-99.688-51.302v-67.135l99.688-51.302 99.635 51.302z" fill="#fac705" stroke="#000" stroke-miterlimit="3.864" stroke-width="16.067"/>
  <path d="m1355.2 145.52-101.46 50.99-100.21-50.573m100 42.187v78.49" fill="none" stroke="#000" stroke-miterlimit="3.864" stroke-width="16.067"/>
  <path d="m582.97 399.22h-13.385c0-6.042 0-6.354 0.99-8.802 1.25-3.49 4.9479-5.26 10.417-5.26 1.7709 0 2.8646 0.11 5.2084 0.78v-6.927c-3.9063-0.57-5.7813-0.78-8.2292-0.78-7.0313 0-12.656 3.333-14.531 8.697-1.1978 3.23-1.5625 5.469-1.7708 12.292h-9.7396v6.719h9.7396v48.333h7.9167v-48.333h13.385v-6.719"/>
  <path d="m615.47 397.76c-8.0729 0-14.271 2.916-19.323 9.166-4.0105 4.896-6.0417 11.511-6.0417 19.636 0 7.708 1.8229 14.167 5.4687 19.531 4.4792 6.458 10.521 9.583 18.542 9.583 14.948 0 25.469-11.823 25.469-28.645 0-17.448-9.8438-29.271-24.115-29.271zm-0.886 7.031c4.5312 0 8.9062 2.24 11.719 5.938 2.6562 3.802 3.9062 8.802 3.9062 15.937 0 13.854-5.7292 21.979-15.417 21.979-9.7395 0-15.312-8.021-15.312-22.187 0-6.719 1.3542-12.084 3.8021-15.625 2.4479-3.594 7.0313-6.042 11.302-6.042" fill-rule="evenodd"/>
  <path d="m664.32 454.27v-29.167c0.208-11.718 8.125-19.947 18.542-19.062v-8.177c-1.25-0.11-2.4479-0.21-3.2812-0.21-4.1146 0-8.2292 1.875-10.677 4.792-2.0313 2.448-3.0209 4.114-5.6771 9.635v-12.864h-7.5v55.052h8.5937"/>
  <path d="m777.81 454.27-24.219-74.479h-10.729l-24.115 74.479h7.8125l6.6146-21.771h27.552l7.5 21.771zm-19.062-28.802h-22.917l11.51-35.729 11.406 35.729" fill-rule="evenodd"/>
  <path d="m800.47 472.86v-26.979c4.6875 7.135 9.1146 9.791 16.25 9.791 13.073 0 22.031-11.718 22.031-29.01 0-17.187-8.8542-28.906-21.875-28.906-7.7083 0-12.969 3.698-17.344 12.187v-10.729h-7.7084v73.646zm0-54.011c2.1875-8.489 7.8125-13.593 14.583-13.593 8.9583 0 14.323 8.125 14.323 21.979 0 7.344-1.3542 12.708-4.1667 16.302-2.3437 3.021-6.4583 5.104-10.156 5.104-7.0313 0-13.281-5.989-14.583-14.375v-15.417" fill-rule="evenodd"/>
  <path d="m863.33 472.86v-26.979c4.6874 7.135 9.1666 9.791 16.302 9.791 13.073 0 21.979-11.718 21.979-29.01 0-17.187-8.802-28.906-21.875-28.906-7.6562 0-12.917 3.698-17.292 12.187v-10.729h-7.7083v73.646zm0-54.011c2.2396-8.489 7.8125-13.593 14.635-13.593 8.9063 0 14.271 8.125 14.271 21.979 0 7.344-1.3542 12.708-4.1146 16.302-2.3438 3.021-6.4583 5.104-10.156 5.104-7.0312 0-13.281-5.989-14.635-14.375v-15.417" fill-rule="evenodd"/>
  <path d="m917.66 454.27h8.5937v-74.479h-8.5937z"/>
  <path d="m946.51 454.27h8.5938v-55.052h-8.5938zm-0.312-65h9.2708v-9.479h-9.2708z" fill-rule="evenodd"/>
  <path d="m1008 434.95c-1.7708 9.011-6.4582 13.698-13.385 13.698-9.1667 0-14.531-8.229-14.531-22.083 0-13.386 5.5729-21.771 14.635-21.771 7.3438 0 11.823 4.479 13.281 13.646l7.7084-1.458c-2.2396-12.5-9.5833-19.219-20.885-19.219-14.271 0-23.646 11.614-23.646 29.01 0 17.552 9.1147 28.906 23.229 28.906 6.0937 0 10.886-1.875 14.792-5.885 3.5939-3.594 5.1563-6.823 6.5105-13.542l-7.7084-1.301"/>
  <path d="m1074 454.27c-0.885-3.385-1.1973-6.719-1.1973-10.729v-23.333c0-8.021-0.989-12.396-3.6979-16.094-3.2292-4.323-8.8021-6.458-17.083-6.458-9.1667 0-16.094 2.239-20.417 6.718-2.3439 2.344-3.3333 4.427-4.1147 8.594l7.9167 1.303c1.4584-6.563 6.4584-9.896 14.844-9.896 7.0314 0 11.615 2.188 13.177 6.354 0.885 2.344 1.0933 3.906 1.0933 9.479-3.4376-0.21-5.1042-0.21-7.2396-0.21-9.2709 0-16.51 1.199-21.562 3.803-5.8855 2.864-9.6875 8.802-9.6875 15.26 0 9.844 7.8124 16.614 19.167 16.614 9.3749 0 14.896-3.229 19.323-11.354 0.469 6.25 0.469 7.24 1.0414 9.948zm-9.4791-27.604c0.107 1.458 0.107 2.604 0.107 3.594 0 10.729-7.7084 18.854-17.812 18.854-6.9792 0-11.615-3.906-11.615-9.844 0-8.125 7.8124-12.812 21.51-12.812 1.823 0 4.5834 0.11 7.8126 0.21" fill-rule="evenodd"/>
  <path d="m1118.2 448.33c-3.0208 0.57-4.5833 0.68-6.6145 0.68-5.8855 0-8.9063-2.917-8.9063-8.594v-34.479h12.396v-6.719h-12.396v-14.531l-8.0209 0.68-0.364 13.855h-9.6875v6.718h9.6869v33.125c0 11.042 5.3646 16.719 15.729 16.719 2.552 0 4.375-0.11 8.1771-0.62v-6.823"/>
  <path d="m1130.9 454.27h8.5938v-55.052h-8.5938zm-0.364-65h9.2708v-9.479h-9.2708z" fill-rule="evenodd"/>
  <path d="m1180.8 397.76c-8.0208 0-14.271 2.916-19.271 9.166-4.0626 4.896-6.0418 11.511-6.0418 19.636 0 7.708 1.7708 14.167 5.4688 19.531 4.4791 6.458 10.469 9.583 18.542 9.583 14.948 0 25.417-11.823 25.417-28.645 0-17.448-9.7916-29.271-24.114-29.271zm-0.885 7.031c4.5834 0 8.9584 2.24 11.719 5.938 2.7083 3.802 3.9063 8.802 3.9063 15.937 0 13.854-5.6771 21.979-15.365 21.979-9.7396 0-15.312-8.021-15.312-22.187 0-6.719 1.3542-12.084 3.802-15.625 2.448-3.594 7.0314-6.042 11.25-6.042" fill-rule="evenodd"/>
  <path d="m1264.5 454.27v-31.823c0-7.812-0.573-11.979-1.7708-14.739-2.9166-6.146-9.0625-9.948-16.094-9.948-7.6043 0-11.927 2.916-17.604 11.614v-10.156h-7.9166v55.052h8.5417v-30.26c0-10.834 6.5104-18.854 15.417-18.854 7.3958 0 11.406 4.791 11.406 13.697v35.417h8.0208"/>
  <path d="m1277.4 439.95c1.3541 4.792 2.8125 7.136 5.6771 9.584 4.7396 4.166 10.99 6.145 18.75 6.145 13.646 0 22.708-6.77 22.708-16.823 0-8.958-5.4688-14.322-16.771-16.302l-10.833-1.927c-5.8853-1.093-8.5937-3.541-8.5937-7.812 0-4.792 4.8437-8.021 11.823-8.021 7.0313 0 11.51 2.656 14.115 8.594l7.8124-1.667c-2.7083-9.167-10.208-13.958-21.667-13.958-12.5 0-20.781 6.51-20.781 16.198 0 7.812 5.4688 13.385 14.844 15.156l11.615 2.135c6.25 1.25 9.4792 4.011 9.4792 8.49 0 5.364-5.2083 8.906-12.813 8.906-5.3645 0-10.417-1.562-13.646-4.114-1.7709-1.459-2.6563-3.125-3.5417-6.25l-8.1771 1.666"/>
 </g>
</svg>
