<svg xmlns="http://www.w3.org/2000/svg" viewBox="0 0 270.99 270.99"><defs><style>.cls-1{fill:none;}.cls-2{fill:#172d72;}.cls-3{fill:#00aeef;}.cls-4{fill:#3351ff;}</style></defs><g id="图层_2" data-name="图层 2"><g id="Layer_1" data-name="Layer 1"><rect class="cls-1" width="270.99" height="270.99"/><path class="cls-2" d="M162.21,63.17,44.78,29.68A12.67,12.67,0,0,0,28.63,41.87V258.31a12.65,12.65,0,0,0,15.61,12.33l117.43-28h0a12.65,12.65,0,0,0,9.74-12.33v-155A12.74,12.74,0,0,0,162.21,63.17Z"/><path class="cls-3" d="M242.2,55.48A12.72,12.72,0,0,0,233,43.32L83.55.5A12.68,12.68,0,0,0,67.38,12.68V176.92A12.68,12.68,0,0,0,83,189.25l149.64-36a12.64,12.64,0,0,0,9.71-12.35Z"/><path class="cls-4" d="M162.21,63.17,67.38,36.12v140.8A12.68,12.68,0,0,0,83,189.25L171.41,168V75.37A12.74,12.74,0,0,0,162.21,63.17Z"/></g></g></svg>