<?xml version="1.0" encoding="UTF-8" standalone="no"?>
<!-- Created with Inkscape (http://www.inkscape.org/) -->

<svg
   xmlns:dc="http://purl.org/dc/elements/1.1/"
   xmlns:cc="http://creativecommons.org/ns#"
   xmlns:rdf="http://www.w3.org/1999/02/22-rdf-syntax-ns#"
   xmlns:svg="http://www.w3.org/2000/svg"
   xmlns="http://www.w3.org/2000/svg"
   xmlns:xlink="http://www.w3.org/1999/xlink"
   version="1.1"
   width="800"
   height="400"
   viewBox="0 0 640.00003 319.99999"
   id="svg2"
   style="fill-rule:evenodd">
  <metadata
     id="metadata40">
    <rdf:RDF>
      <cc:Work
         rdf:about="">
        <dc:format>image/svg+xml</dc:format>
        <dc:type
           rdf:resource="http://purl.org/dc/dcmitype/StillImage" />
        <dc:title></dc:title>
      </cc:Work>
    </rdf:RDF>
  </metadata>
  <defs
     id="defs38">
    <linearGradient
       id="linearGradient3832">
      <stop
         id="stop3834"
         style="stop-color:#ffffff;stop-opacity:0.10769231"
         offset="0" />
      <stop
         id="stop3836"
         style="stop-color:#ffffff;stop-opacity:0"
         offset="1" />
    </linearGradient>
    <linearGradient
       id="linearGradient3824">
      <stop
         id="stop3826"
         style="stop-color:#106bbd;stop-opacity:1"
         offset="0" />
      <stop
         id="stop3828"
         style="stop-color:#193a94;stop-opacity:1"
         offset="1" />
    </linearGradient>
    <linearGradient
       x1="481.51559"
       y1="600.69025"
       x2="481.51559"
       y2="800.15863"
       id="linearGradient3830"
       xlink:href="#linearGradient3824"
       gradientUnits="userSpaceOnUse"
       gradientTransform="matrix(1.5554517,0,0,1.6141565,-110.22932,-970.17171)" />
    <linearGradient
       x1="461.59924"
       y1="758.53021"
       x2="461.59924"
       y2="798.97168"
       id="linearGradient3838"
       xlink:href="#linearGradient3832"
       gradientUnits="userSpaceOnUse" />
    <linearGradient
       x1="461.59924"
       y1="758.53021"
       x2="461.59924"
       y2="798.97168"
       id="linearGradient3840"
       xlink:href="#linearGradient3832"
       gradientUnits="userSpaceOnUse" />
    <linearGradient
       x1="461.59924"
       y1="758.53021"
       x2="461.59924"
       y2="798.97168"
       id="linearGradient3842"
       xlink:href="#linearGradient3832"
       gradientUnits="userSpaceOnUse" />
    <linearGradient
       x1="461.59924"
       y1="758.53021"
       x2="461.59924"
       y2="798.97168"
       id="linearGradient3844"
       xlink:href="#linearGradient3832"
       gradientUnits="userSpaceOnUse" />
    <linearGradient
       x1="461.59924"
       y1="758.53021"
       x2="461.59924"
       y2="798.97168"
       id="linearGradient3846"
       xlink:href="#linearGradient3832"
       gradientUnits="userSpaceOnUse" />
  </defs>
  <path
     d="m 0.00227423,11.626667 639.99696577,0 0,308.369863 -639.99696577,0 0,-308.369863 z"
     id="path8"
     style="fill:#c5c7c9;stroke:none" />
  <path
     d="m 0.00227423,-0.00234406 639.99696577,0 0,320.00976406 -639.99696577,0 0,-320.00976406 z"
     id="path12"
     style="fill:url(#linearGradient3830);fill-opacity:1;stroke:none" />
  <path
     d="m 44.555077,102.42461 0,-47.263953 8.78068,0 10.421527,33.46554 c 0.96438,3.11246 1.67211,5.44563 2.10297,6.99798 0.502411,-1.71722 1.281693,-4.24794 2.348732,-7.58283 l 10.545962,-32.88069 7.845699,0 0,47.263953 -5.619847,0 0,-39.561363 -12.801368,39.561363 -5.263648,0 -12.739149,-40.231753 0,40.231753 -5.621558,0 z m 51.992683,-40.583293 0,-6.68066 5.41764,0 0,6.68066 -5.41764,0 z m 0,40.583293 0,-34.235493 5.41764,0 0,34.235493 -5.41764,0 z m 35.68206,-12.544713 5.31188,0.74816 c -0.57397,3.92908 -2.05943,7.01042 -4.45949,9.23317 -2.39228,2.222743 -5.3352,3.334893 -8.82096,3.334893 -4.36149,0 -7.87993,-1.53057 -10.52419,-4.590153 -2.65827,-3.05957 -3.99129,-7.44906 -3.99129,-13.17156 0,-3.6973 0.57552,-6.93264 1.71255,-9.70602 1.14948,-2.77337 2.88226,-4.85301 5.22166,-6.24047 2.32695,-1.3859 4.87166,-2.07809 7.60926,-2.07809 3.46865,0 6.31047,0.94417 8.50521,2.82782 2.20407,1.88209 3.62265,4.54347 4.24638,8.01058 l -5.26209,0.86949 c -0.50241,-2.30051 -1.3859,-4.02706 -2.65671,-5.1952 -1.27237,-1.15415 -2.8107,-1.739 -4.61658,-1.739 -2.72671,0 -4.94478,1.04682 -6.648,3.14823 -1.70167,2.09052 -2.55249,5.40365 -2.55249,9.93623 0,4.60102 0.82128,7.94525 2.4716,10.03577 1.641,2.08119 3.78598,3.12646 6.4318,3.12646 2.12475,0 3.88863,-0.70462 5.31341,-2.10141 1.42481,-1.39835 2.32853,-3.54488 2.70805,-6.4489 z m 11.09349,12.544713 0,-34.235493 4.86389,0 0,5.18432 c 1.2397,-2.42184 2.38919,-4.02706 3.44534,-4.79857 1.04682,-0.76994 2.20562,-1.16504 3.46709,-1.16504 1.82765,0 3.67241,0.62686 5.55917,1.86966 l -1.86653,5.39275 c -1.3128,-0.84771 -2.63493,-1.26614 -3.95862,-1.26614 -1.19148,0 -2.24762,0.38576 -3.18867,1.14326 -0.94572,0.77151 -1.61145,1.82766 -2.01276,3.18246 -0.60507,2.0563 -0.90217,4.3117 -0.90217,6.76621 l 0,17.926583 -5.40674,0 z M 163.0651,85.302197 c 0,-6.33846 1.64254,-11.03748 4.93544,-14.08617 2.7376,-2.53072 6.08337,-3.8062 10.0311,-3.8062 4.39104,0 7.98103,1.53991 10.76062,4.63215 2.79048,3.08134 4.17639,7.34017 4.17639,12.77492 0,4.41437 -0.61752,7.87991 -1.84788,10.39975 -1.23036,2.53072 -3.02691,4.49059 -5.37564,5.887383 -2.35962,1.39836 -4.92301,2.09209 -7.71349,2.09209 -4.46258,0 -8.07279,-1.53057 -10.83216,-4.611923 -2.75937,-3.0689 -4.13438,-7.49416 -4.13438,-13.282 z m 5.55918,0 c 0,4.39104 0.89282,7.66993 2.67848,9.84912 1.7841,2.19008 4.03173,3.27889 6.72888,3.27889 2.68783,0 4.92456,-1.0997 6.71022,-3.29133 1.77477,-2.19008 2.6676,-5.5343 2.6676,-10.02334 0,-4.23705 -0.89283,-7.45061 -2.68937,-9.62979 -1.79654,-2.1792 -4.02084,-3.26801 -6.68845,-3.26801 -2.69715,0 -4.94478,1.08881 -6.72888,3.25711 -1.78566,2.1683 -2.67848,5.44719 -2.67848,9.82735 z m 29.73401,6.89999 5.34452,-0.90372 c 0.29866,2.30051 1.13861,4.06128 2.51362,5.2932 1.36414,1.22259 3.28045,1.83854 5.75517,1.83854 2.48095,0 4.32882,-0.55063 5.52808,-1.627 1.20081,-1.09038 1.80432,-2.3674 1.80432,-3.82019 0,-1.32058 -0.53352,-2.34406 -1.599,-3.10312 -0.7404,-0.51797 -2.58672,-1.1666 -5.52964,-1.95832 -3.95862,-1.07948 -6.71799,-2.00342 -8.247,-2.79515 -1.52901,-0.78084 -2.69715,-1.8712 -3.48731,-3.25866 -0.79017,-1.38592 -1.18994,-2.91492 -1.18994,-4.58703 0,-1.53058 0.3282,-2.93981 0.98461,-4.23861 0.64708,-1.30814 1.53834,-2.38606 2.65671,-3.24467 0.83995,-0.66107 1.99098,-1.23347 3.436,-1.69544 1.4559,-0.46197 3.01602,-0.69219 4.67724,-0.69219 2.50427,0 4.69902,0.3951 6.59512,1.16504 1.8992,0.77151 3.29444,1.81676 4.19816,3.13736 0.90216,1.3299 1.51656,3.09067 1.85409,5.30408 l -5.2823,0.78083 c -0.24577,-1.76232 -0.94261,-3.13579 -2.09053,-4.12661 -1.14948,-0.99082 -2.77961,-1.48701 -4.88412,-1.48701 -2.48251,0 -4.25728,0.44019 -5.31499,1.32058 -1.06547,0.88194 -1.59745,1.91475 -1.59745,3.09379 0,0.75906 0.22399,1.42947 0.66574,2.03454 0.44175,0.62684 1.12771,1.13391 2.07186,1.55233 0.54286,0.20844 2.13408,0.70462 4.77991,1.47456 3.82641,1.10128 6.49245,1.99255 8.00124,2.69716 1.51813,0.69218 2.7096,1.71723 3.56976,3.04713 0.86171,1.33147 1.29259,2.9818 1.29259,4.96345 0,1.93654 -0.53353,3.75331 -1.57879,5.46897 -1.05771,1.70633 -2.57582,3.025353 -4.55592,3.961743 -1.97853,0.93638 -4.22616,1.39835 -6.72888,1.39835 -4.15462,0 -7.31374,-0.92549 -9.48826,-2.77338 -2.17453,-1.849423 -3.55732,-4.590133 -4.15461,-8.220553 z m 32.12163,-6.89999 c 0,-6.33846 1.64256,-11.03748 4.93545,-14.08617 2.73759,-2.53072 6.08337,-3.8062 10.03111,-3.8062 4.39105,0 7.98102,1.53991 10.76217,4.63215 2.78892,3.08134 4.17483,7.34017 4.17483,12.77492 0,4.41437 -0.6175,7.87991 -1.84787,10.39975 -1.23037,2.53072 -3.02691,4.49059 -5.37565,5.887383 -2.35962,1.39836 -4.923,2.09209 -7.71348,2.09209 -4.46259,0 -8.0728,-1.53057 -10.83216,-4.611923 -2.75782,-3.0689 -4.1344,-7.49416 -4.1344,-13.282 z m 5.55918,0 c 0,4.39104 0.89284,7.66993 2.67849,9.84912 1.78411,2.19008 4.03174,3.27889 6.72889,3.27889 2.68782,0 4.92456,-1.0997 6.71022,-3.29133 1.77476,-2.19008 2.6676,-5.5343 2.6676,-10.02334 0,-4.23705 -0.89284,-7.45061 -2.68938,-9.62979 -1.79654,-2.1792 -4.02085,-3.26801 -6.68844,-3.26801 -2.69715,0 -4.94478,1.08881 -6.72889,3.25711 -1.78565,2.1683 -2.67849,5.44719 -2.67849,9.82735 z m 33.1809,17.122413 0,-29.723123 -4.76901,0 0,-4.51237 4.76901,0 0,-3.64131 c 0,-2.30052 0.19443,-4.01618 0.57553,-5.12833 0.52106,-1.50723 1.43412,-2.72827 2.74847,-3.66464 1.31436,-0.93483 3.14824,-1.3968 5.5172,-1.3968 1.51966,0 3.20111,0.18666 5.04743,0.58329 l -0.80883,5.06146 c -1.11993,-0.22088 -2.18542,-0.32977 -3.19179,-0.32977 -1.641,0 -2.79982,0.37331 -3.47644,1.13392 -0.68751,0.74662 -1.02658,2.15742 -1.02658,4.22461 l 0,3.15757 6.21557,0 0,4.51237 -6.21557,0 0,29.723123 -5.38499,0 z m 28.83029,-5.195203 0.77929,5.129873 c -1.51812,0.34065 -2.88381,0.51641 -4.0815,0.51641 -1.97075,0 -3.48888,-0.32975 -4.57614,-1.00016 -1.07792,-0.66106 -1.83544,-1.54145 -2.27719,-2.630263 -0.44019,-1.07949 -0.66729,-3.36755 -0.66729,-6.84555 l 0,-19.69823 -3.9695,0 0,-4.51237 3.9695,0 0,-8.48343 5.38498,-3.47799 0,11.96142 5.43785,0 0,4.51237 -5.43785,0 0,20.01866 c 0,1.66121 0.0933,2.71737 0.27843,3.19023 0.19443,0.47286 0.50241,0.84772 0.93171,1.13237 0.43085,0.27532 1.04682,0.41842 1.84788,0.41842 0.60507,0 1.39524,-0.0763 2.37983,-0.23176 z"
     id="path14"
     style="fill:#ffffff;stroke:#ffffff;stroke-width:0.88183063" />
  <path
     d="m 116.92418,226.8903 -39.572249,0 -5.445636,20.51796 -35.489186,0 42.242958,-124.29925 37.872133,0 42.26628,124.29925 -36.35245,0 -5.52185,-20.51796 z m -7.2764,-26.88754 -12.431175,-44.68345 -12.353398,44.68345 24.784573,0 z m 35.00077,6.28092 33.05644,-2.28496 c 0.70618,5.93094 2.17297,10.44641 4.36927,13.57132 3.56199,5.03655 8.69031,7.52527 15.33832,7.52527 4.94632,0 8.76652,-1.27391 11.46367,-3.84974 2.66915,-2.57583 4.00374,-5.55607 4.00374,-8.94229 0,-3.21201 -1.25681,-6.10671 -3.82175,-8.65297 -2.56494,-2.54785 -8.47877,-4.94946 -17.79592,-7.20642 -15.23255,-3.79064 -26.09582,-8.79763 -32.58516,-15.07855 -6.54377,-6.27936 -9.81489,-14.2666 -9.81489,-23.99129 0,-6.39602 1.67678,-12.44361 5.02567,-18.11634 3.35043,-5.67118 8.37454,-10.1291 15.10187,-13.39866 6.72577,-3.24156 15.93871,-4.8639 27.63727,-4.8639 14.3677,0 25.33364,2.9538 32.87135,8.85674 7.53927,5.90293 12.01431,15.31031 13.4531,28.1879 l -32.74225,2.11386 c -0.86328,-5.58563 -2.69405,-9.66714 -5.49387,-12.21342 -2.77492,-2.51827 -6.6231,-3.79219 -11.51656,-3.79219 -4.05817,0 -7.09286,0.92706 -9.13517,2.83715 -2.04074,1.88054 -3.06268,4.19505 -3.06268,6.9171 0,1.96764 0.83995,3.73152 2.51517,5.3243 1.64722,1.64879 5.52186,3.15447 11.67056,4.57148 15.1812,3.61954 26.04292,7.29351 32.61159,10.9986 6.56867,3.70509 11.35947,8.27655 14.34127,13.77664 2.98491,5.46896 4.50303,11.60366 4.50303,18.40566 0,7.95924 -2.01587,15.30874 -5.99471,22.02364 -3.97884,6.74133 -9.55202,11.83698 -16.72266,15.30875 -7.14731,3.47333 -16.17514,5.2092 -27.0633,5.2092 -19.10561,0 -32.34873,-4.05194 -39.70291,-12.21339 -7.38061,-8.13191 -11.53989,-18.46323 -12.51049,-31.02349 z m 100.11975,-83.17467 57.73525,0 c 12.56184,0 21.98476,3.29911 28.23924,9.92689 6.25602,6.59824 9.39648,16.03204 9.39648,28.21589 0,12.56183 -3.40334,22.37206 -10.23332,29.43382 -6.82999,7.06018 -17.2484,10.59107 -31.25058,10.59107 l -18.99985,0 0,46.13158 -34.88722,0 0,-124.29925 z m 34.88722,52.98957 8.50521,0 c 6.69933,0 11.38592,-1.27236 14.10795,-3.84819 2.69405,-2.57583 4.05507,-5.87649 4.05507,-9.86933 0,-3.9073 -1.17747,-7.23442 -3.53398,-9.9269 -2.32852,-2.72049 -6.75223,-4.07995 -13.24312,-4.07995 l -9.89113,0 0,27.72437 z"
     id="path16"
     style="fill:#ffffff;stroke:#ffffff;stroke-width:1.10228801" />
  <path
     d="m 354.06211,245.91192 0,-105.85316 14.13439,0 0,15.03967 c 6.82999,-11.63633 16.66978,-17.45373 29.52248,-17.45373 5.60584,0 10.73417,1.15571 15.41608,3.436 4.70991,2.31451 8.20034,5.30876 10.52574,9.04961 2.35651,3.70976 3.96485,8.13191 4.9199,13.23535 0.56618,3.33644 0.86483,9.15383 0.86483,17.45683 l 0,65.08943 -15.74429,0 0,-64.4097 c 0,-7.28107 -0.59729,-12.75936 -1.81831,-16.40069 -1.22415,-3.60708 -3.39867,-6.49712 -6.50179,-8.64208 -3.12957,-2.17764 -6.76778,-3.26645 -10.97372,-3.26645 -6.70867,0 -12.46227,2.45139 -17.35573,7.28108 -4.85924,4.86544 -7.27484,14.05194 -7.27484,27.62948 l 0,57.80836 -15.71474,0 z m 162.99112,-34.09395 16.24981,2.2803 c -2.56494,10.85394 -7.30285,19.25804 -14.22306,25.24653 -6.94819,5.95428 -15.80338,8.94851 -26.56866,8.94851 -13.56666,0 -24.33038,-4.76278 -32.26318,-14.29149 -7.96081,-9.52557 -11.92876,-22.89779 -11.92876,-40.11354 0,-17.83014 4.02707,-31.6441 12.04697,-41.47767 8.05258,-9.83201 18.45854,-14.76591 31.28013,-14.76591 12.40473,0 22.54472,4.83123 30.38731,14.45948 7.87213,9.6298 11.80744,23.20579 11.80744,40.65951 0,1.08882 -0.0296,2.68938 -0.0902,4.79856 l -69.17872,0 c 0.56618,11.63634 3.45777,20.55064 8.64676,26.71023 5.18898,6.19225 11.63011,9.28915 19.38249,9.28915 5.75516,0 10.67506,-1.73588 14.76123,-5.20609 4.08617,-3.43755 7.30596,-8.94852 9.69046,-16.53757 z m -51.61611,-29.02161 51.79499,0 c -0.68596,-8.88163 -2.68471,-15.58563 -5.93405,-20.00778 -5.00856,-6.90776 -11.50879,-10.37797 -19.47114,-10.37797 -7.2173,0 -13.29911,2.75626 -18.22057,8.26878 -4.91989,5.51096 -7.63415,12.89469 -8.16923,22.11697 z m 121.95831,47.05553 2.26628,15.85626 c -4.41281,1.0546 -8.37922,1.59746 -11.86808,1.59746 -5.72562,0 -10.13844,-1.02038 -13.29912,-3.09535 -3.13113,-2.04231 -5.33675,-4.7628 -6.61846,-8.13191 -1.28324,-3.33488 -1.93807,-10.41219 -1.93807,-21.16347 l 0,-60.90526 -50.14622,0 0,-13.95086 50.14622,0 0,-26.23269 15.65405,-10.75129 0,36.98398 15.8034,0 0,13.95086 -15.8034,0 0,61.89142 c 0,5.13765 0.26754,8.40566 0.80417,9.86778 0.56774,1.46368 1.46212,2.62094 2.71426,3.50599 1.25215,0.84928 3.04247,1.29258 5.36632,1.29258 1.76076,0 4.0566,-0.23798 6.91865,-0.7155 z"
     id="path18"
     style="fill:#ffffff;fill-rule:nonzero;stroke:#ffffff;stroke-width:1.10228801" />
  <path
     d="m 330.60279,218.63552 c 6.91554,0 12.5245,5.68984 12.5245,12.70337 0,7.01353 -5.60896,12.70337 -12.5245,12.70337 -6.91398,0 -12.52294,-5.68984 -12.52294,-12.70337 0,-7.01353 5.60896,-12.70337 12.52294,-12.70337 z"
     id="path20"
     style="fill:#ffffff;stroke:#ffffff;stroke-width:1.10228801" />
  <path
     d="m 601.88134,139.94211 6.33069,0 0,6.29491 -6.33069,0 0,-6.29491 z"
     id="path22"
     style="fill:#ffffff;stroke:#ffffff;stroke-width:0.88183063" />
  <g
     transform="matrix(1.5554517,0,0,1.5554517,-110.22932,-923.24957)"
     id="g24"
     style="fill:url(#linearGradient3838);fill-opacity:1;stroke:none">
    <path
       d="m 146.037,772.967 -25.441,0 -3.501,-13.191 -22.816,0 27.158,79.912 24.348,0 27.173,-79.912 -23.371,0 -3.55,13.191 z m -4.678,17.286 -7.992,28.727 -7.942,-28.727 15.934,0 z m 22.502,-4.038 21.252,1.469 c 0.454,-3.813 1.397,-6.716 2.809,-8.725 2.29,-3.238 5.587,-4.838 9.861,-4.838 3.18,0 5.636,0.819 7.37,2.475 1.716,1.656 2.574,3.572 2.574,5.749 0,2.065 -0.808,3.926 -2.457,5.563 -1.649,1.638 -5.451,3.182 -11.441,4.633 -9.793,2.437 -16.777,5.656 -20.949,9.694 -4.207,4.037 -6.31,9.172 -6.31,15.424 0,4.112 1.078,8 3.231,11.647 2.154,3.646 5.384,6.512 9.709,8.614 4.324,2.084 10.247,3.127 17.768,3.127 9.237,0 16.287,-1.899 21.133,-5.694 4.847,-3.795 7.724,-9.843 8.649,-18.122 l -21.05,-1.358 c -0.555,3.59 -1.732,6.214 -3.532,7.851 -1.784,1.619 -4.258,2.438 -7.404,2.438 -2.609,0 -4.56,-0.596 -5.873,-1.824 -1.312,-1.209 -1.969,-2.697 -1.969,-4.447 0,-1.264 0.54,-2.399 1.617,-3.423 1.059,-1.06 3.55,-2.028 7.503,-2.939 9.76,-2.326 16.743,-4.689 20.966,-7.071 4.223,-2.382 7.303,-5.321 9.22,-8.857 1.919,-3.516 2.895,-7.46 2.895,-11.833 0,-5.117 -1.296,-9.842 -3.854,-14.159 -2.558,-4.334 -6.141,-7.609 -10.751,-9.842 -4.595,-2.233 -10.399,-3.349 -17.399,-3.349 -12.283,0 -20.797,2.605 -25.525,7.852 -4.745,5.228 -7.419,11.87 -8.043,19.945 z m 64.367,53.473 37.118,0 c 8.076,0 14.134,-2.121 18.155,-6.382 4.022,-4.242 6.041,-10.307 6.041,-18.14 0,-8.076 -2.188,-14.383 -6.579,-18.923 -4.391,-4.539 -11.089,-6.809 -20.091,-6.809 l -12.215,0 0,-29.658 -22.429,0 0,79.912 z m 22.429,-34.067 5.468,0 c 4.307,0 7.32,0.818 9.07,2.474 1.732,1.656 2.607,3.778 2.607,6.345 0,2.512 -0.757,4.651 -2.272,6.382 -1.497,1.749 -4.341,2.623 -8.514,2.623 l -6.359,0 0,-17.824 z"
       id="path26"
       style="fill:url(#linearGradient3840);fill-opacity:1;stroke:none" />
    <path
       d="m 298.493,760.738 0,68.053 9.087,0 0,-9.669 c 4.391,7.481 10.717,11.221 18.98,11.221 3.604,0 6.901,-0.743 9.911,-2.209 3.028,-1.488 5.272,-3.413 6.767,-5.818 1.515,-2.385 2.549,-5.228 3.163,-8.509 0.364,-2.145 0.556,-5.885 0.556,-11.223 l 0,-41.846 -10.122,0 0,41.409 c 0,4.681 -0.384,8.203 -1.169,10.544 -0.787,2.319 -2.185,4.177 -4.18,5.556 -2.012,1.4 -4.351,2.1 -7.055,2.1 -4.313,0 -8.012,-1.576 -11.158,-4.681 -3.124,-3.128 -4.677,-9.034 -4.677,-17.763 l 0,-37.165 -10.103,0 z m 104.787,21.919 10.447,-1.466 c -1.649,-6.978 -4.695,-12.381 -9.144,-16.231 -4.467,-3.828 -10.16,-5.753 -17.081,-5.753 -8.722,0 -15.642,3.062 -20.742,9.188 -5.118,6.124 -7.669,14.721 -7.669,25.789 0,11.463 2.589,20.344 7.745,26.666 5.177,6.321 11.867,9.493 20.11,9.493 7.975,0 14.494,-3.106 19.536,-9.296 5.061,-6.191 7.591,-14.919 7.591,-26.14 0,-0.7 -0.019,-1.729 -0.058,-3.085 l -44.475,0 c 0.364,-7.481 2.223,-13.212 5.559,-17.172 3.336,-3.981 7.477,-5.971 12.461,-5.971 3.7,0 6.863,1.115 9.49,3.346 2.627,2.21 4.697,5.753 6.23,10.632 z m -33.184,18.658 33.299,0 c -0.441,5.71 -1.726,10.02 -3.815,12.863 -3.22,4.441 -7.399,6.672 -12.518,6.672 -4.64,0 -8.55,-1.772 -11.714,-5.316 -3.163,-3.543 -4.908,-8.29 -5.252,-14.219 z m 78.407,-30.252 1.457,-10.194 c -2.837,-0.678 -5.387,-1.027 -7.63,-1.027 -3.681,0 -6.518,0.656 -8.55,1.99 -2.013,1.313 -3.431,3.062 -4.255,5.228 -0.825,2.144 -1.246,6.694 -1.246,13.606 l 0,39.156 -32.239,0 0,8.969 32.239,0 0,16.865 10.064,6.912 0,-23.777 10.16,0 0,-8.969 -10.16,0 0,-39.79 c 0,-3.303 0.172,-5.404 0.517,-6.344 0.365,-0.941 0.94,-1.685 1.745,-2.253 0.805,-0.547 1.956,-0.831 3.45,-0.831 1.132,0 2.608,0.152 4.448,0.459 z"
       id="path28"
       style="fill:url(#linearGradient3842);fill-opacity:1;stroke:none" />
    <path
       d="m 283.411,778.274 c 4.446,0 8.052,-3.658 8.052,-8.167 0,-4.509 -3.606,-8.167 -8.052,-8.167 -4.445,0 -8.051,3.658 -8.051,8.167 0,4.509 3.606,8.167 8.051,8.167 z"
       id="path30"
       style="fill:url(#linearGradient3844);fill-opacity:1;stroke:none" />
    <path
       d="m 457.816,828.866 4.07,0 0,-4.047 -4.07,0 0,4.047 z"
       id="path32"
       style="fill:url(#linearGradient3846);fill-opacity:1;stroke:none" />
  </g>
  <path
     d="m 314.22544,79.859677 c -1.82298,1.71877 -3.74086,2.57426 -5.74894,2.57426 -1.68612,0 -3.02848,-0.49463 -4.01774,-1.48078 -0.98926,-0.98771 -1.47924,-2.25385 -1.47924,-3.79219 0,-0.77306 0.11511,-1.44657 0.35932,-2.0221 0.23798,-0.58485 0.58952,-1.09503 1.06703,-1.54766 0.4682,-0.4433 1.08105,-0.80573 1.83232,-1.08571 0.52108,-0.17266 1.26304,-0.34375 2.22275,-0.50241 l 3.296,-0.53352 c 1.08104,-0.22243 1.80121,-0.37798 2.1543,-0.47752 -0.006,-1.12615 -0.1151,-1.8821 -0.31264,-2.26941 -0.19132,-0.37952 -0.55219,-0.7155 -1.09037,-0.99549 -0.5273,-0.27842 -1.23348,-0.41997 -2.11542,-0.41997 -1.18837,0 -2.07031,0.25509 -2.65205,0.78239 -0.58328,0.51796 -0.94416,1.26615 -1.08103,2.22896 l -3.07357,-0.82284 c 0.1742,-1.43101 0.83371,-2.62404 1.97697,-3.57753 1.13393,-0.95505 2.75937,-1.43258 4.86857,-1.43258 2.46072,0 4.19194,0.48687 5.21232,1.47458 1.00637,0.99393 1.50256,2.44205 1.50256,4.35837 l 0,5.78161 -0.0233,1.47146 c 0,2.14653 0.30799,3.62732 0.92862,4.43459 l -3.32711,0 c -0.29866,-0.64084 -0.4682,-1.35791 -0.49931,-2.14651 z m -0.32821,-6.04605 c -0.79794,0.22243 -2.2305,0.50864 -4.31637,0.86328 -1.35013,0.22242 -2.22429,0.54285 -2.63027,0.93794 -0.41531,0.41997 -0.6284,0.93793 -0.6284,1.54612 0,0.65795 0.25354,1.21792 0.76528,1.68611 0.50709,0.46819 1.22881,0.69994 2.1543,0.69994 1.0966,0 2.04854,-0.31264 2.8527,-0.93948 0.81195,-0.63308 1.35013,-1.3968 1.61768,-2.31918 0.10732,-0.31888 0.16953,-1.1417 0.18508,-2.47473 z"
     id="path34"
     style="fill:#ffffff;stroke:#ffffff;stroke-width:0.88183063" />
</svg>
