<?xml version="1.0" encoding="UTF-8" standalone="no"?>
<!-- Created with Inkscape (http://www.inkscape.org/) -->

<svg
   xmlns:svg="http://www.w3.org/2000/svg"
   xmlns="http://www.w3.org/2000/svg"
   version="1.1"
   width="191.08707"
   height="42.671303"
   id="svg3678"
   xml:space="preserve"><defs
     id="defs3682"><clipPath
       id="clipPath3694"><path
         d="m 0,774.03 594,0 0,-774 -594,0 0,774 z"
         id="path3696" /></clipPath><clipPath
       id="clipPath3738"><path
         d="m 0,774.03 594,0 0,-774 -594,0 0,774 z"
         id="path3740" /></clipPath></defs><g
     transform="matrix(1.25,0,0,-1.25,-57.88125,951.42313)"
     id="g3688"><g
       transform="matrix(1.4719953,0,0,1.4719953,135.4564,748.45579)"
       id="g3702"
       style="fill:#0067a5;fill-opacity:1"><path
         d="m 0,0 0,2.636 -15.089,0 0,-17.195 -1.304,0 0,18.495 17.694,0 0,-5.237 -10.584,0 0,8.703 1.3,0 0,-7.402"
         id="path3704"
         style="fill:#0067a5;fill-opacity:1;fill-rule:nonzero;stroke:none" /></g><g
       transform="matrix(1.4719953,0,0,1.4719953,135.4564,735.9247)"
       id="g3706"
       style="fill:#0067a5;fill-opacity:1"><path
         d="m 0,0 0,2.635 -7.979,0 0,0.878 -1.302,0 0,0.423 10.582,0 0,-5.237 -10.584,0 0,5.237 1.3,0 0,-3.936"
         id="path3708"
         style="fill:#0067a5;fill-opacity:1;fill-rule:nonzero;stroke:none" /></g><g
       transform="matrix(1.4719953,0,0,1.4719953,100.85273,735.92617)"
       id="g3710"
       style="fill:#0067a5;fill-opacity:1"><path
         d="m 0,0 0,11.148 -6.583,0 0,1.3 7.884,0 0,-13.749 -8.433,0 0,17.215 1.301,0 0,-15.914"
         id="path3712"
         style="fill:#0067a5;fill-opacity:1;fill-rule:nonzero;stroke:none" /></g><g
       transform="matrix(1.4719953,0,0,1.4719953,66.101865,740.19201)"
       id="g3714"
       style="fill:#0067a5;fill-opacity:1"><path
         d="M 0,0 2.181,0 0.198,4.794 -1.787,0 l 4.778,0 -0.32,-1.303 -6.402,0 3.936,9.508 3.931,-9.508 -4.426,0"
         id="path3716"
         style="fill:#0067a5;fill-opacity:1;fill-rule:nonzero;stroke:none" /></g><g
       transform="matrix(1.4719953,0,0,1.4719953,178.81843,740.19201)"
       id="g3718"
       style="fill:#0067a5;fill-opacity:1"><path
         d="M 0,0 2.183,0 0.199,4.794 -1.786,0 2.992,0 2.673,-1.303 l -6.402,0 3.935,9.508 3.931,-9.508 -4.427,0"
         id="path3720"
         style="fill:#0067a5;fill-opacity:1;fill-rule:nonzero;stroke:none" /></g><g
       transform="matrix(1.4719953,0,0,1.4719953,145.97233,746.52012)"
       id="g3722"
       style="fill:#0067a5;fill-opacity:1"><path
         d="M 0,0 3.839,0 C 5.287,0 6.46,1.174 6.46,2.621 6.46,4.069 5.287,5.242 3.839,5.242 l -3.838,0 0,-1.303 3.838,0 c 0.728,0 1.318,-0.59 1.318,-1.318 0,-0.727 -0.59,-1.317 -1.318,-1.317 l -1.751,0 -0.784,0 0,3.247 -1.303,0"
         id="path3724"
         style="fill:#0067a5;fill-opacity:1;fill-rule:nonzero;stroke:none" /></g><g
       transform="matrix(1.4719953,0,0,1.4719953,162.19519,743.99565)"
       id="g3726"
       style="fill:#0067a5;fill-opacity:1"><path
         d="m 0,0 c 0.707,-0.591 1.292,-1.288 1.758,-2.089 l 5.679,13.735 8.114,0 9.571,-23.191 -7.935,0 -1.431,3.459 -0.663,0 -0.101,1.303 1.627,0 1.434,-3.46 5.125,0 -8.497,20.586 -6.384,0 -6.776,-16.402 c 0,2.829 -1.781,5.242 -4.281,6.18 2.349,0.486 4.083,2.555 4.083,5.049 0,2.855 -2.315,5.17 -5.17,5.17 l -0.494,0.006 -50.254,0 0,-17.652 -7.299,17.649 -6.385,0 -8.502,-20.586 5.142,0 1.437,3.46 10.246,0 1.433,-3.46 47.478,0 0,8.699 2.966,0 c 1.943,0 3.517,-1.574 3.517,-3.517 l 0,-5.182 9.497,0 1.437,3.46 8.789,0 0.101,-1.303 -8.03,0 -1.433,-3.459 -11.67,0 0.004,6.484 c 0,1.221 -0.99,2.212 -2.212,2.212 l -1.663,0.002 0,-8.698 -49.647,0 -1.43,3.459 -8.524,0 -1.433,-3.459 -7.954,0 9.592,23.191 8.114,0 5.126,-12.383 0,12.383 52.051,0 C -0.27,11.646 2.63,8.747 2.63,5.17 2.63,3.128 1.683,1.306 0.206,0.119 0.206,0.119 0.073,0.028 0,0"
         id="path3728"
         style="fill:#0067a5;fill-opacity:1;fill-rule:nonzero;stroke:none" /></g></g></svg>