<?xml version="1.0" encoding="utf-8"?>
<!-- Generator: Adobe Illustrator 15.1.0, SVG Export Plug-In . SVG Version: 6.00 Build 0)  -->
<!DOCTYPE svg PUBLIC "-//W3C//DTD SVG 1.1//EN" "http://www.w3.org/Graphics/SVG/1.1/DTD/svg11.dtd">
<svg version="1.1" xmlns="http://www.w3.org/2000/svg" width="250px" height="85px" viewBox="0 0 250 85">
<path fill="#0083AB" d="M136.124,52.511h-16.663l-17.317-21.209v21.209H88.501V7.205
	h13.643v20.313l16.402-20.313h14.833l-16.858,21.215L136.124,52.511z M176.211,43.351h-20.483v-9.559h19.017v-9.162h-19.017v-8.363
	h19.932V7.205h-33.575v45.306h34.127V43.351z M199.117,7.205h-13.645v45.306h13.645V7.205z M244.924,41.656h-20.749V7.205h-13.641
	v45.306h34.39V41.656z"/>
<path fill="#0083AB" d="M5.01,7.445v70.375l36.976-34.79L5.01,7.445z M8.984,17.451
	l26.64,25.646L8.984,68.343V17.451z M12.432,7.181l37.241,35.916L12.432,77.554h64.013V7.181H12.432z M72.335,73.447H23.032
	l32.736-30.351l-33-31.675h49.566V73.447z"/>
<path fill="#0083AB" d="M232.913,8.334h-2.464V7.207h6.209v1.127h-2.481v6.479h-1.264
	V8.334z M237.52,7.207h1.873l1.892,6.077h0.039l1.834-6.077h1.834v7.606h-1.166V8.43h-0.037l-1.911,6.383h-1.147l-2.007-6.479
	h-0.037v6.479h-1.166V7.207z"/>
<path d="M88.535,59.03h15.448v2.356h-6.447v16.163h-2.66V61.386h-6.341V59.03z
	 M108.564,65.345c-1.871,0-3.427,0.592-4.667,1.78c-1.239,1.188-1.858,2.672-1.858,4.454c0,1.766,0.614,3.237,1.84,4.414
	c1.226,1.18,2.753,1.767,4.579,1.767c1.889,0,3.455-0.58,4.699-1.741c1.244-1.16,1.865-2.618,1.865-4.374
	c0-1.809-0.613-3.311-1.839-4.506C111.957,65.942,110.417,65.345,108.564,65.345 M111.397,68.654
	c0.785,0.759,1.178,1.716,1.178,2.872c0,1.164-0.378,2.121-1.133,2.866c-0.754,0.745-1.721,1.118-2.904,1.118
	c-1.192,0-2.167-0.369-2.926-1.105c-0.759-0.738-1.139-1.688-1.139-2.853c0-1.173,0.37-2.14,1.112-2.899
	c0.741-0.759,1.689-1.139,2.847-1.139C109.623,67.515,110.612,67.895,111.397,68.654z M124.171,65.345
	c-1.871,0-3.427,0.592-4.665,1.78c-1.241,1.188-1.86,2.672-1.86,4.454c0,1.766,0.614,3.237,1.84,4.414
	c1.226,1.18,2.753,1.767,4.581,1.767c1.887,0,3.453-0.58,4.699-1.741c1.242-1.16,1.865-2.618,1.863-4.374
	c0-1.809-0.611-3.311-1.838-4.506C127.563,65.942,126.023,65.345,124.171,65.345 M127.004,68.654c0.787,0.759,1.18,1.716,1.18,2.872
	c0,1.164-0.378,2.121-1.133,2.866c-0.756,0.745-1.723,1.118-2.906,1.118c-1.19,0-2.165-0.369-2.924-1.105
	c-0.761-0.738-1.141-1.688-1.141-2.853c0-1.173,0.372-2.14,1.112-2.899c0.742-0.759,1.691-1.139,2.847-1.139
	C125.229,67.515,126.219,67.895,127.004,68.654z M134.005,77.549h2.411V59.057h-2.411V77.549z M139.95,76.674
	c0.857,0.415,1.566,0.701,2.13,0.854c0.567,0.155,1.211,0.231,1.935,0.231c1.226,0,2.23-0.32,3.012-0.959
	c0.781-0.638,1.172-1.457,1.172-2.454c0-1.395-1.016-2.665-3.047-3.811l-0.861-0.491c-0.651-0.361-1.108-0.669-1.367-0.925
	c-0.261-0.257-0.389-0.526-0.389-0.808c0-0.328,0.143-0.592,0.43-0.789c0.286-0.199,0.662-0.299,1.129-0.299
	c0.909,0,2.078,0.433,3.508,1.297v-2.383c-1.253-0.67-2.474-1.006-3.668-1.006c-1.144,0-2.083,0.296-2.811,0.888
	c-0.728,0.59-1.092,1.354-1.092,2.29c0,0.723,0.24,1.392,0.722,2.005c0.479,0.613,1.495,1.352,3.051,2.217
	c0.777,0.441,1.281,0.778,1.516,1.013c0.234,0.233,0.35,0.526,0.35,0.88c0,0.344-0.18,0.64-0.541,0.886
	c-0.362,0.248-0.794,0.37-1.299,0.37c-0.485,0-1.082-0.147-1.793-0.442c-0.71-0.296-1.406-0.683-2.085-1.159V76.674 M159.703,76.874
	c0.512,0.256,1.203,0.469,2.072,0.635c0.868,0.167,1.696,0.251,2.479,0.251c1.958,0,3.524-0.58,4.694-1.741
	c1.17-1.16,1.753-2.719,1.753-4.677c0-1.828-0.489-3.324-1.47-4.489c-0.979-1.165-2.24-1.747-3.783-1.747
	c-1.186,0-2.296,0.379-3.338,1.138v-7.188h-2.408V76.874z M164.854,67.356c1.014,0,1.836,0.379,2.469,1.139
	c0.628,0.759,0.944,1.742,0.944,2.951c0,1.19-0.337,2.165-1.012,2.925c-0.677,0.759-1.546,1.139-2.615,1.139
	c-0.863,0-1.706-0.124-2.528-0.37v-6.591C163.038,67.753,163.951,67.356,164.854,67.356z M178.077,72.25l-3.291-6.879h-2.743
	l4.702,9.562l-4.133,8.823h2.688l8.629-18.385h-2.702L178.077,72.25z M190.034,77.549h2.72l2.31-5.481h7.889l2.467,5.481h2.708
	l-8.292-18.598h-1.86L190.034,77.549z M196.114,69.712l2.765-6.696l2.985,6.696H196.114z M213.531,77.549v-8.048h0.688
	c0.863,0,1.481,0.1,1.85,0.297c0.366,0.198,0.777,0.522,1.231,0.971c0.455,0.45,0.956,1.054,1.501,1.814l0.887,1.443l0.82,1.35
	l0.516,0.729c0.078,0.106,0.132,0.182,0.156,0.226l0.81,1.218h3.147l-0.977-1.324c-0.391-0.529-0.906-1.319-1.55-2.37
	c-1.025-1.667-1.819-2.836-2.383-3.507c-0.565-0.669-1.145-1.199-1.733-1.587c1.004-0.389,1.776-0.975,2.315-1.762
	c0.538-0.785,0.808-1.715,0.808-2.792c0-1.58-0.549-2.833-1.648-3.759s-2.584-1.39-4.455-1.39h-4.632v18.492H213.531z
	 M217.109,61.598c0.561,0.194,0.996,0.528,1.303,0.999c0.311,0.474,0.465,1,0.465,1.582c0,0.591-0.14,1.119-0.419,1.582
	c-0.274,0.463-0.665,0.809-1.164,1.039c-0.498,0.229-1.417,0.345-2.759,0.345h-1.004v-5.838h0.792
	C215.622,61.307,216.548,61.405,217.109,61.598z M236.426,66.652l-6.146-7.595h-2.504v18.492h2.647V63.161l5.751,7.147h0.489
	l5.687-7.147v14.388h2.66V59.057h-2.476L236.426,66.652z"/>
</svg>
