<?xml version="1.0" encoding="UTF-8" standalone="no"?>
<svg xmlns:dc="http://purl.org/dc/elements/1.1/" xmlns:cc="http://creativecommons.org/ns#" xmlns:rdf="http://www.w3.org/1999/02/22-rdf-syntax-ns#" xmlns:svg="http://www.w3.org/2000/svg" xmlns="http://www.w3.org/2000/svg" viewBox="0 0 666.66663 666.66663" height="666.66663" width="666.66663" xml:space="preserve" id="svg2" version="1.1"><metadata id="metadata8"><rdf:RDF><cc:Work rdf:about=""><dc:format>image/svg+xml</dc:format><dc:type rdf:resource="http://purl.org/dc/dcmitype/StillImage"/></cc:Work></rdf:RDF></metadata><defs id="defs6"/><g transform="matrix(1.3333333,0,0,-1.3333333,0,666.66665)" id="g10"><g transform="scale(0.1)" id="g12"><path id="path14" style="fill:#f03b22;fill-opacity:1;fill-rule:nonzero;stroke:none" d="M 5000,0 H 0 V 5000 H 5000 V 0"/><path id="path16" style="fill:#231311;fill-opacity:1;fill-rule:nonzero;stroke:none" d="M 4780,220 H 220 V 4780 H 4780 V 220"/><path id="path18" style="fill:#f03b22;fill-opacity:1;fill-rule:nonzero;stroke:none" d="m 1812.31,1575.31 c 0,-20.64 -5.91,-27.52 -23.67,-27.52 h -316.58 c -11.82,0 -17.73,10.31 -17.73,27.52 v 2191.24 c 0,20.65 2.95,24.08 20.7,24.08 h 1139.08 c 17.76,0 23.67,-3.43 26.64,-24.08 l 26.62,-278.63 c 2.97,-20.63 -2.95,-30.96 -20.7,-30.96 h -834.36 v -653.59 h 748.56 c 17.75,0 23.67,-6.88 23.67,-24.07 v -285.53 c 0,-17.19 -8.89,-24.08 -23.67,-24.08 h -748.56 v -894.38"/><path id="path20" style="fill:#f03b22;fill-opacity:1;fill-rule:nonzero;stroke:none" d="m 3578.43,1813.93 c -23.25,-3.44 -55.14,-6.88 -72.59,-6.88 -52.32,0 -95.84,24.08 -95.84,130.72 v 1720.78 133.76 17.69 h 12.27 c -2.9,0 -9.12,0 -21.1,0 h -302.34 c -12.75,0 -19.24,0 -21.83,0 h -7 v -17.69 -133.76 -1741.42 c 0,-333.67 133.61,-423.11 319.67,-423.11 81.38,0 149.59,17.19 181.56,34.4 17.44,6.87 18.77,13.77 18.77,37.83 v 230.49 c 0,13.75 -2.84,20.64 -11.57,17.19"/></g></g></svg>