<?xml version="1.0" encoding="utf-8"?>
<!-- Generator: Adobe Illustrator 25.0.0, SVG Export Plug-In . SVG Version: 6.00 Build 0)  -->
<svg version="1.1" id="katman_1" xmlns="http://www.w3.org/2000/svg" xmlns:xlink="http://www.w3.org/1999/xlink" x="0px" y="0px"
	 viewBox="0 0 2900 1822.3" style="enable-background:new 0 0 2900 1822.3;" xml:space="preserve">
<style type="text/css">
	.st0{fill-rule:evenodd;clip-rule:evenodd;fill:#272727;}
	.st1{fill-rule:evenodd;clip-rule:evenodd;fill:#74BB11;}
	.st2{fill-rule:evenodd;clip-rule:evenodd;fill:#009CD9;}
	.st3{fill-rule:evenodd;clip-rule:evenodd;fill:#EB2084;}
</style>
<g>
	<path class="st0" d="M2471.6,613c-102.1,0-159.8,19.7-193,65.9c-34.6,48.3-41.6,124.5-41.6,231.8c0,210.6,32.6,298.7,234.5,298.7
		c24.3,0,107.2-0.5,155.6-6.4c18.8-3.1,27.3-17.5,27.3-30.4v-23.3c0-18.1-13.7-31.8-31.8-31.8h-151c-113.9,0-134.5-26.9-137.4-179.5
		v-49.4c1-156.2,21.5-183.7,137.4-183.7c106.9,0,127.4,24.4,130.9,161.9h-169.8v92.9H2656c44,0,44-30.8,44-40.9v-29.6
		C2696.8,674.9,2645.6,613,2471.6,613 M2177.5,621.2l-2.4-0.6c-20.8-4.4-77.6-7.5-105.8-7.5c-99.7,0-152.4,41.8-152.4,120.8v439.8
		c0,18.1,12.7,30.8,30.8,30.8h35.5c18.2,0,30.8-12.6,30.8-30.8V741.8c0-19.5,4.9-37,64.4-37l88.1-0.1c8.6,1,16.9-1.4,23.2-6.7
		c6.9-5.8,10.7-14.3,10.7-24v-22.3C2200.4,637.2,2192,626,2177.5,621.2 M1751.6,620.1h-35.5c-18.1,0-30.8,12.6-30.8,30.8v466.7
		h-147.5c-91.3,0-128.3-5.8-128.3-151.2V650.8c0-18.1-12.7-30.8-30.8-30.8h-34.5c-18.1,0-31.8,13.2-31.8,30.8v315.5
		c0,206.7,75,243.1,232.5,243.1c56.7,0,134.3,0,208.3-10.4l1.7-0.3c18.3-4.6,27.6-15,27.6-31.1V650.8
		C1782.4,632.7,1769.7,620.1,1751.6,620.1"/>
	<path class="st1" d="M1202.9,634.5c-4.6-9.7-14.3-15.5-26.1-15.5h-45.6c-13.2,0-23.1,5.3-28.4,14.9l-67.6,98.7l59.2,80.9
		l103.3-148.2C1209.1,651.7,1205.1,639.2,1202.9,634.5"/>
	<path class="st2" d="M846.6,632.9L846.6,632.9C836.3,619,822.6,619,818,619h-44.6c-11.4,0-20.8,5.3-25.7,14.4c-5,9.4-4,20.6,3,31
		l165.2,229l-190,265c-6.6,10-7.6,21-2.6,30.4c4.9,9.1,14.3,14.4,25.7,14.4h45.6c11.7,0,22-6.1,27.2-15.7l212.7-293L846.6,632.9z"/>
	<path class="st3" d="M1225.6,1160.8L1093,978.9l-58.3,80.4l104.8,139.9l2.7,1.2c4.2,1.9,8.7,2.9,13.2,2.9h44.6
		c10.8,0,19.9-4.8,25.1-13.1C1230.5,1181.6,1230.6,1170.9,1225.6,1160.8"/>
	<path class="st0" d="M550.6,955.6v154.5c-45.1,6.9-114,8.5-137.4,8.5c-103.7,0-115.1-28.3-115.1-88.5c0-56.3,21.1-74.4,86.7-74.4
		L550.6,955.6z M408.2,613c-32.1,0-75.8,0.8-130.2,7.4l-2.5,0.5c-15.8,4.5-23.9,14.9-23.9,30.9v22.2c0,19,11.8,30.8,30.8,30.8h125.7
		c101.2,0,142.5,27.4,142.5,94.6v65.3H384.9C255.3,864.7,200,914.2,200,1030c0,129.1,57.2,179.4,204.1,179.4
		c59.5,0,169-4.6,209.5-17c34.1-9.5,34.1-35.5,34.1-44.1V793.4C647.8,672,569.4,613,408.2,613L408.2,613z"/>
</g>
</svg>
