<svg viewBox="0 0 512 512" xmlns="http://www.w3.org/2000/svg"><text x="729.64" y="231.36"><tspan x="729.64" y="231.36"/></text><text transform="scale(4.0128 .2492)" x="378.91" y="579.26"/><text x="1310.91" y="151.36"><tspan x="1310.91" y="151.36"/></text><text transform="scale(4.0128 .2492)" x="523.76" y="258.22"/><text x="239.33" y="-29.9"><tspan x="239.33" y="-29.9"/></text><text transform="scale(4.0128 .2492)" x="256.72" y="-469.13"/><text x="1337.38" y="-246.37"><tspan x="1337.38" y="-246.37"/></text><text transform="scale(4.0128 .2492)" x="530.36" y="-1337.8"/><text x="1918.65" y="-326.37"><tspan x="1918.65" y="-326.37"/></text><text transform="scale(4.0128 .2492)" x="675.21" y="-1658.83"/><text x="1529.53" y="-798.77"><tspan x="1529.53" y="-798.77"/></text><text transform="scale(4.0128 .2492)" x="578.24" y="-3554.48"/><text x="2110.79" y="-878.78"><tspan x="2110.79" y="-878.78"/></text><text transform="scale(4.0128 .2492)" x="723.09" y="-3875.52"/><text x="277.99" y="535.94"><tspan x="277.99" y="535.94"/></text><text x="729.64" y="231.36"><tspan x="729.64" y="231.36"/></text><text transform="scale(4.0128 .2492)" x="378.91" y="579.26"/><text x="1310.91" y="151.36"><tspan x="1310.91" y="151.36"/></text><text transform="scale(4.0128 .2492)" x="523.76" y="258.22"/><text x="239.33" y="-29.9"><tspan x="239.33" y="-29.9"/></text><text transform="scale(4.0128 .2492)" x="256.72" y="-469.13"/><text x="1337.38" y="-246.37"><tspan x="1337.38" y="-246.37"/></text><text transform="scale(4.0128 .2492)" x="530.36" y="-1337.8"/><text x="1918.65" y="-326.37"><tspan x="1918.65" y="-326.37"/></text><text transform="scale(4.0128 .2492)" x="675.21" y="-1658.83"/><text x="1529.53" y="-798.77"><tspan x="1529.53" y="-798.77"/></text><text transform="scale(4.0128 .2492)" x="578.24" y="-3554.48"/><text x="2110.79" y="-878.78"><tspan x="2110.79" y="-878.78"/></text><text transform="scale(4.0128 .2492)" x="723.09" y="-3875.52"/><text x="277.99" y="535.94"><tspan x="277.99" y="535.94"/></text><text x="729.64" y="231.36"><tspan x="729.64" y="231.36"/></text><text transform="scale(4.0128 .2492)" x="378.91" y="579.26"/><text x="1310.91" y="151.36"><tspan x="1310.91" y="151.36"/></text><text transform="scale(4.0128 .2492)" x="523.76" y="258.22"/><text x="239.33" y="-29.9"><tspan x="239.33" y="-29.9"/></text><text transform="scale(4.0128 .2492)" x="256.72" y="-469.13"/><text x="1337.38" y="-246.37"><tspan x="1337.38" y="-246.37"/></text><text transform="scale(4.0128 .2492)" x="530.36" y="-1337.79"/><text x="1918.65" y="-326.37"><tspan x="1918.65" y="-326.37"/></text><text transform="scale(4.0128 .2492)" x="675.21" y="-1658.82"/><text x="1529.53" y="-798.77"><tspan x="1529.53" y="-798.77"/></text><text transform="scale(4.0128 .2492)" x="578.24" y="-3554.46"/><text x="2110.79" y="-878.78"><tspan x="2110.79" y="-878.78"/></text><text transform="scale(4.0128 .2492)" x="723.09" y="-3875.5"/><text x="277.99" y="535.94"><tspan x="277.99" y="535.94"/></text><text x="729.64" y="231.36"><tspan x="729.64" y="231.36"/></text><text transform="scale(4.0128 .2492)" x="378.91" y="579.26"/><text x="1310.91" y="151.36"><tspan x="1310.91" y="151.36"/></text><text transform="scale(4.0128 .2492)" x="523.76" y="258.22"/><text x="239.33" y="-29.9"><tspan x="239.33" y="-29.9"/></text><text transform="scale(4.0128 .2492)" x="256.72" y="-469.13"/><text x="1337.38" y="-246.37"><tspan x="1337.38" y="-246.37"/></text><text transform="scale(4.0128 .2492)" x="530.36" y="-1337.8"/><text x="1918.65" y="-326.37"><tspan x="1918.65" y="-326.37"/></text><text transform="scale(4.0128 .2492)" x="675.21" y="-1658.83"/><text x="1529.53" y="-798.77"><tspan x="1529.53" y="-798.77"/></text><text transform="scale(4.0128 .2492)" x="578.24" y="-3554.48"/><text x="2110.79" y="-878.78"><tspan x="2110.79" y="-878.78"/></text><text transform="scale(4.0128 .2492)" x="723.09" y="-3875.52"/><text x="277.99" y="535.94"><tspan x="277.99" y="535.94"/></text><text x="729.64" y="231.36"><tspan x="729.64" y="231.36"/></text><text transform="scale(4.0128 .2492)" x="378.91" y="579.26"/><text x="1310.91" y="151.36"><tspan x="1310.91" y="151.36"/></text><text transform="scale(4.0128 .2492)" x="523.76" y="258.22"/><text x="239.33" y="-29.9"><tspan x="239.33" y="-29.9"/></text><text transform="scale(4.0128 .2492)" x="256.72" y="-469.13"/><text x="1337.38" y="-246.37"><tspan x="1337.38" y="-246.37"/></text><text transform="scale(4.0128 .2492)" x="530.36" y="-1337.8"/><text x="1918.65" y="-326.37"><tspan x="1918.65" y="-326.37"/></text><text transform="scale(4.0128 .2492)" x="675.21" y="-1658.83"/><text x="1529.53" y="-798.77"><tspan x="1529.53" y="-798.77"/></text><text transform="scale(4.0128 .2492)" x="578.24" y="-3554.48"/><text x="2110.79" y="-878.78"><tspan x="2110.79" y="-878.78"/></text><text transform="scale(4.0128 .2492)" x="723.09" y="-3875.52"/><text x="277.99" y="535.94"><tspan x="277.99" y="535.94"/></text><text x="729.64" y="231.36"><tspan x="729.64" y="231.36"/></text><text transform="scale(4.0128 .2492)" x="378.91" y="579.26"/><text x="1310.91" y="151.36"><tspan x="1310.91" y="151.36"/></text><text transform="scale(4.0128 .2492)" x="523.76" y="258.22"/><text x="239.33" y="-29.9"><tspan x="239.33" y="-29.9"/></text><text transform="scale(4.0128 .2492)" x="256.72" y="-469.13"/><text x="1337.38" y="-246.37"><tspan x="1337.38" y="-246.37"/></text><text transform="scale(4.0128 .2492)" x="530.36" y="-1337.8"/><text x="1918.65" y="-326.37"><tspan x="1918.65" y="-326.37"/></text><text transform="scale(4.0128 .2492)" x="675.21" y="-1658.83"/><text x="1529.53" y="-798.77"><tspan x="1529.53" y="-798.77"/></text><text transform="scale(4.0128 .2492)" x="578.24" y="-3554.48"/><text x="2110.79" y="-878.78"><tspan x="2110.79" y="-878.78"/></text><text transform="scale(4.0128 .2492)" x="723.09" y="-3875.52"/><text x="277.99" y="535.94"><tspan x="277.99" y="535.94"/></text><text x="729.64" y="231.36"><tspan x="729.64" y="231.36"/></text><text transform="scale(4.0128 .2492)" x="378.91" y="579.26"/><text x="1310.91" y="151.36"><tspan x="1310.91" y="151.36"/></text><text transform="scale(4.0128 .2492)" x="523.76" y="258.22"/><text x="239.33" y="-29.9"><tspan x="239.33" y="-29.9"/></text><text transform="scale(4.0128 .2492)" x="256.72" y="-469.13"/><text x="1337.38" y="-246.37"><tspan x="1337.38" y="-246.37"/></text><text transform="scale(4.0128 .2492)" x="530.36" y="-1337.8"/><text x="1918.65" y="-326.37"><tspan x="1918.65" y="-326.37"/></text><text transform="scale(4.0128 .2492)" x="675.21" y="-1658.83"/><text x="1529.53" y="-798.77"><tspan x="1529.53" y="-798.77"/></text><text transform="scale(4.0128 .2492)" x="578.24" y="-3554.48"/><text x="2110.79" y="-878.78"><tspan x="2110.79" y="-878.78"/></text><text transform="scale(4.0128 .2492)" x="723.09" y="-3875.52"/><text x="277.99" y="535.94"><tspan x="277.99" y="535.94"/></text><text x="729.64" y="231.36"><tspan x="729.64" y="231.36"/></text><text transform="scale(4.0128 .2492)" x="378.91" y="579.26"/><text x="1310.91" y="151.36"><tspan x="1310.91" y="151.36"/></text><text transform="scale(4.0128 .2492)" x="523.76" y="258.22"/><text x="239.33" y="-29.9"><tspan x="239.33" y="-29.9"/></text><text transform="scale(4.0128 .2492)" x="256.72" y="-469.13"/><text x="1337.38" y="-246.37"><tspan x="1337.38" y="-246.37"/></text><text transform="scale(4.0128 .2492)" x="530.36" y="-1337.8"/><text x="1918.65" y="-326.37"><tspan x="1918.65" y="-326.37"/></text><text transform="scale(4.0128 .2492)" x="675.21" y="-1658.83"/><text x="1529.53" y="-798.77"><tspan x="1529.53" y="-798.77"/></text><text transform="scale(4.0128 .2492)" x="578.24" y="-3554.48"/><text x="2110.79" y="-878.78"><tspan x="2110.79" y="-878.78"/></text><text transform="scale(4.0128 .2492)" x="723.09" y="-3875.52"/><text x="277.99" y="535.94"><tspan x="277.99" y="535.94"/></text><text x="729.64" y="231.36"><tspan x="729.64" y="231.36"/></text><text transform="scale(4.0128 .2492)" x="378.91" y="579.26"/><text x="1310.91" y="151.36"><tspan x="1310.91" y="151.36"/></text><text transform="scale(4.0128 .2492)" x="523.76" y="258.22"/><text x="239.33" y="-29.9"><tspan x="239.33" y="-29.9"/></text><text transform="scale(4.0128 .2492)" x="256.72" y="-469.13"/><text x="1337.38" y="-246.37"><tspan x="1337.38" y="-246.37"/></text><text transform="scale(4.0128 .2492)" x="530.36" y="-1337.8"/><text x="1918.65" y="-326.37"><tspan x="1918.65" y="-326.37"/></text><text transform="scale(4.0128 .2492)" x="675.21" y="-1658.83"/><text x="1529.53" y="-798.77"><tspan x="1529.53" y="-798.77"/></text><text transform="scale(4.0128 .2492)" x="578.24" y="-3554.48"/><text x="2110.79" y="-878.78"><tspan x="2110.79" y="-878.78"/></text><text transform="scale(4.0128 .2492)" x="723.09" y="-3875.52"/><text x="277.99" y="535.94"><tspan x="277.99" y="535.94"/></text><text x="729.64" y="231.36"><tspan x="729.64" y="231.36"/></text><text transform="scale(4.0128 .2492)" x="378.91" y="579.26"/><text x="1310.91" y="151.36"><tspan x="1310.91" y="151.36"/></text><text transform="scale(4.0128 .2492)" x="523.76" y="258.22"/><text x="239.33" y="-29.9"><tspan x="239.33" y="-29.9"/></text><text transform="scale(4.0128 .2492)" x="256.72" y="-469.13"/><text x="1337.38" y="-246.37"><tspan x="1337.38" y="-246.37"/></text><text transform="scale(4.0128 .2492)" x="530.36" y="-1337.8"/><text x="1918.65" y="-326.37"><tspan x="1918.65" y="-326.37"/></text><text transform="scale(4.0128 .2492)" x="675.21" y="-1658.83"/><text x="1529.53" y="-798.77"><tspan x="1529.53" y="-798.77"/></text><text transform="scale(4.0128 .2492)" x="578.24" y="-3554.48"/><text x="2110.79" y="-878.78"><tspan x="2110.79" y="-878.78"/></text><text transform="scale(4.0128 .2492)" x="723.09" y="-3875.52"/><text x="277.99" y="535.94"><tspan x="277.99" y="535.94"/></text><text x="729.64" y="231.36"><tspan x="729.64" y="231.36"/></text><text transform="scale(4.0128 .2492)" x="378.91" y="579.26"/><text x="1310.91" y="151.36"><tspan x="1310.91" y="151.36"/></text><text transform="scale(4.0128 .2492)" x="523.76" y="258.22"/><text x="239.33" y="-29.9"><tspan x="239.33" y="-29.9"/></text><text transform="scale(4.0128 .2492)" x="256.72" y="-469.13"/><text x="1337.38" y="-246.37"><tspan x="1337.38" y="-246.37"/></text><text transform="scale(4.0128 .2492)" x="530.36" y="-1337.8"/><text x="1918.65" y="-326.37"><tspan x="1918.65" y="-326.37"/></text><text transform="scale(4.0128 .2492)" x="675.21" y="-1658.83"/><text x="1529.53" y="-798.77"><tspan x="1529.53" y="-798.77"/></text><text transform="scale(4.0128 .2492)" x="578.24" y="-3554.48"/><text x="2110.79" y="-878.78"><tspan x="2110.79" y="-878.78"/></text><text transform="scale(4.0128 .2492)" x="723.09" y="-3875.52"/><text x="277.99" y="535.94"><tspan x="277.99" y="535.94"/></text><text x="729.64" y="231.36"><tspan x="729.64" y="231.36"/></text><text transform="scale(4.0128 .2492)" x="378.91" y="579.26"/><text x="1310.91" y="151.36"><tspan x="1310.91" y="151.36"/></text><text transform="scale(4.0128 .2492)" x="523.76" y="258.22"/><text x="239.33" y="-29.9"><tspan x="239.33" y="-29.9"/></text><text transform="scale(4.0128 .2492)" x="256.72" y="-469.13"/><text x="1337.38" y="-246.37"><tspan x="1337.38" y="-246.37"/></text><text transform="scale(4.0128 .2492)" x="530.36" y="-1337.8"/><text x="1918.65" y="-326.37"><tspan x="1918.65" y="-326.37"/></text><text transform="scale(4.0128 .2492)" x="675.21" y="-1658.83"/><text x="1529.53" y="-798.77"><tspan x="1529.53" y="-798.77"/></text><text transform="scale(4.0128 .2492)" x="578.24" y="-3554.48"/><text x="2110.79" y="-878.78"><tspan x="2110.79" y="-878.78"/></text><text transform="scale(4.0128 .2492)" x="723.09" y="-3875.52"/><text x="277.99" y="535.94"><tspan x="277.99" y="535.94"/></text><text x="729.64" y="231.36"><tspan x="729.64" y="231.36"/></text><text transform="scale(4.0128 .2492)" x="378.91" y="579.26"/><text x="1310.91" y="151.36"><tspan x="1310.91" y="151.36"/></text><text transform="scale(4.0128 .2492)" x="523.76" y="258.22"/><text x="239.33" y="-29.9"><tspan x="239.33" y="-29.9"/></text><text transform="scale(4.0128 .2492)" x="256.72" y="-469.13"/><text x="1337.38" y="-246.37"><tspan x="1337.38" y="-246.37"/></text><text transform="scale(4.0128 .2492)" x="530.36" y="-1337.8"/><text x="1918.65" y="-326.37"><tspan x="1918.65" y="-326.37"/></text><text transform="scale(4.0128 .2492)" x="675.21" y="-1658.83"/><text x="1529.53" y="-798.77"><tspan x="1529.53" y="-798.77"/></text><text transform="scale(4.0128 .2492)" x="578.24" y="-3554.48"/><text x="2110.79" y="-878.78"><tspan x="2110.79" y="-878.78"/></text><text transform="scale(4.0128 .2492)" x="723.09" y="-3875.52"/><text x="277.99" y="535.94"><tspan x="277.99" y="535.94"/></text><text x="729.64" y="231.36"><tspan x="729.64" y="231.36"/></text><text transform="scale(4.0128 .2492)" x="378.91" y="579.26"/><text x="1310.91" y="151.36"><tspan x="1310.91" y="151.36"/></text><text transform="scale(4.0128 .2492)" x="523.76" y="258.22"/><text x="239.33" y="-29.9"><tspan x="239.33" y="-29.9"/></text><text transform="scale(4.0128 .2492)" x="256.72" y="-469.13"/><text x="1337.38" y="-246.37"><tspan x="1337.38" y="-246.37"/></text><text transform="scale(4.0128 .2492)" x="530.36" y="-1337.8"/><text x="1918.65" y="-326.37"><tspan x="1918.65" y="-326.37"/></text><text transform="scale(4.0128 .2492)" x="675.21" y="-1658.83"/><text x="1529.53" y="-798.77"><tspan x="1529.53" y="-798.77"/></text><text transform="scale(4.0128 .2492)" x="578.24" y="-3554.48"/><text x="2110.79" y="-878.78"><tspan x="2110.79" y="-878.78"/></text><text transform="scale(4.0128 .2492)" x="723.09" y="-3875.52"/><text x="277.99" y="535.94"><tspan x="277.99" y="535.94"/></text><text x="729.64" y="231.36"><tspan x="729.64" y="231.36"/></text><text transform="scale(4.0128 .2492)" x="378.91" y="579.26"/><text x="1310.91" y="151.36"><tspan x="1310.91" y="151.36"/></text><text transform="scale(4.0128 .2492)" x="523.76" y="258.22"/><text x="239.33" y="-29.9"><tspan x="239.33" y="-29.9"/></text><text transform="scale(4.0128 .2492)" x="256.72" y="-469.13"/><text x="1337.38" y="-246.37"><tspan x="1337.38" y="-246.37"/></text><text transform="scale(4.0128 .2492)" x="530.36" y="-1337.8"/><text x="1918.65" y="-326.37"><tspan x="1918.65" y="-326.37"/></text><text transform="scale(4.0128 .2492)" x="675.21" y="-1658.83"/><text x="1529.53" y="-798.77"><tspan x="1529.53" y="-798.77"/></text><text transform="scale(4.0128 .2492)" x="578.24" y="-3554.48"/><text x="2110.79" y="-878.78"><tspan x="2110.79" y="-878.78"/></text><text transform="scale(4.0128 .2492)" x="723.09" y="-3875.52"/><text x="277.99" y="535.94"><tspan x="277.99" y="535.94"/></text><text x="729.64" y="233.74"><tspan x="729.64" y="233.74"/></text><text transform="scale(4.0128 .2492)" x="378.91" y="588.81"/><text x="1310.91" y="153.74"><tspan x="1310.91" y="153.74"/></text><text transform="scale(4.0128 .2492)" x="523.76" y="267.77"/><text x="239.33" y="-27.52"><tspan x="239.33" y="-27.52"/></text><text transform="scale(4.0128 .2492)" x="256.72" y="-459.58"/><text x="1337.38" y="-243.99"><tspan x="1337.38" y="-243.99"/></text><text transform="scale(4.0128 .2492)" x="530.36" y="-1328.25"/><text x="1918.65" y="-324"><tspan x="1918.65" y="-324"/></text><text transform="scale(4.0128 .2492)" x="675.21" y="-1649.28"/><text x="1529.53" y="-796.4"><tspan x="1529.53" y="-796.4"/></text><text transform="scale(4.0128 .2492)" x="578.24" y="-3544.93"/><text x="2110.8" y="-876.4"><tspan x="2110.8" y="-876.4"/></text><text transform="scale(4.0128 .2492)" x="723.09" y="-3865.97"/><text x="277.99" y="538.32"><tspan x="277.99" y="538.32"/></text><text x="3833.78" y="-509.14"><tspan x="3833.78" y="-509.14"/></text><text transform="scale(4.0128 .2492)" x="1152.45" y="-2392.22"/><text x="4415.05" y="-589.14"><tspan x="4415.05" y="-589.14"/></text><text transform="scale(4.0128 .2492)" x="1297.3" y="-2713.25"/><text x="3343.47" y="-770.39"><tspan x="3343.47" y="-770.39"/></text><text transform="scale(4.0128 .2492)" x="1030.26" y="-3440.6"/><text x="4441.52" y="-986.87"><tspan x="4441.52" y="-986.87"/></text><text transform="scale(4.0128 .2492)" x="1303.9" y="-4309.27"/><text x="5022.79" y="-1066.87"><tspan x="5022.79" y="-1066.87"/></text><text transform="scale(4.0128 .2492)" x="1448.75" y="-4630.3"/><text x="4633.67" y="-1539.27"><tspan x="4633.67" y="-1539.27"/></text><text transform="scale(4.0128 .2492)" x="1351.78" y="-6525.96"/><text x="5214.93" y="-1619.27"><tspan x="5214.93" y="-1619.27"/></text><text transform="scale(4.0128 .2492)" x="1496.63" y="-6846.98"/><text x="3382.13" y="-204.56"><tspan x="3382.13" y="-204.56"/></text><text x="-205.86" y="187.35"><tspan x="-205.86" y="187.35"/></text><text transform="scale(4.0128 .2492)" x="145.78" y="402.66"/><text x="375.41" y="107.35"><tspan x="375.41" y="107.35"/></text><text transform="scale(4.0128 .2492)" x="290.63" y="81.62"/><text x="-696.17" y="-73.908"><tspan x="-696.17" y="-73.908"/></text><text transform="scale(4.0128 .2492)" x="23.594" y="-645.73"/><text x="401.88" y="-290.38"><tspan x="401.88" y="-290.38"/></text><text transform="scale(4.0128 .2492)" x="297.23" y="-1514.39"/><text x="983.14" y="-370.38"><tspan x="983.14" y="-370.38"/></text><text transform="scale(4.0128 .2492)" x="442.08" y="-1835.43"/><text x="594.02" y="-842.78"><tspan x="594.02" y="-842.78"/></text><text transform="scale(4.0128 .2492)" x="345.11" y="-3731.08"/><text x="1175.29" y="-922.79"><tspan x="1175.29" y="-922.79"/></text><text transform="scale(4.0128 .2492)" x="489.96" y="-4052.12"/><text x="-657.52" y="491.93"><tspan x="-657.52" y="491.93"/></text><text x="-914.24" y="36.401"><tspan x="-914.24" y="36.401"/></text><text transform="scale(4.0128 .2492)" x="-30.748" y="-203.08"/><text x="-332.97" y="-43.601"><tspan x="-332.97" y="-43.601"/></text><text transform="scale(4.0128 .2492)" x="114.1" y="-524.11"/><text x="-1404.55" y="-224.86"><tspan x="-1404.55" y="-224.86"/></text><text transform="scale(4.0128 .2492)" x="-152.93" y="-1251.46"/><text x="-306.5" y="-441.33"><tspan x="-306.5" y="-441.33"/></text><text transform="scale(4.0128 .2492)" x="120.7" y="-2120.13"/><text x="274.77" y="-521.33"><tspan x="274.77" y="-521.33"/></text><text transform="scale(4.0128 .2492)" x="265.55" y="-2441.17"/><text x="-114.35" y="-993.73"><tspan x="-114.35" y="-993.73"/></text><text transform="scale(4.0128 .2492)" x="168.58" y="-4336.82"/><text x="466.91" y="-1073.74"><tspan x="466.91" y="-1073.74"/></text><text transform="scale(4.0128 .2492)" x="313.44" y="-4657.85"/><text x="-1365.89" y="340.98"><tspan x="-1365.89" y="340.98"/></text><text x="729.64" y="231.36"><tspan x="729.64" y="231.36"/></text><text transform="scale(4.0128 .2492)" x="378.91" y="579.26"/><text x="1310.91" y="151.36"><tspan x="1310.91" y="151.36"/></text><text transform="scale(4.0128 .2492)" x="523.76" y="258.22"/><text x="239.33" y="-29.9"><tspan x="239.33" y="-29.9"/></text><text transform="scale(4.0128 .2492)" x="256.72" y="-469.13"/><text x="1337.38" y="-246.37"><tspan x="1337.38" y="-246.37"/></text><text transform="scale(4.0128 .2492)" x="530.36" y="-1337.79"/><text x="1918.65" y="-326.37"><tspan x="1918.65" y="-326.37"/></text><text transform="scale(4.0128 .2492)" x="675.21" y="-1658.82"/><text x="1529.53" y="-798.77"><tspan x="1529.53" y="-798.77"/></text><text transform="scale(4.0128 .2492)" x="578.24" y="-3554.46"/><text x="2110.79" y="-878.78"><tspan x="2110.79" y="-878.78"/></text><text transform="scale(4.0128 .2492)" x="723.09" y="-3875.5"/><text x="277.99" y="535.94"><tspan x="277.99" y="535.94"/></text><text x="89.64" y="159.96"><tspan x="89.64" y="159.96"/></text><text transform="scale(4.0128 .2492)" x="219.42" y="292.73"/><text x="670.91" y="79.958"><tspan x="670.91" y="79.958"/></text><text transform="scale(4.0128 .2492)" x="364.27" y="-28.31"/><text x="-400.67" y="-101.3"><tspan x="-400.67" y="-101.3"/></text><text transform="scale(4.0128 .2492)" x="97.23" y="-755.65"/><text x="697.38" y="-317.77"><tspan x="697.38" y="-317.77"/></text><text transform="scale(4.0128 .2492)" x="370.87" y="-1624.32"/><text x="1278.65" y="-397.78"><tspan x="1278.65" y="-397.78"/></text><text transform="scale(4.0128 .2492)" x="515.72" y="-1945.35"/><text x="889.53" y="-870.18"><tspan x="889.53" y="-870.18"/></text><text transform="scale(4.0128 .2492)" x="418.75" y="-3840.99"/><text x="1470.8" y="-950.18"><tspan x="1470.8" y="-950.18"/></text><text transform="scale(4.0128 .2492)" x="563.6" y="-4162.02"/><text x="-362.01" y="464.54"><tspan x="-362.01" y="464.54"/></text><text x="3193.78" y="-582.92"><tspan x="3193.78" y="-582.92"/></text><text transform="scale(4.0128 .2492)" x="992.96" y="-2688.28"/><text x="3775.05" y="-662.92"><tspan x="3775.05" y="-662.92"/></text><text transform="scale(4.0128 .2492)" x="1137.8" y="-3009.3"/><text x="2703.47" y="-844.17"><tspan x="2703.47" y="-844.17"/></text><text transform="scale(4.0128 .2492)" x="870.78" y="-3736.66"/><text x="3801.52" y="-1060.65"><tspan x="3801.52" y="-1060.65"/></text><text transform="scale(4.0128 .2492)" x="1144.4" y="-4605.32"/><text x="4382.79" y="-1140.65"><tspan x="4382.79" y="-1140.65"/></text><text transform="scale(4.0128 .2492)" x="1289.25" y="-4926.34"/><text x="3993.67" y="-1613.05"><tspan x="3993.67" y="-1613.05"/></text><text transform="scale(4.0128 .2492)" x="1192.28" y="-6821.99"/><text x="4574.93" y="-1693.05"><tspan x="4574.93" y="-1693.05"/></text><text transform="scale(4.0128 .2492)" x="1337.13" y="-7143.02"/><text x="2742.13" y="-278.34"><tspan x="2742.13" y="-278.34"/></text><text x="-549.88" y="66.88"><tspan x="-549.88" y="66.88"/></text><text transform="scale(4.0128 .2492)" x="60.05" y="-80.78"/><text x="31.394" y="-13.12"><tspan x="31.394" y="-13.12"/></text><text transform="scale(4.0128 .2492)" x="204.9" y="-401.81"/><text x="-1040.19" y="-194.38"><tspan x="-1040.19" y="-194.38"/></text><text transform="scale(4.0128 .2492)" x="-62.14" y="-1129.16"/><text x="57.864" y="-410.85"><tspan x="57.864" y="-410.85"/></text><text transform="scale(4.0128 .2492)" x="211.5" y="-1997.82"/><text x="639.13" y="-490.86"><tspan x="639.13" y="-490.86"/></text><text transform="scale(4.0128 .2492)" x="356.35" y="-2318.86"/><text x="250.01" y="-963.26"><tspan x="250.01" y="-963.26"/></text><text transform="scale(4.0128 .2492)" x="259.38" y="-4214.5"/><text x="831.27" y="-1043.26"><tspan x="831.27" y="-1043.26"/></text><text transform="scale(4.0128 .2492)" x="404.23" y="-4535.53"/><text x="-1001.53" y="371.46"><tspan x="-1001.53" y="371.46"/></text><text x="-3225.36" y="352.5"><tspan x="-3225.36" y="352.5"/></text><text transform="scale(4.0128 .2492)" x="-486.04" y="851.62"/><text x="-2519.02" y="196.87"><tspan x="-2519.02" y="196.87"/></text><text transform="scale(4.0128 .2492)" x="-310.02" y="227.1"/><text x="-2485.65" y="188.75"><tspan x="-2485.65" y="188.75"/></text><text transform="scale(4.0128 .2492)" x="-301.7" y="194.5"/><text x="-1335.23" y="34.34"><tspan x="-1335.23" y="34.34"/></text><text transform="scale(4.0128 .2492)" x="-135.66" y="-211.36"/><text x="-753.97" y="-45.66"><tspan x="-753.97" y="-45.66"/></text><text transform="scale(4.0128 .2492)" x="9.191" y="-532.4"/><text x="-1825.55" y="-226.92"><tspan x="-1825.55" y="-226.92"/></text><text transform="scale(4.0128 .2492)" x="-257.85" y="-1259.73"/><text x="-727.5" y="-443.39"><tspan x="-727.5" y="-443.39"/></text><text transform="scale(4.0128 .2492)" x="15.791" y="-2128.4"/><text x="-146.23" y="-523.39"><tspan x="-146.23" y="-523.39"/></text><text transform="scale(4.0128 .2492)" x="160.63" y="-2449.43"/><text x="-535.35" y="-995.79"><tspan x="-535.35" y="-995.79"/></text><text transform="scale(4.0128 .2492)" x="63.67" y="-4345.06"/><text x="45.914" y="-1075.8"><tspan x="45.914" y="-1075.8"/></text><text transform="scale(4.0128 .2492)" x="208.51" y="-4666.1"/><text x="-1786.89" y="338.92"><tspan x="-1786.89" y="338.92"/></text><text x="-1385.68" y="-704.67"><tspan x="-1385.68" y="-704.67"/></text><text transform="scale(4.0128 .2492)" x="-148.23" y="-3176.85"/><text x="-804.41" y="-784.67"><tspan x="-804.41" y="-784.67"/></text><text transform="scale(4.0128 .2492)" x="-3.379" y="-3497.87"/><text x="-1875.99" y="-965.93"><tspan x="-1875.99" y="-965.93"/></text><text transform="scale(4.0128 .2492)" x="-270.42" y="-4225.23"/><text x="-777.94" y="-1182.4"><tspan x="-777.94" y="-1182.4"/></text><text transform="scale(4.0128 .2492)" x="3.221" y="-5093.88"/><text x="-196.68" y="-1262.41"><tspan x="-196.68" y="-1262.41"/></text><text transform="scale(4.0128 .2492)" x="148.06" y="-5414.92"/><text x="-585.8" y="-1734.81"><tspan x="-585.8" y="-1734.81"/></text><text transform="scale(4.0128 .2492)" x="51.1" y="-7310.55"/><text x="-4.526" y="-1814.81"><tspan x="-4.526" y="-1814.81"/></text><text transform="scale(4.0128 .2492)" x="195.94" y="-7631.57"/><text x="-1837.34" y="-400.09"><tspan x="-1837.34" y="-400.09"/></text><text x="1718.46" y="-1447.55"><tspan x="1718.46" y="-1447.55"/></text><text transform="scale(4.0128 .2492)" x="625.31" y="-6157.84"/><text x="2299.72" y="-1527.55"><tspan x="2299.72" y="-1527.55"/></text><text transform="scale(4.0128 .2492)" x="770.16" y="-6478.88"/><text x="1228.14" y="-1708.8"><tspan x="1228.14" y="-1708.8"/></text><text transform="scale(4.0128 .2492)" x="503.12" y="-7206.21"/><text x="2326.19" y="-1925.28"><tspan x="2326.19" y="-1925.28"/></text><text transform="scale(4.0128 .2492)" x="776.76" y="-8074.87"/><text x="2907.46" y="-2005.28"><tspan x="2907.46" y="-2005.28"/></text><text transform="scale(4.0128 .2492)" x="921.61" y="-8395.91"/><text x="2518.34" y="-2477.68"><tspan x="2518.34" y="-2477.68"/></text><text transform="scale(4.0128 .2492)" x="824.64" y="-10291.54"/><text x="3099.61" y="-2557.68"><tspan x="3099.61" y="-2557.68"/></text><text transform="scale(4.0128 .2492)" x="969.49" y="-10612.57"/><text x="1266.8" y="-1142.97"><tspan x="1266.8" y="-1142.97"/></text><text x="-3275.81" y="-388.89"><tspan x="-3275.81" y="-388.89"/></text><text transform="scale(4.0128 .2492)" x="-498.61" y="-2123.43"/><text x="-3275.81" y="-388.89"><tspan x="-3275.81" y="-388.89"/></text><text transform="scale(4.0128 .2492)" x="-498.61" y="-2123.43"/><text x="-3609.36" y="244.02"><tspan x="-3609.36" y="244.02"/></text><text transform="scale(4.0128 .2492)" x="-581.73" y="416.32"/><text x="-2903.02" y="88.39"><tspan x="-2903.02" y="88.39"/></text><text transform="scale(4.0128 .2492)" x="-405.71" y="-208.19"/><text x="-1160.48" y="549.52"><tspan x="-1160.48" y="549.52"/></text><text transform="scale(4.0128 .2492)" x="28.534" y="1642.23"/><text x="-454.14" y="393.89"><tspan x="-454.14" y="393.89"/></text><text transform="scale(4.0128 .2492)" x="204.55" y="1017.71"/><text x="-420.77" y="385.77"><tspan x="-420.77" y="385.77"/></text><text transform="scale(4.0128 .2492)" x="212.87" y="985.11"/><text x="729.64" y="231.36"><tspan x="729.64" y="231.36"/></text><text transform="scale(4.0128 .2492)" x="378.91" y="579.26"/><text x="1310.91" y="151.36"><tspan x="1310.91" y="151.36"/></text><text transform="scale(4.0128 .2492)" x="523.76" y="258.22"/><text x="239.33" y="-29.9"><tspan x="239.33" y="-29.9"/></text><text transform="scale(4.0128 .2492)" x="256.72" y="-469.13"/><text x="1337.38" y="-246.37"><tspan x="1337.38" y="-246.37"/></text><text transform="scale(4.0128 .2492)" x="530.36" y="-1337.79"/><text x="1918.65" y="-326.37"><tspan x="1918.65" y="-326.37"/></text><text transform="scale(4.0128 .2492)" x="675.21" y="-1658.82"/><text x="1529.53" y="-798.77"><tspan x="1529.53" y="-798.77"/></text><text transform="scale(4.0128 .2492)" x="578.24" y="-3554.46"/><text x="2110.79" y="-878.78"><tspan x="2110.79" y="-878.78"/></text><text transform="scale(4.0128 .2492)" x="723.09" y="-3875.5"/><text x="277.99" y="535.94"><tspan x="277.99" y="535.94"/></text><text x="679.2" y="-507.65"><tspan x="679.2" y="-507.65"/></text><text transform="scale(4.0128 .2492)" x="366.34" y="-2386.26"/><text x="1260.47" y="-587.65"><tspan x="1260.47" y="-587.65"/></text><text transform="scale(4.0128 .2492)" x="511.19" y="-2707.28"/><text x="188.89" y="-768.91"><tspan x="188.89" y="-768.91"/></text><text transform="scale(4.0128 .2492)" x="244.15" y="-3434.63"/><text x="1286.94" y="-985.38"><tspan x="1286.94" y="-985.38"/></text><text transform="scale(4.0128 .2492)" x="517.79" y="-4303.3"/><text x="1868.2" y="-1065.39"><tspan x="1868.2" y="-1065.39"/></text><text transform="scale(4.0128 .2492)" x="662.64" y="-4624.33"/><text x="1479.08" y="-1537.79"><tspan x="1479.08" y="-1537.79"/></text><text transform="scale(4.0128 .2492)" x="565.67" y="-6519.98"/><text x="2060.35" y="-1617.79"><tspan x="2060.35" y="-1617.79"/></text><text transform="scale(4.0128 .2492)" x="710.52" y="-6840.99"/><text x="227.54" y="-203.07"><tspan x="227.54" y="-203.07"/></text><text x="3783.34" y="-1250.53"><tspan x="3783.34" y="-1250.53"/></text><text transform="scale(4.0128 .2492)" x="1139.87" y="-5367.25"/><text x="4364.6" y="-1330.53"><tspan x="4364.6" y="-1330.53"/></text><text transform="scale(4.0128 .2492)" x="1284.72" y="-5688.29"/><text x="3293.02" y="-1511.78"><tspan x="3293.02" y="-1511.78"/></text><text transform="scale(4.0128 .2492)" x="1017.68" y="-6415.64"/><text x="4391.07" y="-1728.26"><tspan x="4391.07" y="-1728.26"/></text><text transform="scale(4.0128 .2492)" x="1291.32" y="-7284.29"/><text x="4972.34" y="-1808.26"><tspan x="4972.34" y="-1808.26"/></text><text transform="scale(4.0128 .2492)" x="1436.17" y="-7605.33"/><text x="4583.22" y="-2280.66"><tspan x="4583.22" y="-2280.66"/></text><text transform="scale(4.0128 .2492)" x="1339.2" y="-9500.97"/><text x="5164.49" y="-2360.66"><tspan x="5164.49" y="-2360.66"/></text><text transform="scale(4.0128 .2492)" x="1484.05" y="-9822"/><text x="3331.68" y="-945.95"><tspan x="3331.68" y="-945.95"/></text><text x="-1210.93" y="-191.87"><tspan x="-1210.93" y="-191.87"/></text><text transform="scale(4.0128 .2492)" x="15.963" y="-1332.82"/><text x="-1210.93" y="-191.87"><tspan x="-1210.93" y="-191.87"/></text><text transform="scale(4.0128 .2492)" x="15.963" y="-1332.82"/><text x="729.64" y="231.36"><tspan x="729.64" y="231.36"/></text><text transform="scale(4.0128 .2492)" x="378.91" y="579.26"/><text x="1310.91" y="151.36"><tspan x="1310.91" y="151.36"/></text><text transform="scale(4.0128 .2492)" x="523.76" y="258.22"/><text x="239.33" y="-29.9"><tspan x="239.33" y="-29.9"/></text><text transform="scale(4.0128 .2492)" x="256.72" y="-469.13"/><text x="1337.38" y="-246.37"><tspan x="1337.38" y="-246.37"/></text><text transform="scale(4.0128 .2492)" x="530.36" y="-1337.8"/><text x="1918.65" y="-326.37"><tspan x="1918.65" y="-326.37"/></text><text transform="scale(4.0128 .2492)" x="675.21" y="-1658.83"/><text x="1529.53" y="-798.77"><tspan x="1529.53" y="-798.77"/></text><text transform="scale(4.0128 .2492)" x="578.24" y="-3554.48"/><text x="2110.79" y="-878.78"><tspan x="2110.79" y="-878.78"/></text><text transform="scale(4.0128 .2492)" x="723.09" y="-3875.52"/><text x="277.99" y="535.94"><tspan x="277.99" y="535.94"/></text><text x="729.64" y="231.36"><tspan x="729.64" y="231.36"/></text><text transform="scale(4.0128 .2492)" x="378.91" y="579.26"/><text x="1310.91" y="151.36"><tspan x="1310.91" y="151.36"/></text><text transform="scale(4.0128 .2492)" x="523.76" y="258.22"/><text x="239.33" y="-29.9"><tspan x="239.33" y="-29.9"/></text><text transform="scale(4.0128 .2492)" x="256.72" y="-469.13"/><text x="1337.38" y="-246.37"><tspan x="1337.38" y="-246.37"/></text><text transform="scale(4.0128 .2492)" x="530.36" y="-1337.8"/><text x="1918.65" y="-326.37"><tspan x="1918.65" y="-326.37"/></text><text transform="scale(4.0128 .2492)" x="675.21" y="-1658.83"/><text x="1529.53" y="-798.77"><tspan x="1529.53" y="-798.77"/></text><text transform="scale(4.0128 .2492)" x="578.24" y="-3554.48"/><text x="2110.79" y="-878.78"><tspan x="2110.79" y="-878.78"/></text><text transform="scale(4.0128 .2492)" x="723.09" y="-3875.52"/><text x="277.99" y="535.94"><tspan x="277.99" y="535.94"/></text><text x="729.64" y="231.36"><tspan x="729.64" y="231.36"/></text><text transform="scale(4.0128 .2492)" x="378.91" y="579.26"/><text x="1310.91" y="151.36"><tspan x="1310.91" y="151.36"/></text><text transform="scale(4.0128 .2492)" x="523.76" y="258.22"/><text x="239.33" y="-29.9"><tspan x="239.33" y="-29.9"/></text><text transform="scale(4.0128 .2492)" x="256.72" y="-469.13"/><text x="1337.38" y="-246.37"><tspan x="1337.38" y="-246.37"/></text><text transform="scale(4.0128 .2492)" x="530.36" y="-1337.8"/><text x="1918.65" y="-326.37"><tspan x="1918.65" y="-326.37"/></text><text transform="scale(4.0128 .2492)" x="675.21" y="-1658.83"/><text x="1529.53" y="-798.77"><tspan x="1529.53" y="-798.77"/></text><text transform="scale(4.0128 .2492)" x="578.24" y="-3554.48"/><text x="2110.79" y="-878.78"><tspan x="2110.79" y="-878.78"/></text><text transform="scale(4.0128 .2492)" x="723.09" y="-3875.52"/><text x="277.99" y="535.94"><tspan x="277.99" y="535.94"/></text><text x="729.64" y="231.36"><tspan x="729.64" y="231.36"/></text><text transform="scale(4.0128 .2492)" x="378.91" y="579.26"/><text x="1310.91" y="151.36"><tspan x="1310.91" y="151.36"/></text><text transform="scale(4.0128 .2492)" x="523.76" y="258.22"/><text x="239.33" y="-29.9"><tspan x="239.33" y="-29.9"/></text><text transform="scale(4.0128 .2492)" x="256.72" y="-469.13"/><text x="1337.38" y="-246.37"><tspan x="1337.38" y="-246.37"/></text><text transform="scale(4.0128 .2492)" x="530.36" y="-1337.8"/><text x="1918.65" y="-326.37"><tspan x="1918.65" y="-326.37"/></text><text transform="scale(4.0128 .2492)" x="675.21" y="-1658.83"/><text x="1529.53" y="-798.77"><tspan x="1529.53" y="-798.77"/></text><text transform="scale(4.0128 .2492)" x="578.24" y="-3554.48"/><text x="2110.79" y="-878.78"><tspan x="2110.79" y="-878.78"/></text><text transform="scale(4.0128 .2492)" x="723.09" y="-3875.52"/><text x="277.99" y="535.94"><tspan x="277.99" y="535.94"/></text><text x="1611.91" y="53.22"><tspan x="1611.91" y="53.22"/></text><text transform="scale(4.0128 .2492)" x="598.77" y="-135.58"/><text x="2193.18" y="-26.78"><tspan x="2193.18" y="-26.78"/></text><text transform="scale(4.0128 .2492)" x="743.62" y="-456.62"/><text x="1121.6" y="-208.04"><tspan x="1121.6" y="-208.04"/></text><text transform="scale(4.0128 .2492)" x="476.58" y="-1183.97"/><text x="2219.65" y="-424.51"><tspan x="2219.65" y="-424.51"/></text><text transform="scale(4.0128 .2492)" x="750.22" y="-2052.64"/><text x="2800.92" y="-504.51"><tspan x="2800.92" y="-504.51"/></text><text transform="scale(4.0128 .2492)" x="895.07" y="-2373.67"/><text x="2411.8" y="-976.91"><tspan x="2411.8" y="-976.91"/></text><text transform="scale(4.0128 .2492)" x="798.1" y="-4269.32"/><text x="2993.06" y="-1056.92"><tspan x="2993.06" y="-1056.92"/></text><text transform="scale(4.0128 .2492)" x="942.95" y="-4590.36"/><text x="1160.26" y="357.8"><tspan x="1160.26" y="357.8"/></text><text x="729.64" y="231.36"><tspan x="729.64" y="231.36"/></text><text transform="scale(4.0128 .2492)" x="378.91" y="579.26"/><text x="1310.91" y="151.36"><tspan x="1310.91" y="151.36"/></text><text transform="scale(4.0128 .2492)" x="523.76" y="258.22"/><text x="239.33" y="-29.9"><tspan x="239.33" y="-29.9"/></text><text transform="scale(4.0128 .2492)" x="256.72" y="-469.13"/><text x="1337.38" y="-246.37"><tspan x="1337.38" y="-246.37"/></text><text transform="scale(4.0128 .2492)" x="530.36" y="-1337.8"/><text x="1918.65" y="-326.37"><tspan x="1918.65" y="-326.37"/></text><text transform="scale(4.0128 .2492)" x="675.21" y="-1658.83"/><text x="1529.53" y="-798.77"><tspan x="1529.53" y="-798.77"/></text><text transform="scale(4.0128 .2492)" x="578.24" y="-3554.48"/><text x="2110.79" y="-878.78"><tspan x="2110.79" y="-878.78"/></text><text transform="scale(4.0128 .2492)" x="723.09" y="-3875.52"/><text x="277.99" y="535.94"><tspan x="277.99" y="535.94"/></text><text x="729.64" y="231.36"><tspan x="729.64" y="231.36"/></text><text transform="scale(4.0128 .2492)" x="378.91" y="579.26"/><text x="1310.91" y="151.36"><tspan x="1310.91" y="151.36"/></text><text transform="scale(4.0128 .2492)" x="523.76" y="258.22"/><text x="239.33" y="-29.9"><tspan x="239.33" y="-29.9"/></text><text transform="scale(4.0128 .2492)" x="256.72" y="-469.13"/><text x="1337.38" y="-246.37"><tspan x="1337.38" y="-246.37"/></text><text transform="scale(4.0128 .2492)" x="530.36" y="-1337.8"/><text x="1918.65" y="-326.37"><tspan x="1918.65" y="-326.37"/></text><text transform="scale(4.0128 .2492)" x="675.21" y="-1658.83"/><text x="1529.53" y="-798.77"><tspan x="1529.53" y="-798.77"/></text><text transform="scale(4.0128 .2492)" x="578.24" y="-3554.48"/><text x="2110.79" y="-878.78"><tspan x="2110.79" y="-878.78"/></text><text transform="scale(4.0128 .2492)" x="723.09" y="-3875.52"/><text x="277.99" y="535.94"><tspan x="277.99" y="535.94"/></text><text x="729.64" y="231.36"><tspan x="729.64" y="231.36"/></text><text transform="scale(4.0128 .2492)" x="378.91" y="579.26"/><text x="1310.91" y="151.36"><tspan x="1310.91" y="151.36"/></text><text transform="scale(4.0128 .2492)" x="523.76" y="258.22"/><text x="239.33" y="-29.9"><tspan x="239.33" y="-29.9"/></text><text transform="scale(4.0128 .2492)" x="256.72" y="-469.13"/><text x="1337.38" y="-246.37"><tspan x="1337.38" y="-246.37"/></text><text transform="scale(4.0128 .2492)" x="530.36" y="-1337.8"/><text x="1918.65" y="-326.37"><tspan x="1918.65" y="-326.37"/></text><text transform="scale(4.0128 .2492)" x="675.21" y="-1658.83"/><text x="1529.53" y="-798.77"><tspan x="1529.53" y="-798.77"/></text><text transform="scale(4.0128 .2492)" x="578.24" y="-3554.48"/><text x="2110.79" y="-878.78"><tspan x="2110.79" y="-878.78"/></text><text transform="scale(4.0128 .2492)" x="723.09" y="-3875.52"/><text x="277.99" y="535.94"><tspan x="277.99" y="535.94"/></text><text x="729.64" y="231.36"><tspan x="729.64" y="231.36"/></text><text transform="scale(4.0128 .2492)" x="378.91" y="579.26"/><text x="1310.91" y="151.36"><tspan x="1310.91" y="151.36"/></text><text transform="scale(4.0128 .2492)" x="523.76" y="258.22"/><text x="239.33" y="-29.9"><tspan x="239.33" y="-29.9"/></text><text transform="scale(4.0128 .2492)" x="256.72" y="-469.13"/><text x="1337.38" y="-246.37"><tspan x="1337.38" y="-246.37"/></text><text transform="scale(4.0128 .2492)" x="530.36" y="-1337.79"/><text x="1918.65" y="-326.37"><tspan x="1918.65" y="-326.37"/></text><text transform="scale(4.0128 .2492)" x="675.21" y="-1658.82"/><text x="1529.53" y="-798.77"><tspan x="1529.53" y="-798.77"/></text><text transform="scale(4.0128 .2492)" x="578.24" y="-3554.46"/><text x="2110.79" y="-878.78"><tspan x="2110.79" y="-878.78"/></text><text transform="scale(4.0128 .2492)" x="723.09" y="-3875.5"/><text x="277.99" y="535.94"><tspan x="277.99" y="535.94"/></text><text x="729.64" y="231.36"><tspan x="729.64" y="231.36"/></text><text transform="scale(4.0128 .2492)" x="378.91" y="579.26"/><text x="1310.91" y="151.36"><tspan x="1310.91" y="151.36"/></text><text transform="scale(4.0128 .2492)" x="523.76" y="258.22"/><text x="239.33" y="-29.9"><tspan x="239.33" y="-29.9"/></text><text transform="scale(4.0128 .2492)" x="256.72" y="-469.13"/><text x="1337.38" y="-246.37"><tspan x="1337.38" y="-246.37"/></text><text transform="scale(4.0128 .2492)" x="530.36" y="-1337.8"/><text x="1918.65" y="-326.37"><tspan x="1918.65" y="-326.37"/></text><text transform="scale(4.0128 .2492)" x="675.21" y="-1658.83"/><text x="1529.53" y="-798.77"><tspan x="1529.53" y="-798.77"/></text><text transform="scale(4.0128 .2492)" x="578.24" y="-3554.48"/><text x="2110.79" y="-878.78"><tspan x="2110.79" y="-878.78"/></text><text transform="scale(4.0128 .2492)" x="723.09" y="-3875.52"/><text x="277.99" y="535.94"><tspan x="277.99" y="535.94"/></text><text x="729.64" y="231.36"><tspan x="729.64" y="231.36"/></text><text transform="scale(4.0128 .2492)" x="378.91" y="579.26"/><text x="1310.91" y="151.36"><tspan x="1310.91" y="151.36"/></text><text transform="scale(4.0128 .2492)" x="523.76" y="258.22"/><text x="239.33" y="-29.9"><tspan x="239.33" y="-29.9"/></text><text transform="scale(4.0128 .2492)" x="256.72" y="-469.13"/><text x="1337.38" y="-246.37"><tspan x="1337.38" y="-246.37"/></text><text transform="scale(4.0128 .2492)" x="530.36" y="-1337.8"/><text x="1918.65" y="-326.37"><tspan x="1918.65" y="-326.37"/></text><text transform="scale(4.0128 .2492)" x="675.21" y="-1658.83"/><text x="1529.53" y="-798.77"><tspan x="1529.53" y="-798.77"/></text><text transform="scale(4.0128 .2492)" x="578.24" y="-3554.48"/><text x="2110.79" y="-878.78"><tspan x="2110.79" y="-878.78"/></text><text transform="scale(4.0128 .2492)" x="723.09" y="-3875.52"/><text x="277.99" y="535.94"><tspan x="277.99" y="535.94"/></text><text x="729.64" y="231.36"><tspan x="729.64" y="231.36"/></text><text transform="scale(4.0128 .2492)" x="378.91" y="579.26"/><text x="1310.91" y="151.36"><tspan x="1310.91" y="151.36"/></text><text transform="scale(4.0128 .2492)" x="523.76" y="258.22"/><text x="239.33" y="-29.9"><tspan x="239.33" y="-29.9"/></text><text transform="scale(4.0128 .2492)" x="256.72" y="-469.13"/><text x="1337.38" y="-246.37"><tspan x="1337.38" y="-246.37"/></text><text transform="scale(4.0128 .2492)" x="530.36" y="-1337.8"/><text x="1918.65" y="-326.37"><tspan x="1918.65" y="-326.37"/></text><text transform="scale(4.0128 .2492)" x="675.21" y="-1658.83"/><text x="1529.53" y="-798.77"><tspan x="1529.53" y="-798.77"/></text><text transform="scale(4.0128 .2492)" x="578.24" y="-3554.48"/><text x="2110.79" y="-878.78"><tspan x="2110.79" y="-878.78"/></text><text transform="scale(4.0128 .2492)" x="723.09" y="-3875.52"/><text x="277.99" y="535.94"><tspan x="277.99" y="535.94"/></text><text x="729.64" y="231.36"><tspan x="729.64" y="231.36"/></text><text transform="scale(4.0128 .2492)" x="378.91" y="579.26"/><text x="1310.91" y="151.36"><tspan x="1310.91" y="151.36"/></text><text transform="scale(4.0128 .2492)" x="523.76" y="258.22"/><text x="239.33" y="-29.9"><tspan x="239.33" y="-29.9"/></text><text transform="scale(4.0128 .2492)" x="256.72" y="-469.13"/><text x="1337.38" y="-246.37"><tspan x="1337.38" y="-246.37"/></text><text transform="scale(4.0128 .2492)" x="530.36" y="-1337.8"/><text x="1918.65" y="-326.37"><tspan x="1918.65" y="-326.37"/></text><text transform="scale(4.0128 .2492)" x="675.21" y="-1658.83"/><text x="1529.53" y="-798.77"><tspan x="1529.53" y="-798.77"/></text><text transform="scale(4.0128 .2492)" x="578.24" y="-3554.48"/><text x="2110.79" y="-878.78"><tspan x="2110.79" y="-878.78"/></text><text transform="scale(4.0128 .2492)" x="723.09" y="-3875.52"/><text x="277.99" y="535.94"><tspan x="277.99" y="535.94"/></text><text x="729.64" y="231.36"><tspan x="729.64" y="231.36"/></text><text transform="scale(4.0128 .2492)" x="378.91" y="579.26"/><text x="1310.91" y="151.36"><tspan x="1310.91" y="151.36"/></text><text transform="scale(4.0128 .2492)" x="523.76" y="258.22"/><text x="239.33" y="-29.9"><tspan x="239.33" y="-29.9"/></text><text transform="scale(4.0128 .2492)" x="256.72" y="-469.13"/><text x="1337.38" y="-246.37"><tspan x="1337.38" y="-246.37"/></text><text transform="scale(4.0128 .2492)" x="530.36" y="-1337.79"/><text x="1918.65" y="-326.37"><tspan x="1918.65" y="-326.37"/></text><text transform="scale(4.0128 .2492)" x="675.21" y="-1658.82"/><text x="1529.53" y="-798.77"><tspan x="1529.53" y="-798.77"/></text><text transform="scale(4.0128 .2492)" x="578.24" y="-3554.46"/><text x="2110.79" y="-878.78"><tspan x="2110.79" y="-878.78"/></text><text transform="scale(4.0128 .2492)" x="723.09" y="-3875.5"/><text x="277.99" y="535.94"><tspan x="277.99" y="535.94"/></text><text x="729.64" y="231.36"><tspan x="729.64" y="231.36"/></text><text transform="scale(4.0128 .2492)" x="378.91" y="579.26"/><text x="1310.91" y="151.36"><tspan x="1310.91" y="151.36"/></text><text transform="scale(4.0128 .2492)" x="523.76" y="258.22"/><text x="239.33" y="-29.9"><tspan x="239.33" y="-29.9"/></text><text transform="scale(4.0128 .2492)" x="256.72" y="-469.13"/><text x="1337.38" y="-246.37"><tspan x="1337.38" y="-246.37"/></text><text transform="scale(4.0128 .2492)" x="530.36" y="-1337.8"/><text x="1918.65" y="-326.37"><tspan x="1918.65" y="-326.37"/></text><text transform="scale(4.0128 .2492)" x="675.21" y="-1658.83"/><text x="1529.53" y="-798.77"><tspan x="1529.53" y="-798.77"/></text><text transform="scale(4.0128 .2492)" x="578.24" y="-3554.48"/><text x="2110.79" y="-878.78"><tspan x="2110.79" y="-878.78"/></text><text transform="scale(4.0128 .2492)" x="723.09" y="-3875.52"/><text x="277.99" y="535.94"><tspan x="277.99" y="535.94"/></text><text x="729.64" y="231.36"><tspan x="729.64" y="231.36"/></text><text transform="scale(4.0128 .2492)" x="378.91" y="579.26"/><text x="1310.91" y="151.36"><tspan x="1310.91" y="151.36"/></text><text transform="scale(4.0128 .2492)" x="523.76" y="258.22"/><text x="239.33" y="-29.9"><tspan x="239.33" y="-29.9"/></text><text transform="scale(4.0128 .2492)" x="256.72" y="-469.13"/><text x="1337.38" y="-246.37"><tspan x="1337.38" y="-246.37"/></text><text transform="scale(4.0128 .2492)" x="530.36" y="-1337.8"/><text x="1918.65" y="-326.37"><tspan x="1918.65" y="-326.37"/></text><text transform="scale(4.0128 .2492)" x="675.21" y="-1658.83"/><text x="1529.53" y="-798.77"><tspan x="1529.53" y="-798.77"/></text><text transform="scale(4.0128 .2492)" x="578.24" y="-3554.48"/><text x="2110.79" y="-878.78"><tspan x="2110.79" y="-878.78"/></text><text transform="scale(4.0128 .2492)" x="723.09" y="-3875.52"/><text x="277.99" y="535.94"><tspan x="277.99" y="535.94"/></text><text x="729.64" y="231.36"><tspan x="729.64" y="231.36"/></text><text transform="scale(4.0128 .2492)" x="378.91" y="579.26"/><text x="1310.91" y="151.36"><tspan x="1310.91" y="151.36"/></text><text transform="scale(4.0128 .2492)" x="523.76" y="258.22"/><text x="239.33" y="-29.9"><tspan x="239.33" y="-29.9"/></text><text transform="scale(4.0128 .2492)" x="256.72" y="-469.13"/><text x="1337.38" y="-246.37"><tspan x="1337.38" y="-246.37"/></text><text transform="scale(4.0128 .2492)" x="530.36" y="-1337.8"/><text x="1918.65" y="-326.37"><tspan x="1918.65" y="-326.37"/></text><text transform="scale(4.0128 .2492)" x="675.21" y="-1658.83"/><text x="1529.53" y="-798.77"><tspan x="1529.53" y="-798.77"/></text><text transform="scale(4.0128 .2492)" x="578.24" y="-3554.48"/><text x="2110.79" y="-878.78"><tspan x="2110.79" y="-878.78"/></text><text transform="scale(4.0128 .2492)" x="723.09" y="-3875.52"/><text x="277.99" y="535.94"><tspan x="277.99" y="535.94"/></text><text x="729.64" y="231.36"><tspan x="729.64" y="231.36"/></text><text transform="scale(4.0128 .2492)" x="378.91" y="579.26"/><text x="1310.91" y="151.36"><tspan x="1310.91" y="151.36"/></text><text transform="scale(4.0128 .2492)" x="523.76" y="258.22"/><text x="239.33" y="-29.9"><tspan x="239.33" y="-29.9"/></text><text transform="scale(4.0128 .2492)" x="256.72" y="-469.13"/><text x="1337.38" y="-246.37"><tspan x="1337.38" y="-246.37"/></text><text transform="scale(4.0128 .2492)" x="530.36" y="-1337.8"/><text x="1918.65" y="-326.37"><tspan x="1918.65" y="-326.37"/></text><text transform="scale(4.0128 .2492)" x="675.21" y="-1658.83"/><text x="1529.53" y="-798.77"><tspan x="1529.53" y="-798.77"/></text><text transform="scale(4.0128 .2492)" x="578.24" y="-3554.48"/><text x="2110.79" y="-878.78"><tspan x="2110.79" y="-878.78"/></text><text transform="scale(4.0128 .2492)" x="723.09" y="-3875.52"/><text x="277.99" y="535.94"><tspan x="277.99" y="535.94"/></text><text x="729.64" y="231.36"><tspan x="729.64" y="231.36"/></text><text transform="scale(4.0128 .2492)" x="378.91" y="579.26"/><text x="1310.91" y="151.36"><tspan x="1310.91" y="151.36"/></text><text transform="scale(4.0128 .2492)" x="523.76" y="258.22"/><text x="239.33" y="-29.9"><tspan x="239.33" y="-29.9"/></text><text transform="scale(4.0128 .2492)" x="256.72" y="-469.13"/><text x="1337.38" y="-246.37"><tspan x="1337.38" y="-246.37"/></text><text transform="scale(4.0128 .2492)" x="530.36" y="-1337.8"/><text x="1918.65" y="-326.37"><tspan x="1918.65" y="-326.37"/></text><text transform="scale(4.0128 .2492)" x="675.21" y="-1658.83"/><text x="1529.53" y="-798.77"><tspan x="1529.53" y="-798.77"/></text><text transform="scale(4.0128 .2492)" x="578.24" y="-3554.48"/><text x="2110.79" y="-878.78"><tspan x="2110.79" y="-878.78"/></text><text transform="scale(4.0128 .2492)" x="723.09" y="-3875.52"/><text x="277.99" y="535.94"><tspan x="277.99" y="535.94"/></text><text x="729.64" y="231.36"><tspan x="729.64" y="231.36"/></text><text transform="scale(4.0128 .2492)" x="378.91" y="579.26"/><text x="1310.91" y="151.36"><tspan x="1310.91" y="151.36"/></text><text transform="scale(4.0128 .2492)" x="523.76" y="258.22"/><text x="239.33" y="-29.9"><tspan x="239.33" y="-29.9"/></text><text transform="scale(4.0128 .2492)" x="256.72" y="-469.13"/><text x="1337.38" y="-246.37"><tspan x="1337.38" y="-246.37"/></text><text transform="scale(4.0128 .2492)" x="530.36" y="-1337.8"/><text x="1918.65" y="-326.37"><tspan x="1918.65" y="-326.37"/></text><text transform="scale(4.0128 .2492)" x="675.21" y="-1658.83"/><text x="1529.53" y="-798.77"><tspan x="1529.53" y="-798.77"/></text><text transform="scale(4.0128 .2492)" x="578.24" y="-3554.48"/><text x="2110.79" y="-878.78"><tspan x="2110.79" y="-878.78"/></text><text transform="scale(4.0128 .2492)" x="723.09" y="-3875.52"/><text x="277.99" y="535.94"><tspan x="277.99" y="535.94"/></text><text x="729.64" y="231.36"><tspan x="729.64" y="231.36"/></text><text transform="scale(4.0128 .2492)" x="378.91" y="579.26"/><text x="1310.91" y="151.36"><tspan x="1310.91" y="151.36"/></text><text transform="scale(4.0128 .2492)" x="523.76" y="258.22"/><text x="239.33" y="-29.9"><tspan x="239.33" y="-29.9"/></text><text transform="scale(4.0128 .2492)" x="256.72" y="-469.13"/><text x="1337.38" y="-246.37"><tspan x="1337.38" y="-246.37"/></text><text transform="scale(4.0128 .2492)" x="530.36" y="-1337.8"/><text x="1918.65" y="-326.37"><tspan x="1918.65" y="-326.37"/></text><text transform="scale(4.0128 .2492)" x="675.21" y="-1658.83"/><text x="1529.53" y="-798.77"><tspan x="1529.53" y="-798.77"/></text><text transform="scale(4.0128 .2492)" x="578.24" y="-3554.48"/><text x="2110.79" y="-878.78"><tspan x="2110.79" y="-878.78"/></text><text transform="scale(4.0128 .2492)" x="723.09" y="-3875.52"/><text x="277.99" y="535.94"><tspan x="277.99" y="535.94"/></text><text x="729.64" y="231.36"><tspan x="729.64" y="231.36"/></text><text transform="scale(4.0128 .2492)" x="378.91" y="579.26"/><text x="1310.91" y="151.36"><tspan x="1310.91" y="151.36"/></text><text transform="scale(4.0128 .2492)" x="523.76" y="258.22"/><text x="239.33" y="-29.9"><tspan x="239.33" y="-29.9"/></text><text transform="scale(4.0128 .2492)" x="256.72" y="-469.13"/><text x="1337.38" y="-246.37"><tspan x="1337.38" y="-246.37"/></text><text transform="scale(4.0128 .2492)" x="530.36" y="-1337.8"/><text x="1918.65" y="-326.37"><tspan x="1918.65" y="-326.37"/></text><text transform="scale(4.0128 .2492)" x="675.21" y="-1658.83"/><text x="1529.53" y="-798.77"><tspan x="1529.53" y="-798.77"/></text><text transform="scale(4.0128 .2492)" x="578.24" y="-3554.48"/><text x="2110.79" y="-878.78"><tspan x="2110.79" y="-878.78"/></text><text transform="scale(4.0128 .2492)" x="723.09" y="-3875.52"/><text x="277.99" y="535.94"><tspan x="277.99" y="535.94"/></text><text x="729.64" y="231.36"><tspan x="729.64" y="231.36"/></text><text transform="scale(4.0128 .2492)" x="378.91" y="579.26"/><text x="1310.91" y="151.36"><tspan x="1310.91" y="151.36"/></text><text transform="scale(4.0128 .2492)" x="523.76" y="258.22"/><text x="239.33" y="-29.9"><tspan x="239.33" y="-29.9"/></text><text transform="scale(4.0128 .2492)" x="256.72" y="-469.13"/><text x="1337.38" y="-246.37"><tspan x="1337.38" y="-246.37"/></text><text transform="scale(4.0128 .2492)" x="530.36" y="-1337.8"/><text x="1918.65" y="-326.37"><tspan x="1918.65" y="-326.37"/></text><text transform="scale(4.0128 .2492)" x="675.21" y="-1658.83"/><text x="1529.53" y="-798.77"><tspan x="1529.53" y="-798.77"/></text><text transform="scale(4.0128 .2492)" x="578.24" y="-3554.48"/><text x="2110.79" y="-878.78"><tspan x="2110.79" y="-878.78"/></text><text transform="scale(4.0128 .2492)" x="723.09" y="-3875.52"/><text x="277.99" y="535.94"><tspan x="277.99" y="535.94"/></text><text x="729.64" y="231.36"><tspan x="729.64" y="231.36"/></text><text transform="scale(4.0128 .2492)" x="378.91" y="579.26"/><text x="1310.91" y="151.36"><tspan x="1310.91" y="151.36"/></text><text transform="scale(4.0128 .2492)" x="523.76" y="258.22"/><text x="239.33" y="-29.9"><tspan x="239.33" y="-29.9"/></text><text transform="scale(4.0128 .2492)" x="256.72" y="-469.13"/><text x="1337.38" y="-246.37"><tspan x="1337.38" y="-246.37"/></text><text transform="scale(4.0128 .2492)" x="530.36" y="-1337.8"/><text x="1918.65" y="-326.37"><tspan x="1918.65" y="-326.37"/></text><text transform="scale(4.0128 .2492)" x="675.21" y="-1658.83"/><text x="1529.53" y="-798.77"><tspan x="1529.53" y="-798.77"/></text><text transform="scale(4.0128 .2492)" x="578.24" y="-3554.48"/><text x="2110.79" y="-878.78"><tspan x="2110.79" y="-878.78"/></text><text transform="scale(4.0128 .2492)" x="723.09" y="-3875.52"/><text x="277.99" y="535.94"><tspan x="277.99" y="535.94"/></text><text x="729.64" y="231.36"><tspan x="729.64" y="231.36"/></text><text transform="scale(4.0128 .2492)" x="378.91" y="579.26"/><text x="1310.91" y="151.36"><tspan x="1310.91" y="151.36"/></text><text transform="scale(4.0128 .2492)" x="523.76" y="258.22"/><text x="239.33" y="-29.9"><tspan x="239.33" y="-29.9"/></text><text transform="scale(4.0128 .2492)" x="256.72" y="-469.13"/><text x="1337.38" y="-246.37"><tspan x="1337.38" y="-246.37"/></text><text transform="scale(4.0128 .2492)" x="530.36" y="-1337.8"/><text x="1918.65" y="-326.37"><tspan x="1918.65" y="-326.37"/></text><text transform="scale(4.0128 .2492)" x="675.21" y="-1658.83"/><text x="1529.53" y="-798.77"><tspan x="1529.53" y="-798.77"/></text><text transform="scale(4.0128 .2492)" x="578.24" y="-3554.48"/><text x="2110.79" y="-878.78"><tspan x="2110.79" y="-878.78"/></text><text transform="scale(4.0128 .2492)" x="723.09" y="-3875.52"/><text x="277.99" y="535.94"><tspan x="277.99" y="535.94"/></text><text x="729.64" y="231.36"><tspan x="729.64" y="231.36"/></text><text transform="scale(4.0128 .2492)" x="378.91" y="579.26"/><text x="1310.91" y="151.36"><tspan x="1310.91" y="151.36"/></text><text transform="scale(4.0128 .2492)" x="523.76" y="258.22"/><text x="239.33" y="-29.9"><tspan x="239.33" y="-29.9"/></text><text transform="scale(4.0128 .2492)" x="256.72" y="-469.13"/><text x="1337.38" y="-246.37"><tspan x="1337.38" y="-246.37"/></text><text transform="scale(4.0128 .2492)" x="530.36" y="-1337.8"/><text x="1918.65" y="-326.37"><tspan x="1918.65" y="-326.37"/></text><text transform="scale(4.0128 .2492)" x="675.21" y="-1658.83"/><text x="1529.53" y="-798.77"><tspan x="1529.53" y="-798.77"/></text><text transform="scale(4.0128 .2492)" x="578.24" y="-3554.48"/><text x="2110.79" y="-878.78"><tspan x="2110.79" y="-878.78"/></text><text transform="scale(4.0128 .2492)" x="723.09" y="-3875.52"/><text x="277.99" y="535.94"><tspan x="277.99" y="535.94"/></text><text x="729.64" y="233.74"><tspan x="729.64" y="233.74"/></text><text transform="scale(4.0128 .2492)" x="378.91" y="588.81"/><text x="1310.91" y="153.74"><tspan x="1310.91" y="153.74"/></text><text transform="scale(4.0128 .2492)" x="523.76" y="267.77"/><text x="239.33" y="-27.52"><tspan x="239.33" y="-27.52"/></text><text transform="scale(4.0128 .2492)" x="256.72" y="-459.58"/><text x="1337.38" y="-243.99"><tspan x="1337.38" y="-243.99"/></text><text transform="scale(4.0128 .2492)" x="530.36" y="-1328.25"/><text x="1918.65" y="-324"><tspan x="1918.65" y="-324"/></text><text transform="scale(4.0128 .2492)" x="675.21" y="-1649.28"/><text x="1529.53" y="-796.4"><tspan x="1529.53" y="-796.4"/></text><text transform="scale(4.0128 .2492)" x="578.24" y="-3544.93"/><text x="2110.8" y="-876.4"><tspan x="2110.8" y="-876.4"/></text><text transform="scale(4.0128 .2492)" x="723.09" y="-3865.97"/><text x="277.99" y="538.32"><tspan x="277.99" y="538.32"/></text><text x="3833.78" y="-509.14"><tspan x="3833.78" y="-509.14"/></text><text transform="scale(4.0128 .2492)" x="1152.45" y="-2392.22"/><text x="4415.05" y="-589.14"><tspan x="4415.05" y="-589.14"/></text><text transform="scale(4.0128 .2492)" x="1297.3" y="-2713.25"/><text x="3343.47" y="-770.39"><tspan x="3343.47" y="-770.39"/></text><text transform="scale(4.0128 .2492)" x="1030.26" y="-3440.6"/><text x="4441.52" y="-986.87"><tspan x="4441.52" y="-986.87"/></text><text transform="scale(4.0128 .2492)" x="1303.9" y="-4309.27"/><text x="5022.79" y="-1066.87"><tspan x="5022.79" y="-1066.87"/></text><text transform="scale(4.0128 .2492)" x="1448.75" y="-4630.3"/><text x="4633.67" y="-1539.27"><tspan x="4633.67" y="-1539.27"/></text><text transform="scale(4.0128 .2492)" x="1351.78" y="-6525.96"/><text x="5214.93" y="-1619.27"><tspan x="5214.93" y="-1619.27"/></text><text transform="scale(4.0128 .2492)" x="1496.63" y="-6846.98"/><text x="3382.13" y="-204.56"><tspan x="3382.13" y="-204.56"/></text><text x="-205.86" y="187.35"><tspan x="-205.86" y="187.35"/></text><text transform="scale(4.0128 .2492)" x="145.78" y="402.66"/><text x="375.41" y="107.35"><tspan x="375.41" y="107.35"/></text><text transform="scale(4.0128 .2492)" x="290.63" y="81.62"/><text x="-696.17" y="-73.908"><tspan x="-696.17" y="-73.908"/></text><text transform="scale(4.0128 .2492)" x="23.594" y="-645.73"/><text x="401.88" y="-290.38"><tspan x="401.88" y="-290.38"/></text><text transform="scale(4.0128 .2492)" x="297.23" y="-1514.39"/><text x="983.14" y="-370.38"><tspan x="983.14" y="-370.38"/></text><text transform="scale(4.0128 .2492)" x="442.08" y="-1835.43"/><text x="594.02" y="-842.78"><tspan x="594.02" y="-842.78"/></text><text transform="scale(4.0128 .2492)" x="345.11" y="-3731.08"/><text x="1175.29" y="-922.79"><tspan x="1175.29" y="-922.79"/></text><text transform="scale(4.0128 .2492)" x="489.96" y="-4052.12"/><text x="-657.52" y="491.93"><tspan x="-657.52" y="491.93"/></text><text x="-914.24" y="36.401"><tspan x="-914.24" y="36.401"/></text><text transform="scale(4.0128 .2492)" x="-30.748" y="-203.08"/><text x="-332.97" y="-43.601"><tspan x="-332.97" y="-43.601"/></text><text transform="scale(4.0128 .2492)" x="114.1" y="-524.11"/><text x="-1404.55" y="-224.86"><tspan x="-1404.55" y="-224.86"/></text><text transform="scale(4.0128 .2492)" x="-152.93" y="-1251.46"/><text x="-306.5" y="-441.33"><tspan x="-306.5" y="-441.33"/></text><text transform="scale(4.0128 .2492)" x="120.7" y="-2120.13"/><text x="274.77" y="-521.33"><tspan x="274.77" y="-521.33"/></text><text transform="scale(4.0128 .2492)" x="265.55" y="-2441.17"/><text x="-114.35" y="-993.73"><tspan x="-114.35" y="-993.73"/></text><text transform="scale(4.0128 .2492)" x="168.58" y="-4336.82"/><text x="466.91" y="-1073.74"><tspan x="466.91" y="-1073.74"/></text><text transform="scale(4.0128 .2492)" x="313.44" y="-4657.85"/><text x="-1365.89" y="340.98"><tspan x="-1365.89" y="340.98"/></text><text x="729.64" y="231.36"><tspan x="729.64" y="231.36"/></text><text transform="scale(4.0128 .2492)" x="378.91" y="579.26"/><text x="1310.91" y="151.36"><tspan x="1310.91" y="151.36"/></text><text transform="scale(4.0128 .2492)" x="523.76" y="258.22"/><text x="239.33" y="-29.9"><tspan x="239.33" y="-29.9"/></text><text transform="scale(4.0128 .2492)" x="256.72" y="-469.13"/><text x="1337.38" y="-246.37"><tspan x="1337.38" y="-246.37"/></text><text transform="scale(4.0128 .2492)" x="530.36" y="-1337.79"/><text x="1918.65" y="-326.37"><tspan x="1918.65" y="-326.37"/></text><text transform="scale(4.0128 .2492)" x="675.21" y="-1658.82"/><text x="1529.53" y="-798.77"><tspan x="1529.53" y="-798.77"/></text><text transform="scale(4.0128 .2492)" x="578.24" y="-3554.46"/><text x="2110.79" y="-878.78"><tspan x="2110.79" y="-878.78"/></text><text transform="scale(4.0128 .2492)" x="723.09" y="-3875.5"/><text x="277.99" y="535.94"><tspan x="277.99" y="535.94"/></text><text x="89.64" y="159.96"><tspan x="89.64" y="159.96"/></text><text transform="scale(4.0128 .2492)" x="219.42" y="292.73"/><text x="670.91" y="79.958"><tspan x="670.91" y="79.958"/></text><text transform="scale(4.0128 .2492)" x="364.27" y="-28.31"/><text x="-400.67" y="-101.3"><tspan x="-400.67" y="-101.3"/></text><text transform="scale(4.0128 .2492)" x="97.23" y="-755.65"/><text x="697.38" y="-317.77"><tspan x="697.38" y="-317.77"/></text><text transform="scale(4.0128 .2492)" x="370.87" y="-1624.32"/><text x="1278.65" y="-397.78"><tspan x="1278.65" y="-397.78"/></text><text transform="scale(4.0128 .2492)" x="515.72" y="-1945.35"/><text x="889.53" y="-870.18"><tspan x="889.53" y="-870.18"/></text><text transform="scale(4.0128 .2492)" x="418.75" y="-3840.99"/><text x="1470.8" y="-950.18"><tspan x="1470.8" y="-950.18"/></text><text transform="scale(4.0128 .2492)" x="563.6" y="-4162.02"/><text x="-362.01" y="464.54"><tspan x="-362.01" y="464.54"/></text><text x="3193.78" y="-582.92"><tspan x="3193.78" y="-582.92"/></text><text transform="scale(4.0128 .2492)" x="992.96" y="-2688.28"/><text x="3775.05" y="-662.92"><tspan x="3775.05" y="-662.92"/></text><text transform="scale(4.0128 .2492)" x="1137.8" y="-3009.3"/><text x="2703.47" y="-844.17"><tspan x="2703.47" y="-844.17"/></text><text transform="scale(4.0128 .2492)" x="870.78" y="-3736.66"/><text x="3801.52" y="-1060.65"><tspan x="3801.52" y="-1060.65"/></text><text transform="scale(4.0128 .2492)" x="1144.4" y="-4605.32"/><text x="4382.79" y="-1140.65"><tspan x="4382.79" y="-1140.65"/></text><text transform="scale(4.0128 .2492)" x="1289.25" y="-4926.34"/><text x="3993.67" y="-1613.05"><tspan x="3993.67" y="-1613.05"/></text><text transform="scale(4.0128 .2492)" x="1192.28" y="-6821.99"/><text x="4574.93" y="-1693.05"><tspan x="4574.93" y="-1693.05"/></text><text transform="scale(4.0128 .2492)" x="1337.13" y="-7143.02"/><text x="2742.13" y="-278.34"><tspan x="2742.13" y="-278.34"/></text><text x="-549.88" y="66.88"><tspan x="-549.88" y="66.88"/></text><text transform="scale(4.0128 .2492)" x="60.05" y="-80.78"/><text x="31.394" y="-13.12"><tspan x="31.394" y="-13.12"/></text><text transform="scale(4.0128 .2492)" x="204.9" y="-401.81"/><text x="-1040.19" y="-194.38"><tspan x="-1040.19" y="-194.38"/></text><text transform="scale(4.0128 .2492)" x="-62.14" y="-1129.16"/><text x="57.864" y="-410.85"><tspan x="57.864" y="-410.85"/></text><text transform="scale(4.0128 .2492)" x="211.5" y="-1997.82"/><text x="639.13" y="-490.86"><tspan x="639.13" y="-490.86"/></text><text transform="scale(4.0128 .2492)" x="356.35" y="-2318.86"/><text x="250.01" y="-963.26"><tspan x="250.01" y="-963.26"/></text><text transform="scale(4.0128 .2492)" x="259.38" y="-4214.5"/><text x="831.27" y="-1043.26"><tspan x="831.27" y="-1043.26"/></text><text transform="scale(4.0128 .2492)" x="404.23" y="-4535.53"/><text x="-1001.53" y="371.46"><tspan x="-1001.53" y="371.46"/></text><text x="-3225.36" y="352.5"><tspan x="-3225.36" y="352.5"/></text><text transform="scale(4.0128 .2492)" x="-486.04" y="851.62"/><text x="-2519.02" y="196.87"><tspan x="-2519.02" y="196.87"/></text><text transform="scale(4.0128 .2492)" x="-310.02" y="227.1"/><text x="-2485.65" y="188.75"><tspan x="-2485.65" y="188.75"/></text><text transform="scale(4.0128 .2492)" x="-301.7" y="194.5"/><text x="-1335.23" y="34.34"><tspan x="-1335.23" y="34.34"/></text><text transform="scale(4.0128 .2492)" x="-135.66" y="-211.36"/><text x="-753.97" y="-45.66"><tspan x="-753.97" y="-45.66"/></text><text transform="scale(4.0128 .2492)" x="9.191" y="-532.4"/><text x="-1825.55" y="-226.92"><tspan x="-1825.55" y="-226.92"/></text><text transform="scale(4.0128 .2492)" x="-257.85" y="-1259.73"/><text x="-727.5" y="-443.39"><tspan x="-727.5" y="-443.39"/></text><text transform="scale(4.0128 .2492)" x="15.791" y="-2128.4"/><text x="-146.23" y="-523.39"><tspan x="-146.23" y="-523.39"/></text><text transform="scale(4.0128 .2492)" x="160.63" y="-2449.43"/><text x="-535.35" y="-995.79"><tspan x="-535.35" y="-995.79"/></text><text transform="scale(4.0128 .2492)" x="63.67" y="-4345.06"/><text x="45.914" y="-1075.8"><tspan x="45.914" y="-1075.8"/></text><text transform="scale(4.0128 .2492)" x="208.51" y="-4666.1"/><text x="-1786.89" y="338.92"><tspan x="-1786.89" y="338.92"/></text><text x="-1385.68" y="-704.67"><tspan x="-1385.68" y="-704.67"/></text><text transform="scale(4.0128 .2492)" x="-148.23" y="-3176.85"/><text x="-804.41" y="-784.67"><tspan x="-804.41" y="-784.67"/></text><text transform="scale(4.0128 .2492)" x="-3.379" y="-3497.87"/><text x="-1875.99" y="-965.93"><tspan x="-1875.99" y="-965.93"/></text><text transform="scale(4.0128 .2492)" x="-270.42" y="-4225.23"/><text x="-777.94" y="-1182.4"><tspan x="-777.94" y="-1182.4"/></text><text transform="scale(4.0128 .2492)" x="3.221" y="-5093.88"/><text x="-196.68" y="-1262.41"><tspan x="-196.68" y="-1262.41"/></text><text transform="scale(4.0128 .2492)" x="148.06" y="-5414.92"/><text x="-585.8" y="-1734.81"><tspan x="-585.8" y="-1734.81"/></text><text transform="scale(4.0128 .2492)" x="51.1" y="-7310.55"/><text x="-4.526" y="-1814.81"><tspan x="-4.526" y="-1814.81"/></text><text transform="scale(4.0128 .2492)" x="195.94" y="-7631.57"/><text x="-1837.34" y="-400.09"><tspan x="-1837.34" y="-400.09"/></text><text x="1718.46" y="-1447.55"><tspan x="1718.46" y="-1447.55"/></text><text transform="scale(4.0128 .2492)" x="625.31" y="-6157.84"/><text x="2299.72" y="-1527.55"><tspan x="2299.72" y="-1527.55"/></text><text transform="scale(4.0128 .2492)" x="770.16" y="-6478.88"/><text x="1228.14" y="-1708.8"><tspan x="1228.14" y="-1708.8"/></text><text transform="scale(4.0128 .2492)" x="503.12" y="-7206.21"/><text x="2326.19" y="-1925.28"><tspan x="2326.19" y="-1925.28"/></text><text transform="scale(4.0128 .2492)" x="776.76" y="-8074.87"/><text x="2907.46" y="-2005.28"><tspan x="2907.46" y="-2005.28"/></text><text transform="scale(4.0128 .2492)" x="921.61" y="-8395.91"/><text x="2518.34" y="-2477.68"><tspan x="2518.34" y="-2477.68"/></text><text transform="scale(4.0128 .2492)" x="824.64" y="-10291.54"/><text x="3099.61" y="-2557.68"><tspan x="3099.61" y="-2557.68"/></text><text transform="scale(4.0128 .2492)" x="969.49" y="-10612.57"/><text x="1266.8" y="-1142.97"><tspan x="1266.8" y="-1142.97"/></text><text x="-3275.81" y="-388.89"><tspan x="-3275.81" y="-388.89"/></text><text transform="scale(4.0128 .2492)" x="-498.61" y="-2123.43"/><text x="-3275.81" y="-388.89"><tspan x="-3275.81" y="-388.89"/></text><text transform="scale(4.0128 .2492)" x="-498.61" y="-2123.43"/><text x="-3609.36" y="244.02"><tspan x="-3609.36" y="244.02"/></text><text transform="scale(4.0128 .2492)" x="-581.73" y="416.32"/><text x="-2903.02" y="88.39"><tspan x="-2903.02" y="88.39"/></text><text transform="scale(4.0128 .2492)" x="-405.71" y="-208.19"/><text x="-1160.48" y="549.52"><tspan x="-1160.48" y="549.52"/></text><text transform="scale(4.0128 .2492)" x="28.534" y="1642.23"/><text x="-454.14" y="393.89"><tspan x="-454.14" y="393.89"/></text><text transform="scale(4.0128 .2492)" x="204.55" y="1017.71"/><text x="-420.77" y="385.77"><tspan x="-420.77" y="385.77"/></text><text transform="scale(4.0128 .2492)" x="212.87" y="985.11"/><text x="729.64" y="231.36"><tspan x="729.64" y="231.36"/></text><text transform="scale(4.0128 .2492)" x="378.91" y="579.26"/><text x="1310.91" y="151.36"><tspan x="1310.91" y="151.36"/></text><text transform="scale(4.0128 .2492)" x="523.76" y="258.22"/><text x="239.33" y="-29.9"><tspan x="239.33" y="-29.9"/></text><text transform="scale(4.0128 .2492)" x="256.72" y="-469.13"/><text x="1337.38" y="-246.37"><tspan x="1337.38" y="-246.37"/></text><text transform="scale(4.0128 .2492)" x="530.36" y="-1337.79"/><text x="1918.65" y="-326.37"><tspan x="1918.65" y="-326.37"/></text><text transform="scale(4.0128 .2492)" x="675.21" y="-1658.82"/><text x="1529.53" y="-798.77"><tspan x="1529.53" y="-798.77"/></text><text transform="scale(4.0128 .2492)" x="578.24" y="-3554.46"/><text x="2110.79" y="-878.78"><tspan x="2110.79" y="-878.78"/></text><text transform="scale(4.0128 .2492)" x="723.09" y="-3875.5"/><text x="277.99" y="535.94"><tspan x="277.99" y="535.94"/></text><text x="679.2" y="-507.65"><tspan x="679.2" y="-507.65"/></text><text transform="scale(4.0128 .2492)" x="366.34" y="-2386.26"/><text x="1260.47" y="-587.65"><tspan x="1260.47" y="-587.65"/></text><text transform="scale(4.0128 .2492)" x="511.19" y="-2707.28"/><text x="188.89" y="-768.91"><tspan x="188.89" y="-768.91"/></text><text transform="scale(4.0128 .2492)" x="244.15" y="-3434.63"/><text x="1286.94" y="-985.38"><tspan x="1286.94" y="-985.38"/></text><text transform="scale(4.0128 .2492)" x="517.79" y="-4303.3"/><text x="1868.2" y="-1065.39"><tspan x="1868.2" y="-1065.39"/></text><text transform="scale(4.0128 .2492)" x="662.64" y="-4624.33"/><text x="1479.08" y="-1537.79"><tspan x="1479.08" y="-1537.79"/></text><text transform="scale(4.0128 .2492)" x="565.67" y="-6519.98"/><text x="2060.35" y="-1617.79"><tspan x="2060.35" y="-1617.79"/></text><text transform="scale(4.0128 .2492)" x="710.52" y="-6840.99"/><text x="227.54" y="-203.07"><tspan x="227.54" y="-203.07"/></text><text x="3783.34" y="-1250.53"><tspan x="3783.34" y="-1250.53"/></text><text transform="scale(4.0128 .2492)" x="1139.87" y="-5367.25"/><text x="4364.6" y="-1330.53"><tspan x="4364.6" y="-1330.53"/></text><text transform="scale(4.0128 .2492)" x="1284.72" y="-5688.29"/><text x="3293.02" y="-1511.78"><tspan x="3293.02" y="-1511.78"/></text><text transform="scale(4.0128 .2492)" x="1017.68" y="-6415.64"/><text x="4391.07" y="-1728.26"><tspan x="4391.07" y="-1728.26"/></text><text transform="scale(4.0128 .2492)" x="1291.32" y="-7284.29"/><text x="4972.34" y="-1808.26"><tspan x="4972.34" y="-1808.26"/></text><text transform="scale(4.0128 .2492)" x="1436.17" y="-7605.33"/><text x="4583.22" y="-2280.66"><tspan x="4583.22" y="-2280.66"/></text><text transform="scale(4.0128 .2492)" x="1339.2" y="-9500.97"/><text x="5164.49" y="-2360.66"><tspan x="5164.49" y="-2360.66"/></text><text transform="scale(4.0128 .2492)" x="1484.05" y="-9822"/><text x="3331.68" y="-945.95"><tspan x="3331.68" y="-945.95"/></text><text x="-1210.93" y="-191.87"><tspan x="-1210.93" y="-191.87"/></text><text transform="scale(4.0128 .2492)" x="15.963" y="-1332.82"/><text x="-1210.93" y="-191.87"><tspan x="-1210.93" y="-191.87"/></text><text transform="scale(4.0128 .2492)" x="15.963" y="-1332.82"/><text x="729.64" y="231.36"><tspan x="729.64" y="231.36"/></text><text transform="scale(4.0128 .2492)" x="378.91" y="579.26"/><text x="1310.91" y="151.36"><tspan x="1310.91" y="151.36"/></text><text transform="scale(4.0128 .2492)" x="523.76" y="258.22"/><text x="239.33" y="-29.9"><tspan x="239.33" y="-29.9"/></text><text transform="scale(4.0128 .2492)" x="256.72" y="-469.13"/><text x="1337.38" y="-246.37"><tspan x="1337.38" y="-246.37"/></text><text transform="scale(4.0128 .2492)" x="530.36" y="-1337.8"/><text x="1918.65" y="-326.37"><tspan x="1918.65" y="-326.37"/></text><text transform="scale(4.0128 .2492)" x="675.21" y="-1658.83"/><text x="1529.53" y="-798.77"><tspan x="1529.53" y="-798.77"/></text><text transform="scale(4.0128 .2492)" x="578.24" y="-3554.48"/><text x="2110.79" y="-878.78"><tspan x="2110.79" y="-878.78"/></text><text transform="scale(4.0128 .2492)" x="723.09" y="-3875.52"/><text x="277.99" y="535.94"><tspan x="277.99" y="535.94"/></text><text x="729.64" y="231.36"><tspan x="729.64" y="231.36"/></text><text transform="scale(4.0128 .2492)" x="378.91" y="579.26"/><text x="1310.91" y="151.36"><tspan x="1310.91" y="151.36"/></text><text transform="scale(4.0128 .2492)" x="523.76" y="258.22"/><text x="239.33" y="-29.9"><tspan x="239.33" y="-29.9"/></text><text transform="scale(4.0128 .2492)" x="256.72" y="-469.13"/><text x="1337.38" y="-246.37"><tspan x="1337.38" y="-246.37"/></text><text transform="scale(4.0128 .2492)" x="530.36" y="-1337.8"/><text x="1918.65" y="-326.37"><tspan x="1918.65" y="-326.37"/></text><text transform="scale(4.0128 .2492)" x="675.21" y="-1658.83"/><text x="1529.53" y="-798.77"><tspan x="1529.53" y="-798.77"/></text><text transform="scale(4.0128 .2492)" x="578.24" y="-3554.48"/><text x="2110.79" y="-878.78"><tspan x="2110.79" y="-878.78"/></text><text transform="scale(4.0128 .2492)" x="723.09" y="-3875.52"/><text x="277.99" y="535.94"><tspan x="277.99" y="535.94"/></text><text x="729.64" y="231.36"><tspan x="729.64" y="231.36"/></text><text transform="scale(4.0128 .2492)" x="378.91" y="579.26"/><text x="1310.91" y="151.36"><tspan x="1310.91" y="151.36"/></text><text transform="scale(4.0128 .2492)" x="523.76" y="258.22"/><text x="239.33" y="-29.9"><tspan x="239.33" y="-29.9"/></text><text transform="scale(4.0128 .2492)" x="256.72" y="-469.13"/><text x="1337.38" y="-246.37"><tspan x="1337.38" y="-246.37"/></text><text transform="scale(4.0128 .2492)" x="530.36" y="-1337.8"/><text x="1918.65" y="-326.37"><tspan x="1918.65" y="-326.37"/></text><text transform="scale(4.0128 .2492)" x="675.21" y="-1658.83"/><text x="1529.53" y="-798.77"><tspan x="1529.53" y="-798.77"/></text><text transform="scale(4.0128 .2492)" x="578.24" y="-3554.48"/><text x="2110.79" y="-878.78"><tspan x="2110.79" y="-878.78"/></text><text transform="scale(4.0128 .2492)" x="723.09" y="-3875.52"/><text x="277.99" y="535.94"><tspan x="277.99" y="535.94"/></text><text x="729.64" y="231.36"><tspan x="729.64" y="231.36"/></text><text transform="scale(4.0128 .2492)" x="378.91" y="579.26"/><text x="1310.91" y="151.36"><tspan x="1310.91" y="151.36"/></text><text transform="scale(4.0128 .2492)" x="523.76" y="258.22"/><text x="239.33" y="-29.9"><tspan x="239.33" y="-29.9"/></text><text transform="scale(4.0128 .2492)" x="256.72" y="-469.13"/><text x="1337.38" y="-246.37"><tspan x="1337.38" y="-246.37"/></text><text transform="scale(4.0128 .2492)" x="530.36" y="-1337.8"/><text x="1918.65" y="-326.37"><tspan x="1918.65" y="-326.37"/></text><text transform="scale(4.0128 .2492)" x="675.21" y="-1658.83"/><text x="1529.53" y="-798.77"><tspan x="1529.53" y="-798.77"/></text><text transform="scale(4.0128 .2492)" x="578.24" y="-3554.48"/><text x="2110.79" y="-878.78"><tspan x="2110.79" y="-878.78"/></text><text transform="scale(4.0128 .2492)" x="723.09" y="-3875.52"/><text x="277.99" y="535.94"><tspan x="277.99" y="535.94"/></text><text x="1611.91" y="53.22"><tspan x="1611.91" y="53.22"/></text><text transform="scale(4.0128 .2492)" x="598.77" y="-135.58"/><text x="2193.18" y="-26.78"><tspan x="2193.18" y="-26.78"/></text><text transform="scale(4.0128 .2492)" x="743.62" y="-456.62"/><text x="1121.6" y="-208.04"><tspan x="1121.6" y="-208.04"/></text><text transform="scale(4.0128 .2492)" x="476.58" y="-1183.97"/><text x="2219.65" y="-424.51"><tspan x="2219.65" y="-424.51"/></text><text transform="scale(4.0128 .2492)" x="750.22" y="-2052.64"/><text x="2800.92" y="-504.51"><tspan x="2800.92" y="-504.51"/></text><text transform="scale(4.0128 .2492)" x="895.07" y="-2373.67"/><text x="2411.8" y="-976.91"><tspan x="2411.8" y="-976.91"/></text><text transform="scale(4.0128 .2492)" x="798.1" y="-4269.32"/><text x="2993.06" y="-1056.92"><tspan x="2993.06" y="-1056.92"/></text><text transform="scale(4.0128 .2492)" x="942.95" y="-4590.36"/><text x="1160.26" y="357.8"><tspan x="1160.26" y="357.8"/></text><text x="729.64" y="231.36"><tspan x="729.64" y="231.36"/></text><text transform="scale(4.0128 .2492)" x="378.91" y="579.26"/><text x="1310.91" y="151.36"><tspan x="1310.91" y="151.36"/></text><text transform="scale(4.0128 .2492)" x="523.76" y="258.22"/><text x="239.33" y="-29.9"><tspan x="239.33" y="-29.9"/></text><text transform="scale(4.0128 .2492)" x="256.72" y="-469.13"/><text x="1337.38" y="-246.37"><tspan x="1337.38" y="-246.37"/></text><text transform="scale(4.0128 .2492)" x="530.36" y="-1337.8"/><text x="1918.65" y="-326.37"><tspan x="1918.65" y="-326.37"/></text><text transform="scale(4.0128 .2492)" x="675.21" y="-1658.83"/><text x="1529.53" y="-798.77"><tspan x="1529.53" y="-798.77"/></text><text transform="scale(4.0128 .2492)" x="578.24" y="-3554.48"/><text x="2110.79" y="-878.78"><tspan x="2110.79" y="-878.78"/></text><text transform="scale(4.0128 .2492)" x="723.09" y="-3875.52"/><text x="277.99" y="535.94"><tspan x="277.99" y="535.94"/></text><text x="729.64" y="231.36"><tspan x="729.64" y="231.36"/></text><text transform="scale(4.0128 .2492)" x="378.91" y="579.26"/><text x="1310.91" y="151.36"><tspan x="1310.91" y="151.36"/></text><text transform="scale(4.0128 .2492)" x="523.76" y="258.22"/><text x="239.33" y="-29.9"><tspan x="239.33" y="-29.9"/></text><text transform="scale(4.0128 .2492)" x="256.72" y="-469.13"/><text x="1337.38" y="-246.37"><tspan x="1337.38" y="-246.37"/></text><text transform="scale(4.0128 .2492)" x="530.36" y="-1337.8"/><text x="1918.65" y="-326.37"><tspan x="1918.65" y="-326.37"/></text><text transform="scale(4.0128 .2492)" x="675.21" y="-1658.83"/><text x="1529.53" y="-798.77"><tspan x="1529.53" y="-798.77"/></text><text transform="scale(4.0128 .2492)" x="578.24" y="-3554.48"/><text x="2110.79" y="-878.78"><tspan x="2110.79" y="-878.78"/></text><text transform="scale(4.0128 .2492)" x="723.09" y="-3875.52"/><text x="277.99" y="535.94"><tspan x="277.99" y="535.94"/></text><text x="729.64" y="231.36"><tspan x="729.64" y="231.36"/></text><text transform="scale(4.0128 .2492)" x="378.91" y="579.26"/><text x="1310.91" y="151.36"><tspan x="1310.91" y="151.36"/></text><text transform="scale(4.0128 .2492)" x="523.76" y="258.22"/><text x="239.33" y="-29.9"><tspan x="239.33" y="-29.9"/></text><text transform="scale(4.0128 .2492)" x="256.72" y="-469.13"/><text x="1337.38" y="-246.37"><tspan x="1337.38" y="-246.37"/></text><text transform="scale(4.0128 .2492)" x="530.36" y="-1337.8"/><text x="1918.65" y="-326.37"><tspan x="1918.65" y="-326.37"/></text><text transform="scale(4.0128 .2492)" x="675.21" y="-1658.83"/><text x="1529.53" y="-798.77"><tspan x="1529.53" y="-798.77"/></text><text transform="scale(4.0128 .2492)" x="578.24" y="-3554.48"/><text x="2110.79" y="-878.78"><tspan x="2110.79" y="-878.78"/></text><text transform="scale(4.0128 .2492)" x="723.09" y="-3875.52"/><text x="277.99" y="535.94"><tspan x="277.99" y="535.94"/></text><text x="729.64" y="231.36"><tspan x="729.64" y="231.36"/></text><text transform="scale(4.0128 .2492)" x="378.91" y="579.26"/><text x="1310.91" y="151.36"><tspan x="1310.91" y="151.36"/></text><text transform="scale(4.0128 .2492)" x="523.76" y="258.22"/><text x="239.33" y="-29.9"><tspan x="239.33" y="-29.9"/></text><text transform="scale(4.0128 .2492)" x="256.72" y="-469.13"/><text x="1337.38" y="-246.37"><tspan x="1337.38" y="-246.37"/></text><text transform="scale(4.0128 .2492)" x="530.36" y="-1337.79"/><text x="1918.65" y="-326.37"><tspan x="1918.65" y="-326.37"/></text><text transform="scale(4.0128 .2492)" x="675.21" y="-1658.82"/><text x="1529.53" y="-798.77"><tspan x="1529.53" y="-798.77"/></text><text transform="scale(4.0128 .2492)" x="578.24" y="-3554.46"/><text x="2110.79" y="-878.78"><tspan x="2110.79" y="-878.78"/></text><text transform="scale(4.0128 .2492)" x="723.09" y="-3875.5"/><text x="277.99" y="535.94"><tspan x="277.99" y="535.94"/></text><text x="729.64" y="231.36"><tspan x="729.64" y="231.36"/></text><text transform="scale(4.0128 .2492)" x="378.91" y="579.26"/><text x="1310.91" y="151.36"><tspan x="1310.91" y="151.36"/></text><text transform="scale(4.0128 .2492)" x="523.76" y="258.22"/><text x="239.33" y="-29.9"><tspan x="239.33" y="-29.9"/></text><text transform="scale(4.0128 .2492)" x="256.72" y="-469.13"/><text x="1337.38" y="-246.37"><tspan x="1337.38" y="-246.37"/></text><text transform="scale(4.0128 .2492)" x="530.36" y="-1337.8"/><text x="1918.65" y="-326.37"><tspan x="1918.65" y="-326.37"/></text><text transform="scale(4.0128 .2492)" x="675.21" y="-1658.83"/><text x="1529.53" y="-798.77"><tspan x="1529.53" y="-798.77"/></text><text transform="scale(4.0128 .2492)" x="578.24" y="-3554.48"/><text x="2110.79" y="-878.78"><tspan x="2110.79" y="-878.78"/></text><text transform="scale(4.0128 .2492)" x="723.09" y="-3875.52"/><text x="277.99" y="535.94"><tspan x="277.99" y="535.94"/></text><text x="729.64" y="231.36"><tspan x="729.64" y="231.36"/></text><text transform="scale(4.0128 .2492)" x="378.91" y="579.26"/><text x="1310.91" y="151.36"><tspan x="1310.91" y="151.36"/></text><text transform="scale(4.0128 .2492)" x="523.76" y="258.22"/><text x="239.33" y="-29.9"><tspan x="239.33" y="-29.9"/></text><text transform="scale(4.0128 .2492)" x="256.72" y="-469.13"/><text x="1337.38" y="-246.37"><tspan x="1337.38" y="-246.37"/></text><text transform="scale(4.0128 .2492)" x="530.36" y="-1337.8"/><text x="1918.65" y="-326.37"><tspan x="1918.65" y="-326.37"/></text><text transform="scale(4.0128 .2492)" x="675.21" y="-1658.83"/><text x="1529.53" y="-798.77"><tspan x="1529.53" y="-798.77"/></text><text transform="scale(4.0128 .2492)" x="578.24" y="-3554.48"/><text x="2110.79" y="-878.78"><tspan x="2110.79" y="-878.78"/></text><text transform="scale(4.0128 .2492)" x="723.09" y="-3875.52"/><text x="277.99" y="535.94"><tspan x="277.99" y="535.94"/></text><text x="729.64" y="231.36"><tspan x="729.64" y="231.36"/></text><text transform="scale(4.0128 .2492)" x="378.91" y="579.26"/><text x="1310.91" y="151.36"><tspan x="1310.91" y="151.36"/></text><text transform="scale(4.0128 .2492)" x="523.76" y="258.22"/><text x="239.33" y="-29.9"><tspan x="239.33" y="-29.9"/></text><text transform="scale(4.0128 .2492)" x="256.72" y="-469.13"/><text x="1337.38" y="-246.37"><tspan x="1337.38" y="-246.37"/></text><text transform="scale(4.0128 .2492)" x="530.36" y="-1337.8"/><text x="1918.65" y="-326.37"><tspan x="1918.65" y="-326.37"/></text><text transform="scale(4.0128 .2492)" x="675.21" y="-1658.83"/><text x="1529.53" y="-798.77"><tspan x="1529.53" y="-798.77"/></text><text transform="scale(4.0128 .2492)" x="578.24" y="-3554.48"/><text x="2110.79" y="-878.78"><tspan x="2110.79" y="-878.78"/></text><text transform="scale(4.0128 .2492)" x="723.09" y="-3875.52"/><text x="277.99" y="535.94"><tspan x="277.99" y="535.94"/></text><text x="729.64" y="231.36"><tspan x="729.64" y="231.36"/></text><text transform="scale(4.0128 .2492)" x="378.91" y="579.26"/><text x="1310.91" y="151.36"><tspan x="1310.91" y="151.36"/></text><text transform="scale(4.0128 .2492)" x="523.76" y="258.22"/><text x="239.33" y="-29.9"><tspan x="239.33" y="-29.9"/></text><text transform="scale(4.0128 .2492)" x="256.72" y="-469.13"/><text x="1337.38" y="-246.37"><tspan x="1337.38" y="-246.37"/></text><text transform="scale(4.0128 .2492)" x="530.36" y="-1337.8"/><text x="1918.65" y="-326.37"><tspan x="1918.65" y="-326.37"/></text><text transform="scale(4.0128 .2492)" x="675.21" y="-1658.83"/><text x="1529.53" y="-798.77"><tspan x="1529.53" y="-798.77"/></text><text transform="scale(4.0128 .2492)" x="578.24" y="-3554.48"/><text x="2110.79" y="-878.78"><tspan x="2110.79" y="-878.78"/></text><text transform="scale(4.0128 .2492)" x="723.09" y="-3875.52"/><text x="277.99" y="535.94"><tspan x="277.99" y="535.94"/></text><text x="1611.91" y="53.22"><tspan x="1611.91" y="53.22"/></text><text transform="scale(4.0128 .2492)" x="598.77" y="-135.58"/><text x="2193.18" y="-26.78"><tspan x="2193.18" y="-26.78"/></text><text transform="scale(4.0128 .2492)" x="743.62" y="-456.62"/><text x="1121.6" y="-208.04"><tspan x="1121.6" y="-208.04"/></text><text transform="scale(4.0128 .2492)" x="476.58" y="-1183.97"/><text x="2219.65" y="-424.51"><tspan x="2219.65" y="-424.51"/></text><text transform="scale(4.0128 .2492)" x="750.22" y="-2052.64"/><text x="2800.92" y="-504.51"><tspan x="2800.92" y="-504.51"/></text><text transform="scale(4.0128 .2492)" x="895.07" y="-2373.67"/><text x="2411.8" y="-976.91"><tspan x="2411.8" y="-976.91"/></text><text transform="scale(4.0128 .2492)" x="798.1" y="-4269.32"/><text x="2993.06" y="-1056.92"><tspan x="2993.06" y="-1056.92"/></text><text transform="scale(4.0128 .2492)" x="942.95" y="-4590.36"/><text x="1160.26" y="357.8"><tspan x="1160.26" y="357.8"/></text><g fill-rule="evenodd"><path d="m471.95 253.05c0 120.9-98.01 218.91-218.91 218.91s-218.91-98.01-218.91-218.91 98.01-218.91 218.91-218.91 218.91 98.01 218.91 218.91" fill="#33678e"/><path d="m256 1c-140.83 0-255 114.17-255 255s114.17 255 255 255 255-114.17 255-255-114.17-255-255-255m8.827 44.931c120.9 0 218.9 98 218.9 218.9s-98 218.9-218.9 218.9-218.93-98-218.93-218.9 98.03-218.9 218.93-218.9" fill-opacity=".067"/><g fill-opacity=".129"><path d="m256 4.43c-138.94 0-251.57 112.63-251.57 251.57s112.63 251.57 251.57 251.57 251.57-112.63 251.57-251.57-112.63-251.57-251.57-251.57m5.885 38.556c120.9 0 218.9 98 218.9 218.9s-98 218.9-218.9 218.9-218.93-98-218.93-218.9 98.03-218.9 218.93-218.9"/><path d="m256 8.36c-136.77 0-247.64 110.87-247.64 247.64s110.87 247.64 247.64 247.64 247.64-110.87 247.64-247.64-110.87-247.64-247.64-247.64m2.942 31.691c120.9 0 218.9 98 218.9 218.9s-98 218.9-218.9 218.9-218.93-98-218.93-218.9 98.03-218.9 218.93-218.9"/></g><path d="m253.04 7.86c-135.42 0-245.19 109.78-245.19 245.19 0 135.42 109.78 245.19 245.19 245.19 135.42 0 245.19-109.78 245.19-245.19 0-135.42-109.78-245.19-245.19-245.19m0 26.297c120.9 0 218.9 98 218.9 218.9s-98 218.9-218.9 218.9-218.93-98-218.93-218.9 98.03-218.9 218.93-218.9z" fill="#fff" stroke="#000" stroke-opacity=".31" stroke-width="4.904"/></g><text x="729.64" y="231.36"><tspan x="729.64" y="231.36"/></text><text transform="scale(4.0128 .2492)" x="378.91" y="579.26"/><text x="1310.91" y="151.36"><tspan x="1310.91" y="151.36"/></text><text transform="scale(4.0128 .2492)" x="523.76" y="258.22"/><text x="239.33" y="-29.9"><tspan x="239.33" y="-29.9"/></text><text transform="scale(4.0128 .2492)" x="256.72" y="-469.13"/><text x="1337.38" y="-246.37"><tspan x="1337.38" y="-246.37"/></text><text transform="scale(4.0128 .2492)" x="530.36" y="-1337.8"/><text x="1918.65" y="-326.37"><tspan x="1918.65" y="-326.37"/></text><text transform="scale(4.0128 .2492)" x="675.21" y="-1658.83"/><text x="1529.53" y="-798.77"><tspan x="1529.53" y="-798.77"/></text><text transform="scale(4.0128 .2492)" x="578.24" y="-3554.48"/><text x="2110.79" y="-878.78"><tspan x="2110.79" y="-878.78"/></text><text transform="scale(4.0128 .2492)" x="723.09" y="-3875.52"/><text x="277.99" y="535.94"><tspan x="277.99" y="535.94"/></text><path d="m328.09 112.18c-11.198.1-21.02 1.705-27.752 3.223-.849.192-1.489.381-2.236.568l11.867 11.867c-12.395-6.969-27.615-11.738-46.14-12.02-1.129-.018-2.246-.024-3.336 0-16.356.358-28.394 5.332-37.533 12.662-.379.304-.744.621-1.113.934l-4.193-4.193c-8.754-2.926-29.06-8.852-49.854-8.834-1.835.001-3.666.051-5.498.152-14.657.81-28.757 4.965-38.859 15.277-10.1 10.313-16.548 27.05-15.13 54.21.286 5.357 2.6 19.545 6.559 36.545 3.958 17 9.541 37.03 16.303 54.744 6.535 17.12 14.31 32.12 22.19 39.998l149.04 149.05c97.12-22.39 169.53-109.4 169.53-213.31 0-14.14-1.357-27.971-3.92-41.37l-75.53-75.53c-19.407-19.407-44.06-24.15-64.4-23.973" opacity=".25"/><path d="m328.09 112.18c-11.198.1-21.02 1.705-27.751 3.222-.849.192-1.489.381-2.237.569 19.983 7.198 34.679 19.796 44.849 32.34 7.636 9.417 12.762 18.797 15.847 25.931 1.542 3.567 2.57 6.576 3.147 8.833.288 1.129.473 2.031.531 2.919.029.444.073.869-.076 1.516-.016.069-.053.152-.076.227.406 11.974-2.787 20.04-3.222 31.884-.256 8.562 1.965 18.34 2.502 28.813.52 10.136-.674 21.06-7.696 31.808.049.06.103.13.152.19 1.349 1.64 2.633 3.09 3.715 4.587 18.683-27.822 32.05-58.859 39.12-85.22 3.703-13.811 5.683-26.34 5.838-36.36s-1.665-17.432-4.549-20.965c-20.09-24.719-47.702-30.491-70.1-30.29m-67.6 3.639c-16.356.358-28.393 5.333-37.532 12.662-9.749 7.818-16.201 18.436-20.434 29.23-5.608 14.297-7.255 28.607-7.734 36.736 1-.634 2.09-1.285 3.298-1.933 4.945-2.653 11.47-5.36 18.387-6.9 3.458-.77 7.04-1.251 10.539-1.251 3.5 0 6.941.509 10.16 1.706 6.439 2.394 11.724 7.897 13.724 16.795 9.931 44.24-2.907 59.907-7.886 72.828-2.6 6.748-4.848 12.556-5.535 17.288 1.589-.952 3.162-1.501 4.663-1.63 2.875-.247 5.206.716 6.786 1.327a2.9612 2.9612 0 0 1 .0379 0c4.175 1.687 7.295 5.406 8.947 9.705.947 2.464 1.394 5.234 1.024 7.923-.179 7.096-.262 14.12-.265 20.965 1.106 6.578 1.703 14.562 1.479 22.22-.179 6.086-.363 11.438-.303 16.188.23 2.96.508 5.696.796 8.113.616 5.176 1.442 9.103 2.123 10.767 1.817 4.399 4.532 10.386 9.743 14.596s12.903 6.944 25.931 4.322c11.08-2.289 18.216-5.582 23.05-10.426 4.834-4.843 7.636-11.455 9.364-21.15 2.563-14.359 7.636-54.947 8.378-63.729-.001-.012.001-.025 0-.038-.363-5.98.521-10.375 2.351-13.61 1.834-3.243 4.581-5.15 7.05-6.217 2.298-.993 4.275-1.387 5.459-1.744-.714-1.413-2.235-3.425-4.625-6.331-2.854-3.469-6.375-8.08-9.175-14.596-.4-.935-1.861-3.514-3.753-6.786s-4.264-7.385-6.748-11.98c-4.968-9.19-10.35-20.321-13.12-31.01-2.767-10.691-3.04-21.409 3.602-28.737 6.19-6.83 17.722-9.468 35.713-7.279-.501-1.816-1.298-4.193-2.616-7.241-2.882-6.666-7.809-15.597-15.05-24.529-14.485-17.863-38.13-35.691-74.5-36.24-1.129-.018-2.246-.024-3.336 0m-92.69.569c-1.835.001-3.665.05-5.497.152-14.657.81-28.757 4.966-38.859 15.278-10.1 10.313-16.548 27.05-15.13 54.21.286 5.357 2.6 19.547 6.559 36.547 3.958 17 9.54 37.03 16.302 54.744 6.762 17.717 14.851 33.15 23.01 40.793 4.081 3.819 7.949 5.618 11.715 5.459 3.766-.158 7.948-2.264 12.662-7.734 12.13-14.1 22.883-25.278 26.538-29.04-12.273-9.356-19.739-25.26-17.212-42.688a2.9612 2.9612 0 0 1 0-.0378c1.501-10.28 1.687-19.807 1.516-27.334-.158-6.957-.61-11.869-.682-14.748a2.9612 2.9612 0 0 1 -.0378-.60659v-.152a2.9612 2.9612 0 0 1 0-.11368c-.031-1.413-.362-23.382 8.341-45.57 4.269-10.884 10.748-21.839 20.624-30.33-8.754-2.926-29.06-8.851-49.854-8.833m176.1 72.45c-10.02.142-15.981 2.68-19.221 6.255-4.609 5.085-4.821 13.441-2.275 23.278 2.546 9.836 7.722 20.686 12.587 29.685 2.432 4.499 4.814 8.551 6.71 11.828 1.896 3.278 3.264 5.629 4.02 7.393 1.314 3.055 2.81 5.618 4.322 7.848 5.203-8.856 6.103-17.522 5.649-26.386-.502-9.792-2.792-19.64-2.502-29.31.443-12.04 3.18-19.775 3.185-29.723-3.838-.511-7.333-.818-10.426-.872-.705-.012-1.379-.01-2.047 0m-116.92 1.479c-2.952-.001-6.09.404-9.212 1.099-6.245 1.39-12.378 3.921-16.871 6.331-2.246 1.205-4.104 2.387-5.27 3.298-.494.386-.78.694-.986.91.047 2.039.515 7.285.682 14.672.176 7.75-.027 17.6-1.592 28.32-3.598 24.803 15.791 45.499 38.4 44.508 1.089-5.04 3.177-10.257 5.346-15.885 5.605-14.546 17.299-26.429 7.658-69.38-1.654-7.355-5.252-10.804-10.05-12.587-2.397-.891-5.161-1.288-8.113-1.289m113.24 3.639c.976.027 1.879.153 2.692.341.813.189 1.527.442 2.161.872.598.406 1.122 1.066 1.289 1.896h.076c.006.028-.006.048 0 .076.001.012-.001.026 0 .038.001.002-.038-.002-.038 0 .164.924-.078 1.697-.455 2.426-.395.764-.952 1.514-1.668 2.237-1.433 1.445-3.491 2.741-5.952 3.071h-.038c-2.456.253-4.622-.535-6.217-1.592-.798-.529-1.456-1.147-1.971-1.744-.516-.597-.915-1.136-1.099-1.896v-.114c-.151-.905.225-1.762.72-2.351s1.126-1.01 1.858-1.403c1.463-.787 3.372-1.375 5.535-1.668 1.083-.147 2.133-.217 3.109-.19m-112.71 1.63c1.06-.023 2.178.033 3.336.19 2.307.312 4.344.914 6.03 1.82.842.453 1.64.944 2.313 1.744s1.261 2.102 1.024 3.526v.114c-.246 1.229-.781 1.916-1.403 2.654s-1.39 1.437-2.313 2.047c-1.846 1.221-4.394 2.172-7.279 1.782-2.881-.386-5.139-1.889-6.748-3.526-.805-.818-1.458-1.685-1.933-2.616-.448-.877-.85-1.836-.607-3.26h-.038c.006-.043.031-.071.038-.114.008-.044-.01-.068 0-.114h.038c.267-1.29 1.094-2.262 1.896-2.805.854-.579 1.72-.883 2.654-1.099.934-.217 1.935-.318 2.995-.341m130 100.05c-.373.168-.747.298-1.099.417-1.858.627-3.724.973-5.421 1.706-1.698.733-3.132 1.708-4.246 3.677-1.043 1.844-1.835 4.748-1.668 9.402a2.9612 2.9612 0 0 1 .11368 1.1374c.03.103.102.231.417.493.476.396 1.464.91 2.843 1.327 2.758.834 6.971 1.286 11.639 1.251 9.335-.071 20.621-2.046 26.955-4.891 8.227-3.681 14.834-8.917 16.719-11.677.094-.138.046-.108.114-.227-.851-.077-2.262-.114-4.625.341-.017.004-.021-.004-.038 0-19.549 3.897-30.355 2.76-36.66.227-2.315-.93-3.839-2.059-5.04-3.185m-114.87 1.63c-1.283.11-2.873.643-5.194 3.147a2.9612 2.9612 0 0 1 -.49285.45494c-4.682 5.165-6.557 8.439-10.16 11.184-3.727 2.839-8.659 4.42-19.18 6.521-5.04.996-7.889 2.284-8.833 3.03-.373.296-.314.29-.303.265.241.397 1.457 1.54 3.147 2.426 1.712.898 3.817 1.636 5.573 2.047a2.9612 2.9612 0 0 1 .0379 0c4.704 1.13 12.39 2.483 20.586 1.137s16.853-5.246 24.04-14.975c.594-.802.982-1.721 1.175-2.692.022-.85.014-1.689.038-2.54a2.9612 2.9612 0 0 1 0-.22746c-.113-.84-.315-1.681-.644-2.54-1.116-2.903-3.489-5.447-5.649-6.331-.014-.005-.024.005-.038 0-1.551-.599-2.823-1.019-4.094-.91" fill="#fff"/></svg>