<?xml version="1.0" encoding="UTF-8"?>
<svg width="100" height="32" version="1.1" viewBox="0 0 100 32.000004" xmlns="http://www.w3.org/2000/svg">
<g transform="translate(0,-1020.3622)">
<path d="m14.996563 1040.0522c-0.262483 0-0.467565 0.123-0.537225 0.3201-0.04514 0.119-0.05761 0.2008-0.06588 0.451h-0.356891v0.2461h0.356891v1.7768h0.291275v-1.7768h0.492389v-0.2461h-0.492386c0-0.2214 1.33e-4 -0.238 0.03703-0.3241 0.04514-0.1272 0.176381-0.1925 0.385698-0.1925 0.06159 0 0.102429 0.011 0.188589 0.028v-0.2545c-0.139489-0.02-0.213383-0.029-0.299537-0.029zm-14.25525373 0.057v2.7368h0.29127353v-2.3881l0.8943681 2.3881h0.2339191l0.8860977-2.3881v2.3881h0.3323567v-2.7368h-0.5006587l-0.8079554 2.1873-0.8207317-2.1873zm3.28092803 0v0.3487h0.3403597v-0.3487zm12.0079387 0.1806-0.29528 0.025-0.01233 0.5087h-0.356898v0.2462h0.356898v1.2187c0 0.4062 0.196747 0.6156 0.578292 0.6156 0.09436 0 0.160056-0.011 0.299536-0.025v-0.2504c-0.11077 0.021-0.168331 0.025-0.24218 0.025-0.21744 0-0.3281-0.1071-0.3281-0.3162v-1.268h0.455571v-0.2461h-0.455571zm-8.2589207 0.4761c-0.155902 0-0.308041 0.069-0.398216 0.1764-0.07376 0.09-0.110748 0.1516-0.209125 0.3527v-0.4719h-0.274751v2.0229h0.315824v-1.0707c0.0083-0.4309 0.299434-0.7346 0.680978-0.7017v-0.2996c-0.04514-0.011-0.09009-0.011-0.11471-0.011zm-2.0840141 0.011c-0.5251353 0-0.8695669 0.4266-0.8695669 1.0669 0 0.644 0.3361916 1.0627 0.8530349 1.0627 0.2256423 0 0.4018971-0.069 0.5454871-0.2175 0.131286-0.1314 0.188951-0.2503 0.238183-0.4966l-0.283011-0.05c-0.06573 0.3325-0.2380293 0.5044-0.4923899 0.5044-0.3364134 0-0.5332194-0.3035-0.5332194-0.8122 0-0.4925 0.205164-0.8002 0.5374763-0.8002 0.1559014 0 0.2911783 0.069 0.381433 0.1929 0.05334 0.078 0.08209 0.1518 0.106704 0.3078l0.283012-0.053c-0.08205-0.4596-0.352775-0.7058-0.7671388-0.7058zm3.2483671 0c-0.541453 0-0.914654 0.4307-0.914654 1.0587 0 0.6439 0.352694 1.0709 0.881849 1.0709 0.54565 0 0.935434-0.4351 0.935434-1.0424 7.4e-5 -0.6607-0.352879-1.0872-0.902629-1.0872zm1.9432637 0c-0.459495 0-0.762882 0.2378-0.762882 0.5948 0 0.2871 0.200952 0.4922 0.545488 0.558l0.426521 0.078c0.229743 0.045 0.34888 0.1478 0.34888 0.3119 0 0.1969-0.19278 0.3281-0.475857 0.3281-0.188641 0-0.381442-0.057-0.496403-0.1516-0.06565-0.053-0.09858-0.1152-0.131485-0.23l-0.299292 0.062c0.0492 0.1764 0.102462 0.2625 0.209133 0.3529 0.172396 0.1517 0.402148 0.2257 0.68924 0.2257 0.500436 0 0.832755-0.2505 0.832755-0.6197 0-0.3282-0.201084-0.5254-0.61536-0.5991l-0.397715-0.069c-0.213338-0.041-0.316075-0.1315-0.316075-0.2833 0-0.1806 0.17247-0.2995 0.435034-0.2995 0.258381 0 0.422235 0.099 0.516689 0.3158l0.287261-0.062c-0.09846-0.3367-0.373445-0.5129-0.795932-0.5129zm2.088272 0c-0.541541 0-0.914905 0.4307-0.914905 1.0587 0 0.6439 0.352945 1.0709 0.882101 1.0709 0.545554 0 0.935183-0.4351 0.935183-1.0424 6.7e-5 -0.6607-0.352628-1.0872-0.902379-1.0872zm-8.9326392 0.053v2.0229h0.3158172v-2.0229zm4.8888285 0.2054c0.164105 0 0.324212 0.082 0.426771 0.2174 0.09847 0.1395 0.143517 0.3201 0.143517 0.5951 0 0.5006-0.213448 0.7999-0.566276 0.7999-0.356927 0-0.56176-0.2954-0.56176-0.8165 0-0.2462 0.04928-0.4431 0.139496-0.5742 0.09428-0.1354 0.258255-0.2217 0.418252-0.2217zm4.0315357 0c0.164024 0 0.323954 0.082 0.426529 0.2174 0.09837 0.1395 0.143752 0.3201 0.143752 0.5951 0 0.5006-0.213287 0.7999-0.566024 0.7999-0.356929 0-0.562012-0.2954-0.562012-0.8165 0-0.2462 0.04899-0.4431 0.139253-0.5742 0.09436-0.1354 0.258506-0.2217 0.418502-0.2217zm37.505011 2.5404c-1.748051 0-2.905248 0.9846-2.905248 2.4497 0 0.4923 0.147647 0.9602 0.430778 1.3541 0.320065 0.443 0.726359 0.6647 1.600389 0.8986l1.575847 0.4063c0.689373 0.1848 1.021595 0.4924 1.021595 0.9727 0 0.7385-0.603217 1.1817-1.612663 1.1817-0.529341 0-1.058672-0.1106-1.378739-0.3079-0.357002-0.209-0.504745-0.4185-0.640154-0.9111l-1.427831 0.3081c0.209273 0.6647 0.418503 0.9972 0.824737 1.3294 0.652445 0.5171 1.501806 0.7754 2.523557 0.7754 1.981949 0 3.274666-1.0093 3.274666-2.5727 0-0.4679-0.123281-0.8988-0.344867-1.268-0.332378-0.5172-0.849398-0.8372-1.78498-1.0709l-1.403281-0.345c-0.775549-0.1967-1.144818-0.5167-1.144818-0.9969 0-0.6033 0.553918-1.0096 1.391012-1.0096s1.329468 0.2955 1.551054 0.9234l1.403532-0.3447c-0.147891-0.5047-0.332497-0.7631-0.689491-1.0587-0.5909-0.4677-1.37876-0.7139-2.265095-0.7139zm-49.74311433 0.1337 2.23954123 8.2083h1.5137339l1.4889402-6.0301 1.6369563 6.0301h1.550302l2.1907137-8.2083h-1.304358l-1.5508017 5.9811-1.636714-5.9811h-1.5012082l-1.4769162 5.9811-1.575094-5.9811zm11.03843733 0v1.4274h1.365969v-1.4274zm12.307483 0v2.9659c-0.332569-0.7261-0.849465-1.071-1.624681-1.071-0.639668 0-1.156998 0.2219-1.538276 0.6648-0.541549 0.6152-0.849038 1.5381-0.849038 2.535 0 0.9354 0.282917 1.9201 0.689247 2.4614 0.393592 0.5047 0.959735 0.7755 1.624181 0.7755 0.861377 0 1.403096-0.4185 1.784721-1.3414v1.2181h1.279564v-8.2083zm57.679957 1.9222c-0.673988 0-1.264998 0.2399-1.662004 0.6832-0.276979 0.2955-0.406242 0.5631-0.544728 1.1168l0.720296 0.222c0.03689-0.3788 0.110808-0.5818 0.29528-0.8218 0.277155-0.3695 0.711024-0.5911 1.181893-0.5911 0.784777 0 1.384756 0.5449 1.384756 1.2558 0 0.7017-0.350809 1.1911-1.55106 2.1974-0.683218 0.5723-0.683196 0.5723-2.031165 1.5789v0.637h4.367142v-0.637h-3.397649c0.590892-0.4156 1.043125-0.7573 1.560315-1.1636 1.384734-1.1262 1.818787-1.754 1.818787-2.622 0-1.0617-0.913922-1.8556-2.141863-1.8556zm5.14229 0c-0.867869 0-1.486471 0.3785-1.901934 1.1723-0.295278 0.5727-0.45206 1.2559-0.45206 2.0313 0 1.8744 0.960041 3.1945 2.335707 3.1945 0.775546 0 1.44045-0.4155 1.828061-1.1358 0.323141-0.5909 0.498394-1.3384 0.498394-2.0677 0-0.7111-0.166002-1.4314-0.470844-2.0223-0.397014-0.7568-1.043317-1.1723-1.837324-1.1723zm5.096464 0c-0.86788 0-1.486471 0.3785-1.901945 1.1723-0.295613 0.5727-0.452557 1.2559-0.452557 2.0313 0 1.8744 0.960538 3.1945 2.336215 3.1945 0.775546 0 1.440104-0.4155 1.82805-1.1358 0.323152-0.5909 0.498405-1.3384 0.498405-2.0677 0-0.7111-0.166348-1.4314-0.470855-2.0223-0.397003-0.7568-1.043306-1.1723-1.837313-1.1723zm5.068899 0c-0.59106 0-1.108248 0.1569-1.514481 0.4616-0.323152 0.2493-0.489218 0.4801-0.692508 0.9511l0.70203 0.1935c0.101391-0.277 0.175286-0.3968 0.30454-0.5353 0.267749-0.2862 0.683239-0.4618 1.135799-0.4618 0.75692 0 1.28308 0.4433 1.28308 1.0806 0 0.6832-0.51705 1.0801-1.43109 1.0801h-0.70176v0.6183h0.70176c1.03406 0 1.65274 0.4526 1.65274 1.2005 0 0.7294-0.58163 1.1818-1.50473 1.1818-0.92343 0-1.375793-0.3047-1.643715-1.1079l-0.720047 0.2402c0.184646 0.4799 0.350788 0.7107 0.711033 0.9877 0.452232 0.3416 0.969169 0.5077 1.624689 0.5077 1.38489 0 2.33621-0.7384 2.33621-1.8281 0-0.803-0.52648-1.3664-1.42206-1.5325 0.73861-0.1661 1.18163-0.6924 1.18163-1.4032 0-0.9418-0.83997-1.6343-2.00312-1.6343zm-33.711649 0.034c-0.779369 0.023-1.423611 0.6359-1.689051 1.6285v-1.4526h-1.243248v6.0689h1.366471v-2.8068c0-1.0832 0.615434-1.9203 1.403279-1.9447l0.234178-0.013h0.08591v-1.0564l2.018648 5.8205h1.14507l2.055961-6.0689h-1.071183l-1.391013 4.1114-1.415807-4.1114h-1.341676v-0.1723c-0.05312-0.011-0.105578-0.011-0.157533-0.011zm14.476404 0c-0.779231 0.023-1.423369 0.6359-1.688802 1.6285v-1.4526h-1.243499v6.0689h1.366471v-2.8068c0-1.0832 0.615597-1.9203 1.403288-1.9447l0.23417-0.013h0.08591v-1.4771c-0.05304-0.011-0.105589-0.011-0.157532-0.011zm-20.96613 0.053c-1.711123 0-2.856163 1.28-2.856163 3.1636 0 1.9203 1.09574 3.1513 2.794552 3.1513 1.354128 0 2.289636-0.6648 2.695871-1.8957l-1.243248-0.1724c-0.283137 0.7015-0.677097 0.9848-1.36647 0.9848-0.910958 0-1.440312-0.6277-1.452617-1.7359v-0.1723h4.161015c-0.01232-2.1419-0.984889-3.3234-2.73294-3.3234zm14.538016 0c-1.711293 0-2.855912 1.28-2.855912 3.1636 0 1.9203 1.09532 3.1513 2.794301 3.1513 1.353956 0 2.289708-0.6648 2.69612-1.8957l-1.243498-0.1724c-0.283308 0.7015-0.676928 0.9848-1.366468 0.9848-0.910958 0-1.440143-0.6277-1.452625-1.7359v-0.1723h4.160769c-0.01217-2.1419-0.984638-3.3234-2.732687-3.3234zm-54.008327 0.011c-0.82445 0-1.353819 0.4306-1.858351 1.5259v-1.4027h-1.242753v6.0669h1.365725v-3.1135c0-0.4677 0.07395-0.8367 0.221645-1.1321 0.233845-0.4554 0.66463-0.7507 1.120024-0.7507 0.578463 0 0.947459 0.4677 0.947459 1.206v3.7903h1.36622v-3.9133c0-0.6277-0.07377-1.0215-0.258463-1.3785-0.270773-0.5292-0.959955-0.8983-1.661506-0.8983zm11.643287 0c-1.673693 0-2.842885 1.2921-2.842885 3.1381 0 0.7752 0.196851 1.4646 0.602835 2.0553 0.492492 0.7383 1.230692 1.12 2.16592 1.12 1.698391 0 2.879946-1.2924 2.879946-3.1507 0-0.7874-0.147986-1.3412-0.504907-1.9197-0.541548-0.8491-1.279616-1.243-2.300909-1.243zm13.389192 0c-0.849066 0-1.439722 0.2089-1.858357 0.6645-0.307533 0.3322-0.479871 0.7877-0.479871 1.2676 0 0.9845 0.578499 1.5508 1.833814 1.7846l1.1075 0.2214c0.406331 0.074 0.664705 0.3077 0.664705 0.603 0 0.4801-0.45541 0.7507-1.230973 0.7507-0.738215 0-1.082801-0.197-1.341176-0.7383l-1.280315 0.2462c0.147869 0.4676 0.308049 0.7012 0.627887 0.9474 0.504796 0.3692 1.169295 0.5663 1.944511 0.5663 1.612245 0 2.645776-0.7631 2.645776-1.9691 0-0.9599-0.516763-1.563-1.526002-1.76l-1.304608-0.2706c-0.615302-0.123-0.873579-0.3321-0.873579-0.6891 0-0.3937 0.418377-0.6524 1.070688-0.6524 0.627702 0 0.947584 0.1969 1.107499 0.689l1.230479-0.2582c-0.283168-0.923-1.082669-1.403-2.337978-1.403zm-30.655886 0.1232v6.0669h1.365969v-6.0669zm20.023174 0 1.870382 6.0669h1.26779l1.082956-4.258 1.095232 4.258h1.230471l1.784471-6.0669h-1.156836l-1.168866 4.0856-1.070682-4.0856h-1.243247l-1.033362 4.0856-1.206187-4.0856zm55.032921 0.3809c0.59089 0 1.015367 0.3047 1.274059 0.9049 0.202943 0.48 0.314062 1.1448 0.314062 1.828 0 0.5538-0.08343 1.0618-0.249451 1.4958-0.249289 0.637-0.674091 0.9692-1.274059 0.9692-0.978826 0-1.560302-0.9788-1.560302-2.6315 0-1.6063 0.553786-2.5664 1.495691-2.5664zm5.096204 0c0.590728 0 1.015789 0.3047 1.274308 0.9049 0.203117 0.48 0.313564 1.1448 0.313564 1.828 0 0.5538-0.08289 1.0618-0.249202 1.4958-0.249278 0.637-0.673755 0.9692-1.274048 0.9692-0.97849 0-1.560312-0.9788-1.560312-2.6315 0-1.6063 0.553958-2.5664 1.49569-2.5664zm-35.107917 0.4461c0.800164 0 1.317229 0.5664 1.366462 1.4774h-2.745201c0.110616-0.9602 0.603189-1.4774 1.378739-1.4774zm14.538016 0c0.799986 0 1.31722 0.5664 1.366461 1.4774h-2.745207c0.110963-0.9602 0.603197-1.4774 1.378746-1.4774zm-48.53043 0.096c0.356928 0 0.689203 0.1597 0.935191 0.455 0.234016 0.2833 0.320081 0.5784 0.320081 1.1076v1.0338c0 0.8738-0.566179 1.5508-1.292341 1.5508-0.824361 0-1.267538-0.7138-1.267538-2.0429 0-1.3538 0.467926-2.1043 1.304607-2.1043zm6.214726 0.073c0.873771 0 1.353442 0.7016 1.353442 2.0061 0 1.3292-0.49216 2.0675-1.378236 2.0675-0.873771 0-1.366212-0.7383-1.366212-2.0427 0-1.3045 0.504842-2.0309 1.391006-2.0309z"/>
<g stroke-width=".14721061">
<path d="m46.646551 1023.8809c-4.857359 2.0082-7.19285 0.8793-9.297822-0.5374l-2.396291 8.3119c2.102898 1.4246 4.641696 2.596 9.301938 0.5097z" fill="#91c300"/>
<path d="m30.855564 1040.59c-2.109672-1.4198-4.403063-2.5877-9.271907-0.5745l2.384075-8.3273c4.86987-2.0136 7.209344-0.8741 9.316958 0.5544l-2.429126 8.3473z" fill="#00b4f1"/>
<path d="m33.689523 1030.7394c-1.270136-0.8553-2.636105-1.6536-4.576043-1.6684-1.279998-0.011-2.803632 0.3538-4.737831 1.1535l2.397028-8.3059c4.866639-2.0122 7.204196-0.8733 9.310334 0.5542z" fill="#f8682c"/>
<path d="m34.548341 1033.0439c2.107032 1.4186 4.447532 2.5486 9.310047 0.5388l-2.396734 8.2782c-4.863401 2.0114-7.199039 0.8723-9.303864-0.555z" fill="#ffc300"/>
</g>
</g>
</svg>
