<svg width="100" height="17" version="1.1" viewBox="0 0 100 17" xmlns="http://www.w3.org/2000/svg">
<g transform="translate(0 -1035.4)">
<g stroke-width=".10378">
<path d="m18.111 1037.9c-3.4244 1.4157-5.071 0.6199-6.555-0.379l-1.6894 5.86c1.4825 1.0042 3.2724 1.8301 6.5579 0.3593z" fill="#91c300"/>
<path d="m6.9783 1049.7c-1.4873-1.0009-3.1042-1.8243-6.5367-0.405l1.6808-5.8707c3.4333-1.4196 5.0826-0.6162 6.5685 0.3908z" fill="#00b4f1"/>
<path d="m8.9763 1042.7c-0.89544-0.603-1.8585-1.1658-3.2261-1.1763-0.9024-0.011-1.9766 0.2494-3.3402 0.8133l1.6899-5.8557c3.431-1.4186 5.079-0.6156 6.5638 0.3907z" fill="#f8682c"/>
<path d="m9.5817 1044.3c1.4855 1.0001 3.1355 1.7967 6.5636 0.3799l-1.6897 5.8361c-3.4287 1.4181-5.0753 0.6149-6.5592-0.3912z" fill="#ffc300"/>
</g>
<path d="m39.715 1041.2 3.16e-4 2.9406h-0.01864c-0.30018-0.5142-0.77589-0.7714-1.4262-0.7714-0.65955 0-1.1878 0.237-1.5842 0.7111-0.39625 0.4738-0.5945 1.107-0.5945 1.9 0 0.7434 0.18571 1.3289 0.55754 1.7561 0.35614 0.4149 0.8267 0.6226 1.412 0.6226 0.73734 0 1.2823-0.3081 1.635-0.9246h0.01864v0.8083h0.76192v-7.0427zm-9.789 0.088c-0.13634 0-0.25311 0.048-0.35063 0.1419-0.09769 0.095-0.14657 0.2114-0.14657 0.3507 0 0.1453 0.04905 0.2648 0.14657 0.3575 0.09753 0.093 0.21429 0.1397 0.35063 0.1397 0.13941 0 0.25785-0.048 0.35537-0.1441 0.09769-0.096 0.14626-0.2141 0.14626-0.3535s-0.04873-0.2562-0.14626-0.3506c-0.09752-0.094-0.21596-0.1416-0.35537-0.1416zm31.084 0.1814c-0.27753 0-0.55033 0.037-0.81751 0.1105-0.26702 0.074-0.50526 0.1861-0.71422 0.3368-0.2088 0.1507-0.37748 0.3427-0.50573 0.5752-0.12826 0.2326-0.19237 0.5063-0.19237 0.8207 0 0.2566 0.04087 0.4803 0.12319 0.6712 0.08216 0.1909 0.19486 0.3612 0.338 0.5124 0.1433 0.1511 0.31181 0.2891 0.50573 0.4138 0.19392 0.1253 0.40319 0.2491 0.62703 0.3709 0.21203 0.1156 0.4095 0.2253 0.59323 0.3295 0.18341 0.1039 0.34243 0.2131 0.47667 0.3272 0.1344 0.1139 0.23955 0.2395 0.31588 0.3774 0.07601 0.1382 0.11404 0.3006 0.11404 0.4865 0 0.3464-0.11405 0.6119-0.34242 0.7961-0.22837 0.1847-0.57402 0.277-1.0367 0.277-0.13424 0-0.28059-0.015-0.43876-0.044-0.15834-0.029-0.31553-0.069-0.47225-0.1223-0.15672-0.053-0.30593-0.1182-0.44793-0.1952-0.14168-0.077-0.26328-0.1638-0.36485-0.2599v0.953c0.08362 0.061 0.19481 0.1165 0.33358 0.1661 0.13893 0.05 0.28619 0.091 0.44129 0.1254 0.1551 0.034 0.30701 0.059 0.45646 0.077 0.14928 0.017 0.27465 0.027 0.37622 0.027 0.30438 0 0.59406-0.033 0.86868-0.099 0.27446-0.066 0.51707-0.1723 0.72748-0.32 0.21058-0.1475 0.37758-0.3393 0.50163-0.5749 0.12373-0.2358 0.18574-0.5238 0.18574-0.8643 0-0.2563-0.04556-0.4845-0.13646-0.6832-0.09122-0.1989-0.21432-0.3798-0.36959-0.5437-0.15526-0.1637-0.33586-0.3128-0.54174-0.4478-0.20589-0.1347-0.42406-0.2631-0.65388-0.3848-0.22384-0.1189-0.42163-0.2278-0.59323-0.3273-0.1716-0.099-0.31688-0.2021-0.43624-0.308-0.11952-0.1058-0.21021-0.2227-0.27134-0.3513-0.06113-0.1282-0.09161-0.2806-0.09161-0.4571 0-0.1893 0.04028-0.3496 0.12098-0.4813 0.08071-0.1316 0.1851-0.2391 0.31336-0.3225 0.12842-0.083 0.27461-0.1435 0.43876-0.1804 0.16432-0.037 0.32846-0.055 0.49278-0.055 0.59388 0 1.0804 0.1409 1.4597 0.4233v-0.9095c-0.28966-0.1636-0.75088-0.2454-1.3836-0.2454zm-40.636 0.1118 1.9462 6.662h0.90628l1.3798-4.8826c0.06195-0.2136 0.10374-0.4351 0.12509-0.6643h0.01864c0.0092 0.2389 0.04348 0.4629 0.10203 0.6735l1.3709 4.8738h0.9148l1.8817-6.6624h-0.84563l-1.3615 5.1287c-0.071 0.2662-0.1128 0.4786-0.12509 0.6365h-0.01864c-0.02458-0.223-0.06218-0.4289-0.11151-0.6178l-1.4076-5.1474h-0.75244l-1.4774 5.1104c-0.08054 0.2818-0.12685 0.5047-0.1393 0.6691h-0.01864c-0.01844-0.2355-0.05721-0.4585-0.11625-0.6691l-1.4171-5.1104zm13.408 1.7883c-0.68446 0-1.2047 0.3019-1.5608 0.9059h-0.01832v-0.79h-0.76191v4.7575h0.76192v-2.7131c0-0.4367 0.12462-0.7976 0.37401-1.0822 0.24907-0.285 0.56424-0.4277 0.94545-0.4277 0.73718 0 1.1056 0.5031 1.1056 1.5099v2.7131h0.76223v-2.9127c0-0.6258-0.1373-1.1088-0.4116-1.4496s-0.67321-0.5111-1.1966-0.5111zm9.958 0c-0.72165 0-1.2978 0.2107-1.7285 0.6317-0.4645 0.4522-0.69684 1.0918-0.69684 1.9187 0 0.7245 0.20411 1.3087 0.61313 1.7512 0.41824 0.4584 0.9849 0.6878 1.7004 0.6878 0.72456 0 1.3012-0.2294 1.7285-0.6878 0.42778-0.4583 0.64125-1.0669 0.64125-1.8254 0-0.7717-0.199-1.3773-0.59702-1.8167-0.39802-0.4397-0.95172-0.6595-1.6609-0.6595zm10.909 0c-0.49248 0-0.89547 0.131-1.2083 0.3926-0.31279 0.2616-0.46909 0.5909-0.46909 0.9875 0 0.3532 0.10063 0.6395 0.30199 0.8591 0.16723 0.1859 0.45088 0.3657 0.85036 0.539 0.38735 0.1706 0.64744 0.3157 0.78055 0.4365 0.1331 0.1208 0.19932 0.2743 0.19932 0.4602 0 0.4427-0.30172 0.6643-0.90596 0.6643-0.45204 0-0.8644-0.1519-1.2361-0.4554v0.8181c0.3343 0.192 0.72794 0.2878 1.1801 0.2878 0.55135 0 0.98694-0.1395 1.3056-0.4183 0.29128-0.2572 0.43655-0.5808 0.43655-0.971 0-0.3532-0.11633-0.6439-0.34842-0.8731-0.1792-0.1804-0.47159-0.3552-0.87722-0.5253-0.36228-0.1549-0.60129-0.2865-0.7158-0.3949-0.1268-0.1179-0.19048-0.282-0.19048-0.4928 0-0.195 0.07589-0.354 0.22744-0.4782 0.15187-0.1239 0.35462-0.1857 0.60903-0.1857 0.40595 0 0.76469 0.1128 1.0775 0.3392v-0.7666c-0.30018-0.1486-0.63934-0.223-1.0172-0.223zm10.995 0.072c-0.59987 0-1.1021 0.2415-1.5068 0.7244-0.40433 0.4829-0.60681 1.1078-0.60682 1.8741 0 0.8119 0.18528 1.4418 0.55533 1.889 0.37021 0.4478 0.87892 0.6716 1.527 0.6716 0.66262 0 1.1957-0.1578 1.5987-0.4719v-0.7411c-0.43296 0.3658-0.90776 0.549-1.424 0.549-0.45965 0-0.82099-0.1497-1.0838-0.4482-0.26282-0.2979-0.39996-0.7214-0.4116-1.2702h3.2369v-0.4142c0-0.7407-0.16431-1.3197-0.49247-1.7367-0.32832-0.4173-0.79255-0.6258-1.3924-0.6258zm12.689 0c-0.5997 0-1.1018 0.2415-1.5065 0.7244-0.40433 0.4829-0.60681 1.1078-0.60681 1.8741 0 0.8119 0.18528 1.4418 0.55532 1.889 0.37021 0.4478 0.87893 0.6716 1.527 0.6716 0.66262 0 1.1957-0.1578 1.5987-0.4719v-0.7411c-0.43296 0.3658-0.90776 0.549-1.424 0.549-0.45965 0-0.82098-0.1497-1.0838-0.4482-0.26266-0.2979-0.39995-0.7214-0.4116-1.2702h3.2369v-0.4142c0-0.7407-0.16431-1.3197-0.49247-1.7367-0.32832-0.4173-0.79255-0.6258-1.3927-0.6258zm-7.7414 0.029c-0.26573 0-0.50574 0.097-0.72085 0.2912-0.21462 0.1941-0.37472 0.4645-0.4792 0.8109h-0.01769v-1.0152h-0.73443v4.9278h0.73443v-2.5119c0-0.5488 0.10516-0.9814 0.31557-1.2993 0.21058-0.3175 0.47217-0.4763 0.78561-0.4763 0.24179 0 0.42691 0.053 0.55533 0.1585v-0.8181c-0.10141-0.045-0.2476-0.067-0.43876-0.067zm12.689 0c-0.26556 0-0.5059 0.097-0.72085 0.2912-0.21479 0.1941-0.37472 0.4645-0.4792 0.8109h-0.01771v-1.0152h-0.73443v4.9278h0.73443v-2.5119c0-0.5488 0.105-0.9814 0.31557-1.2993 0.21041-0.3175 0.47217-0.4763 0.78561-0.4763 0.24179 0 0.42691 0.053 0.55532 0.1585v-0.8181c-0.1014-0.045-0.2476-0.067-0.43876-0.067zm4.2209 0.011c-0.45124 0-0.84682 0.1492-1.1868 0.4482v0.5889c0.35614-0.3744 0.72849-0.5617 1.117-0.5617 0.26508 0 0.46934 0.078 0.61313 0.2328 0.14362 0.1551 0.21543 0.374 0.21543 0.657 0 0.2761-0.06939 0.5356-0.20786 0.7787-0.1386 0.2431-0.36973 0.5473-0.69337 0.9123l-1.2689 1.4341v0.4997h2.6225v-0.5064h-2.0245v-0.014l1.0045-1.1195c0.39851-0.4449 0.67476-0.8176 0.82856-1.1176 0.15365-0.2998 0.23092-0.6075 0.23092-0.9223 0-0.3992-0.11135-0.7174-0.33389-0.9547-0.22271-0.2374-0.52822-0.356-0.9167-0.356zm3.3784 0c-0.4755 0-0.83941 0.2223-1.0914 0.6674-0.25198 0.445-0.3778 1.1013-0.3778 1.9683 0 0.7896 0.12085 1.3931 0.36264 1.8107 0.24179 0.4176 0.57824 0.626 1.0093 0.626 0.46143 0 0.8205-0.2181 1.0775-0.655 0.257-0.4371 0.3857-1.0711 0.3857-1.9017 0-1.6772-0.45533-2.5157-1.3659-2.5157zm3.3509 0c-0.4755 0-0.83909 0.2223-1.0911 0.6674-0.25197 0.445-0.37811 1.1013-0.37811 1.9683 0 0.7896 0.12084 1.3931 0.36264 1.8107 0.24179 0.4176 0.57823 0.626 1.0092 0.626 0.46142 0 0.82049-0.2181 1.0775-0.655 0.25699-0.4371 0.38569-1.0711 0.38569-1.9017 0-1.6772-0.45533-2.5157-1.3659-2.5157zm3.3629 0c-0.37636 0-0.68398 0.1136-0.9227 0.3405-0.23888 0.2273-0.35822 0.5175-0.35822 0.8712 0 0.5205 0.26101 0.9171 0.78308 1.1909v0.014c-0.6272 0.2874-0.9407 0.7462-0.9407 1.3763 0 0.3788 0.12023 0.6867 0.36105 0.924 0.24082 0.2374 0.54724 0.356 0.91955 0.356 0.46158 0 0.82171-0.1199 1.0806-0.3595 0.25894-0.2395 0.38854-0.5624 0.38854-0.9684 0-0.63-0.31757-1.0728-0.95303-1.3284v-0.014c0.53825-0.3012 0.80709-0.7234 0.80709-1.2664 0-0.3333-0.10907-0.6058-0.32757-0.8181-0.21866-0.2124-0.49777-0.3185-0.83773-0.3185zm-68.059 0v4.7576h0.76192v-4.7576zm16.588 0 1.4357 4.7576h0.7616l1.0639-3.4148c0.05596-0.1769 0.08839-0.3192 0.09761-0.4277h0.01864c0.01553 0.1672 0.04027 0.3133 0.07423 0.4368l0.98051 3.4057h0.79003l1.4259-4.7576h-0.75244l-0.97135 3.5869c-0.04351 0.1641-0.06825 0.3066-0.07455 0.4274h-0.03696c-0.01229-0.1705-0.03418-0.3131-0.06508-0.4274l-0.98935-3.5869h-0.69716l-1.0917 3.5682c-0.04965 0.1582-0.07892 0.3035-0.08813 0.4366h-0.03728c-0.01213-0.1611-0.03403-0.3037-0.06475-0.4278l-0.98051-3.577zm25.391 0.073 1.7374 4.9278h0.72085l1.8268-4.9278h-0.77487l-1.2174 3.5997c-0.06584 0.199-0.11364 0.422-0.14372 0.6688h-0.01771c-0.02091-0.1954-0.0744-0.425-0.1611-0.688l-1.164-3.5805zm19.339 0.3999c0.58888 0 0.88338 0.6995 0.88322 2.0984 0 1.3507-0.30053 2.0261-0.90154 2.0261-0.60908 0-0.91354-0.6639-0.91354-1.992 0-1.4215 0.31064-2.1325 0.93186-2.1325zm3.3509 0c0.58871 0 0.88338 0.6995 0.88322 2.0984 0 1.3507-0.30022 2.0261-0.90123 2.0261-0.60908 0-0.91386-0.6639-0.91386-1.992 0-1.4215 0.31065-2.1325 0.93187-2.1325zm3.3449 0c0.2164 0 0.38765 0.065 0.513 0.1948 0.12534 0.1302 0.18827 0.3084 0.18827 0.5342 0 0.4154-0.23973 0.7347-0.71959 0.9584-0.47145-0.2167-0.70727-0.5382-0.70727-0.9651 0-0.2098 0.0705-0.3827 0.21102-0.5186 0.14054-0.1357 0.31208-0.2037 0.51457-0.2037zm-59.181 0.061c0.39334 0 0.71846 0.1364 0.97545 0.4087 0.24778 0.2601 0.3718 0.581 0.3718 0.9619v0.7016c0 0.4584-0.12704 0.8393-0.38096 1.1429-0.26945 0.3157-0.62082 0.4741-1.0544 0.4741-0.40854 0-0.74032-0.1459-0.99441-0.4369-0.27576-0.3159-0.4135-0.7603-0.4135-1.3333 0-0.601 0.13321-1.071 0.39991-1.4101 0.26621-0.3392 0.63163-0.5089 1.0961-0.5089zm5.316 0c0.48019 0 0.85344 0.1533 1.1198 0.4602 0.27576 0.319 0.41349 0.7837 0.41349 1.3937 0 0.5821-0.1287 1.0311-0.3857 1.3469-0.2633 0.3253-0.64575 0.4881-1.1476 0.4881-0.4831 0-0.86857-0.1604-1.1565-0.4808-0.28805-0.3205-0.43213-0.7657-0.43213-1.3359 0-0.6071 0.15028-1.0762 0.45045-1.4078 0.28514-0.3095 0.6641-0.4644 1.1381-0.4644zm21.947 0.087c0.35808 0 0.63794 0.127 0.83962 0.3799 0.20152 0.2538 0.30366 0.6082 0.30641 1.064h-2.4759c0.05677-0.4297 0.20582-0.7779 0.44761-1.044 0.24179-0.2667 0.53584-0.3999 0.88227-0.3999zm12.689 0c0.35808 0 0.63794 0.127 0.83962 0.3799 0.20136 0.2538 0.30365 0.6082 0.30672 1.064h-2.4762c0.05677-0.4297 0.20614-0.7779 0.44792-1.044 0.24179-0.2667 0.53552-0.3999 0.88196-0.3999zm19.177 2.0589c0.5989 0.2422 0.89838 0.6093 0.89838 1.1021 0 0.235-0.0795 0.4294-0.23818 0.5835-0.15898 0.1539-0.3637 0.2309-0.61471 0.2309-0.26314 0-0.47527-0.078-0.6362-0.2341-0.16076-0.1564-0.24102-0.3566-0.24102-0.6008 0-0.4723 0.27715-0.8329 0.83173-1.0816z" fill="#000001" stroke-width=".16173"/>
</g>
</svg>
