<svg width="2134" height="301" xmlns="http://www.w3.org/2000/svg" xmlns:xlink="http://www.w3.org/1999/xlink" overflow="hidden"><defs><clipPath id="clip0"><rect x="839" y="1086" width="2134" height="301"/></clipPath><clipPath id="clip1"><rect x="1525" y="1085" width="760" height="303"/></clipPath><clipPath id="clip2"><rect x="1525" y="1085" width="760" height="303"/></clipPath><clipPath id="clip3"><rect x="1525" y="1085" width="760" height="303"/></clipPath></defs><g clip-path="url(#clip0)" transform="translate(-839 -1086)"><path d="M839 1128.92 961.681 1112.08 961.681 1230.62 839 1230.62M976.457 1109.74 1139 1086 1139 1229.63 976.457 1229.63M839 1243.17 961.681 1243.17 961.681 1362.05 839 1344.87M976.457 1244.75 1139 1244.75 1139 1387 976.457 1363.98" fill="#00188F" fill-rule="evenodd"/><path d="M1459 1149 1409.19 1326 1384.96 1326 1348.68 1196.64C1347.12 1191.13 1346.18 1185.12 1345.85 1178.62L1345.36 1178.62C1344.87 1184.71 1343.8 1190.64 1342.16 1196.4L1305.64 1326 1281.65 1326 1230 1149 1252.75 1149 1290.26 1284.77C1291.82 1290.45 1292.81 1296.38 1293.22 1302.55L1293.83 1302.55C1294.24 1298.19 1295.51 1292.26 1297.64 1284.77L1336.63 1149 1356.43 1149 1393.82 1285.76C1395.13 1290.45 1396.11 1295.97 1396.77 1302.3L1397.26 1302.3C1397.59 1298.02 1398.7 1292.34 1400.58 1285.27L1436.62 1149Z" fill="#00188F" fill-rule="evenodd"/><path d="M1489.88 1167.32C1486.32 1167.32 1483.28 1166.09 1480.77 1163.62 1478.25 1161.14 1477 1158.01 1477 1154.22 1477 1150.43 1478.25 1147.3 1480.77 1144.83 1483.28 1142.28 1486.32 1141 1489.88 1141 1493.52 1141 1496.6 1142.28 1499.11 1144.83 1501.7 1147.3 1503 1150.43 1503 1154.22 1503 1157.85 1501.7 1160.94 1499.11 1163.49 1496.6 1166.05 1493.52 1167.32 1489.88 1167.32ZM1499.6 1326 1479.67 1326 1479.67 1199.45 1499.6 1199.45Z" fill="#00188F" fill-rule="evenodd"/><path d="M1642 1326 1621.93 1326 1621.93 1254.11C1621.93 1227.36 1612.23 1213.99 1592.81 1213.99 1582.78 1213.99 1574.46 1217.8 1567.85 1225.43 1561.33 1232.98 1558.07 1242.54 1558.07 1254.11L1558.07 1326 1538 1326 1538 1199.95 1558.07 1199.95 1558.07 1220.88 1558.56 1220.88C1568.02 1204.96 1581.72 1197 1599.67 1197 1613.37 1197 1623.85 1201.47 1631.11 1210.42 1638.37 1219.28 1642 1232.12 1642 1248.94Z" fill="#00188F" fill-rule="evenodd"/><path d="M1785 1326.04 1764.85 1326.04 1764.85 1304.57 1764.36 1304.57C1755.02 1320.86 1740.6 1329 1721.1 1329 1705.29 1329 1692.64 1323.37 1683.13 1312.1 1673.71 1300.75 1669 1285.32 1669 1265.83 1669 1244.94 1674.24 1228.2 1684.73 1215.62 1695.21 1203.03 1709.18 1196.74 1726.63 1196.74 1743.92 1196.74 1756.49 1203.57 1764.36 1217.22L1764.85 1217.22 1764.85 1139 1785 1139ZM1764.85 1268.92 1764.85 1250.29C1764.85 1240.09 1761.49 1231.45 1754.77 1224.38 1748.05 1217.3 1739.53 1213.77 1729.21 1213.77 1716.92 1213.77 1707.26 1218.29 1700.21 1227.34 1693.17 1236.39 1689.64 1248.89 1689.64 1264.84 1689.64 1279.4 1693 1290.92 1699.72 1299.39 1706.52 1307.78 1715.61 1311.97 1727 1311.97 1738.22 1311.97 1747.32 1307.9 1754.28 1299.76 1761.33 1291.62 1764.85 1281.34 1764.85 1268.92Z" fill="#00188F" fill-rule="evenodd"/><path d="M1875.76 1329C1856.99 1329 1841.99 1323.13 1830.74 1311.39 1819.58 1299.57 1814 1283.93 1814 1264.48 1814 1243.3 1819.83 1226.76 1831.49 1214.85 1843.14 1202.95 1858.89 1197 1878.73 1197 1897.66 1197 1912.42 1202.79 1923.01 1214.36 1933.67 1225.94 1939 1241.99 1939 1262.51 1939 1282.62 1933.26 1298.75 1921.77 1310.9 1910.36 1322.97 1895.02 1329 1875.76 1329ZM1877.25 1213.99C1864.18 1213.99 1853.85 1218.43 1846.24 1227.29 1838.64 1236.07 1834.83 1248.22 1834.83 1263.74 1834.83 1278.68 1838.68 1290.46 1846.37 1299.08 1854.05 1307.7 1864.35 1312.01 1877.25 1312.01 1890.39 1312.01 1900.48 1307.78 1907.51 1299.32 1914.61 1290.87 1918.17 1278.84 1918.17 1263.25 1918.17 1247.49 1914.61 1235.34 1907.51 1226.8 1900.48 1218.26 1890.39 1213.99 1877.25 1213.99Z" fill="#00188F" fill-rule="evenodd"/><path d="M2127 1200 2089.05 1326 2068.04 1326 2041.96 1235.81C2040.97 1232.36 2040.31 1228.46 2039.98 1224.12L2039.49 1224.12C2039.24 1227.07 2038.38 1230.88 2036.89 1235.56L2008.59 1326 1988.32 1326 1950 1200 1971.26 1200 1997.46 1294.75C1998.29 1297.62 1998.86 1301.39 1999.19 1306.07L2000.18 1306.07C2000.43 1302.46 2001.17 1298.6 2002.41 1294.5L2031.58 1200 2050.12 1200 2076.32 1294.99C2077.15 1298.03 2077.76 1301.8 2078.18 1306.31L2079.16 1306.31C2079.33 1303.11 2080.03 1299.34 2081.27 1294.99L2106.98 1200Z" fill="#00188F" fill-rule="evenodd"/><path d="M2139 1321.49 2139 1299.82C2150.05 1307.94 2162.22 1312.01 2175.5 1312.01 2193.31 1312.01 2202.22 1306.1 2202.22 1294.28 2202.22 1290.91 2201.43 1288.08 2199.87 1285.78 2198.38 1283.4 2196.32 1281.31 2193.68 1279.5 2191.12 1277.69 2188.07 1276.09 2184.53 1274.7 2181.06 1273.22 2177.31 1271.7 2173.27 1270.14 2167.66 1267.93 2162.71 1265.71 2158.42 1263.49 2154.22 1261.19 2150.67 1258.65 2147.79 1255.86 2144.98 1252.99 2142.84 1249.74 2141.35 1246.13 2139.95 1242.52 2139.25 1238.29 2139.25 1233.45 2139.25 1227.54 2140.61 1222.32 2143.33 1217.81 2146.05 1213.21 2149.68 1209.4 2154.22 1206.36 2158.75 1203.24 2163.91 1200.9 2169.68 1199.34 2175.54 1197.78 2181.56 1197 2187.74 1197 2198.71 1197 2208.53 1198.89 2217.19 1202.66L2217.19 1223.1C2207.87 1217.03 2197.14 1213.99 2185.02 1213.99 2181.23 1213.99 2177.81 1214.44 2174.75 1215.35 2171.7 1216.17 2169.06 1217.36 2166.84 1218.92 2164.69 1220.48 2163 1222.37 2161.76 1224.58 2160.61 1226.72 2160.03 1229.1 2160.03 1231.72 2160.03 1235.01 2160.61 1237.76 2161.76 1239.97 2163 1242.19 2164.77 1244.16 2167.08 1245.88 2169.39 1247.61 2172.19 1249.17 2175.5 1250.56 2178.79 1251.96 2182.55 1253.48 2186.75 1255.12 2192.36 1257.25 2197.39 1259.47 2201.85 1261.77 2206.3 1263.98 2210.09 1266.53 2213.23 1269.4 2216.36 1272.19 2218.75 1275.44 2220.4 1279.13 2222.13 1282.82 2223 1287.22 2223 1292.31 2223 1298.54 2221.6 1303.96 2218.79 1308.56 2216.07 1313.16 2212.4 1316.97 2207.79 1320.01 2203.17 1323.05 2197.84 1325.31 2191.83 1326.78 2185.8 1328.26 2179.49 1329 2172.9 1329 2159.87 1329 2148.57 1326.5 2139 1321.49Z" fill="#00188F" fill-rule="evenodd"/><path d="M2311 1318.87 2311 1294.43C2313.79 1296.9 2317.12 1299.12 2320.97 1301.09 2324.92 1303.07 2329.02 1304.76 2333.29 1306.16 2337.64 1307.47 2341.99 1308.5 2346.34 1309.24 2350.69 1309.98 2354.71 1310.35 2358.41 1310.35 2371.13 1310.35 2380.61 1308.01 2386.85 1303.32 2393.17 1298.54 2396.33 1291.71 2396.33 1282.82 2396.33 1278.04 2395.26 1273.89 2393.13 1270.35 2391.07 1266.81 2388.2 1263.6 2384.51 1260.71 2380.81 1257.75 2376.42 1254.95 2371.33 1252.32 2366.32 1249.6 2360.91 1246.76 2355.08 1243.8 2348.92 1240.67 2343.18 1237.5 2337.84 1234.29 2332.51 1231.08 2327.87 1227.54 2323.93 1223.67 2319.99 1219.8 2316.87 1215.44 2314.57 1210.58 2312.35 1205.64 2311.25 1199.88 2311.25 1193.29 2311.25 1185.23 2313.01 1178.23 2316.54 1172.3 2320.07 1166.29 2324.71 1161.35 2330.46 1157.48 2336.2 1153.61 2342.73 1150.73 2350.03 1148.84 2357.42 1146.95 2364.93 1146 2372.57 1146 2389.97 1146 2402.65 1148.1 2410.61 1152.3L2410.61 1175.64C2400.19 1168.39 2386.8 1164.77 2370.47 1164.77 2365.96 1164.77 2361.44 1165.26 2356.93 1166.25 2352.41 1167.16 2348.39 1168.68 2344.86 1170.82 2341.33 1172.96 2338.46 1175.72 2336.24 1179.09 2334.03 1182.47 2332.92 1186.58 2332.92 1191.44 2332.92 1195.97 2333.74 1199.88 2335.38 1203.17 2337.11 1206.46 2339.61 1209.47 2342.89 1212.19 2346.18 1214.9 2350.15 1217.54 2354.84 1220.09 2359.6 1222.64 2365.05 1225.44 2371.21 1228.49 2377.53 1231.61 2383.52 1234.91 2389.19 1238.36 2394.85 1241.82 2399.82 1245.65 2404.08 1249.85 2408.35 1254.05 2411.72 1258.7 2414.18 1263.8 2416.73 1268.91 2418 1274.75 2418 1281.34 2418 1290.06 2416.27 1297.47 2412.83 1303.56 2409.46 1309.57 2404.86 1314.47 2399.04 1318.26 2393.29 1322.04 2386.64 1324.76 2379.09 1326.41 2371.54 1328.14 2363.58 1329 2355.2 1329 2352.41 1329 2348.97 1328.75 2344.86 1328.26 2340.76 1327.85 2336.57 1327.19 2332.3 1326.28 2328.03 1325.46 2323.97 1324.43 2320.11 1323.2 2316.34 1321.88 2313.3 1320.44 2311 1318.87Z" fill="#00188F" fill-rule="evenodd"/><path d="M2549 1268.05 2459.94 1268.05C2460.27 1282.09 2464.05 1292.92 2471.27 1300.56 2478.5 1308.19 2488.44 1312.01 2501.08 1312.01 2515.29 1312.01 2528.35 1307.33 2540.25 1297.97L2540.25 1316.93C2529.17 1324.98 2514.51 1329 2496.28 1329 2478.46 1329 2464.46 1323.29 2454.27 1311.88 2444.09 1300.39 2439 1284.26 2439 1263.49 2439 1243.87 2444.54 1227.91 2455.63 1215.59 2466.8 1203.2 2480.63 1197 2497.14 1197 2513.65 1197 2526.42 1202.34 2535.45 1213.01 2544.48 1223.68 2549 1238.5 2549 1257.46ZM2528.31 1250.93C2528.22 1239.28 2525.39 1230.21 2519.81 1223.72 2514.3 1217.23 2506.63 1213.99 2496.77 1213.99 2487.25 1213.99 2479.16 1217.4 2472.51 1224.21 2465.85 1231.03 2461.75 1239.93 2460.19 1250.93Z" fill="#00188F" fill-rule="evenodd"/><path d="M2642 1220.6C2638.46 1217.9 2633.35 1216.55 2626.68 1216.55 2618.02 1216.55 2610.77 1220.6 2604.92 1228.71 2599.15 1236.82 2596.27 1247.87 2596.27 1261.88L2596.27 1326 2576 1326 2576 1200.21 2596.27 1200.21 2596.27 1226.13 2596.77 1226.13C2599.65 1217.29 2604.05 1210.41 2609.99 1205.49 2615.92 1200.5 2622.55 1198 2629.89 1198 2635.16 1198 2639.2 1198.57 2642 1199.72Z" fill="#00188F" fill-rule="evenodd"/><path d="M2760 1200 2709.69 1326 2689.84 1326 2642 1200 2664.19 1200 2696.25 1291.55C2698.64 1298.27 2700.12 1304.14 2700.69 1309.14L2701.18 1309.14C2702 1302.83 2703.32 1297.12 2705.13 1292.04L2738.67 1200Z" fill="#00188F" fill-rule="evenodd"/><path d="M2880 1268.05 2790.94 1268.05C2791.27 1282.09 2795.05 1292.92 2802.27 1300.56 2809.5 1308.19 2819.44 1312.01 2832.08 1312.01 2846.29 1312.01 2859.35 1307.33 2871.26 1297.97L2871.26 1316.93C2860.17 1324.98 2845.51 1329 2827.28 1329 2809.46 1329 2795.46 1323.29 2785.28 1311.88 2775.09 1300.39 2770 1284.26 2770 1263.49 2770 1243.87 2775.55 1227.91 2786.63 1215.59 2797.8 1203.2 2811.64 1197 2828.14 1197 2844.65 1197 2857.42 1202.34 2866.45 1213.01 2875.49 1223.68 2880 1238.5 2880 1257.46ZM2859.31 1250.93C2859.23 1239.28 2856.39 1230.21 2850.81 1223.72 2845.3 1217.23 2837.63 1213.99 2827.77 1213.99 2818.25 1213.99 2810.16 1217.4 2803.51 1224.21 2796.86 1231.03 2792.75 1239.93 2791.19 1250.93Z" fill="#00188F" fill-rule="evenodd"/><path d="M2973 1220.6C2969.46 1217.9 2964.35 1216.55 2957.67 1216.55 2949.02 1216.55 2941.77 1220.6 2935.92 1228.71 2930.15 1236.82 2927.27 1247.87 2927.27 1261.88L2927.27 1326 2907 1326 2907 1200.21 2927.27 1200.21 2927.27 1226.13 2927.76 1226.13C2930.65 1217.29 2935.06 1210.41 2940.99 1205.49 2946.92 1200.5 2953.55 1198 2960.89 1198 2966.16 1198 2970.2 1198.57 2973 1199.72Z" fill="#00188F" fill-rule="evenodd"/><g clip-path="url(#clip1)"><g clip-path="url(#clip2)"><g clip-path="url(#clip3)"></g></g></g></g></svg>